<svg class="railroad" viewBox="0 0 2088 1873" xmlns="http://www.w3.org/2000/svg"
     xmlns:xlink="http://www.w3.org/1999/xlink">
<style type="text/css">
svg.railroad {
    background-color: hsl(30, 20%, 95%);
    background-size: 15px 15px;
    background-image: linear-gradient(to right, rgba(30, 30, 30, .05) 1px, transparent 1px),
    linear-gradient(to bottom, rgba(30, 30, 30, .05) 1px, transparent 1px);
}

svg.railroad path {
    stroke-width: 3px;
    stroke: black;
    fill: transparent;
}

svg.railroad .debug {
    stroke-width: 1px;
    stroke: red;
}

svg.railroad text {
    font-size: 14px;
    font-family: monospace;
    text-anchor: middle;
}

svg.railroad .nonterminal text {
    font-weight: bold;
}

svg.railroad text.comment {
    font-family: serif;
    font-style: italic;
    font-size: 12px;
}

svg.railroad rect {
    stroke-width: 3px;
    stroke: black;
}

svg.railroad g.labeledbox > rect {
    stroke-width: 1px;
    stroke: grey;
    stroke-dasharray: 5px;
    fill: rgba(90, 90, 150, .1);
}

svg.railroad .symbol > rect {
    fill: rgba(90, 90, 150, .1);
}

svg.railroad .regex > rect {
    fill: honeydew;
}

svg.railroad .string > rect {
    fill: cornsilk;
}

svg.railroad .character > rect {
    fill: lightcoral;
}
</style>
<g class="verticalgrid">
<g class="sequence">
<path d=" M 10 21 a 5 5 0 0 1 5 -5 a 5 5 0 0 1 5 5 a 5 5 0 0 1 -5 5 a 5 5 0 0 1 -5 -5 m 10 0 h 5"/>
<text class="comment" id="Root" x="54" y="26">
Root</text>
<g class="repeat">
<path d=" M 83 21 h 12 m 76 0 h 12 m -12 0 a 12 12 0 0 1 12 12 v 7 a 12 12 0 0 1 -12 12 m -17 0 h -59 m 32 0 l 5 -5 m 0 10 l -5 -5 m -32 0 a 12 12 0 0 1 -12 -12 v -7 a 12 12 0 0 1 12 -12"/>
<text class="comment" x="162" y="57">
*</text>
<a class="link" xlink:href="#Element">
<g class="symbol">
<rect height="22" width="76" x="95" y="10"/>
<text x="133" y="26">
Element</text>
</g>
</a>
</g>
<path d=" M 193 21 h 5 a 5 5 0 0 1 5 -5 a 5 5 0 0 1 5 5 a 5 5 0 0 1 -5 5 a 5 5 0 0 1 -5 -5"/>
<path d=" M 25 21 h 10"/>
<path d=" M 73 21 h 10"/>
<path d=" M 183 21 h 10"/>
</g>
<g class="sequence">
<path d=" M 10 85 a 5 5 0 0 1 5 -5 a 5 5 0 0 1 5 5 a 5 5 0 0 1 -5 5 a 5 5 0 0 1 -5 -5 m 10 0 h 5"/>
<text class="comment" id="Element" x="64" y="90">
Element</text>
<g class="choice">
    <path d=" M 104 85 h 24 m 84 0 h 72 m -33 0 l -5 -5 m 0 10 l 5 -5 m 33 0"/>
    <a class="link" xlink:href="#TextMany">
<g class="symbol">
    <rect height="22" width="84" x="128" y="74"/>
    <text x="170" y="90">
        TextMany
    </text>
</g>
</a>
<path d=" M 104 85 a 12 12 0 0 1 12 12 v 9 m 156 0 v -9 a 12 12 0 0 1 12 -12"/>
<path d=" M 116 106 v 33 m 156 0 v -33"/>
<path d=" M 116 106 v 0 a 12 12 0 0 0 12 12 m 132 0 h 0 a 12 12 0 0 0 12 -12 v 0"/>
<a class="link" xlink:href="#TemplateExport">
<g class="symbol">
<rect height="22" width="132" x="128" y="107"/>
<text x="194" y="123">
TemplateExport</text>
</g>
</a>
<path d=" M 116 139 v 0 a 12 12 0 0 0 12 12 m 100 0 h 32 a 12 12 0 0 0 12 -12 v 0"/>
<a class="link" xlink:href="#TemplateIf">
<g class="symbol">
<rect height="22" width="100" x="128" y="140"/>
<text x="178" y="156">
TemplateIf</text>
</g>
</a>
</g>
<path d=" M 294 85 h 5 a 5 5 0 0 1 5 -5 a 5 5 0 0 1 5 5 a 5 5 0 0 1 -5 5 a 5 5 0 0 1 -5 -5"/>
<path d=" M 25 85 h 10"/>
<path d=" M 94 85 h 10"/>
<path d=" M 284 85 h 10"/>
</g>
<g class="sequence">
<path d=" M 10 185 a 5 5 0 0 1 5 -5 a 5 5 0 0 1 5 5 a 5 5 0 0 1 -5 5 a 5 5 0 0 1 -5 -5 m 10 0 h 5"/>
    <text class="comment" id="TextMany" x="68" y="190">
        TextMany
    </text>
    <g class="repeat">
        <path d=" M 111 185 h 12 m 116 0 h 12 m -12 0 a 12 12 0 0 1 12 12 v 7 a 12 12 0 0 1 -12 12 m -17 0 h -99 m 52 0 l 5 -5 m 0 10 l -5 -5 m -52 0 a 12 12 0 0 1 -12 -12 v -7 a 12 12 0 0 1 12 -12"/>
        <text class="comment" x="230" y="221">
            +
        </text>
        <a class="link" xlink:href="#TextElements">
            <g class="symbol">
                <rect height="22" width="116" x="123" y="174"/>
                <text x="181" y="190">
                    TextElements
                </text>
            </g>
        </a>
    </g>
    <path d=" M 261 185 h 5 a 5 5 0 0 1 5 -5 a 5 5 0 0 1 5 5 a 5 5 0 0 1 -5 5 a 5 5 0 0 1 -5 -5"/>
    <path d=" M 25 185 h 10"/>
    <path d=" M 101 185 h 10"/>
    <path d=" M 251 185 h 10"/>
</g>
    <g class="sequence">
        <path d=" M 10 249 a 5 5 0 0 1 5 -5 a 5 5 0 0 1 5 5 a 5 5 0 0 1 -5 5 a 5 5 0 0 1 -5 -5 m 10 0 h 5"/>
        <text class="comment" id="TextElements" x="82" y="254">
TextElements</text>
<g class="choice">
    <path d=" M 139 249 h 24 m 100 0 h 24"/>
<a class="link" xlink:href="#TEMPLATE_E">
<g class="symbol">
    <rect height="22" width="100" x="163" y="238"/>
    <text x="213" y="254">
TEMPLATE_E</text>
</g>
</a>
    <path d=" M 139 249 a 12 12 0 0 1 12 12 v 9 m 124 0 v -9 a 12 12 0 0 1 12 -12"/>
    <path d=" M 151 270 v 33 m 124 0 v -33"/>
    <path d=" M 151 270 v 0 a 12 12 0 0 0 12 12 m 100 0 h 0 a 12 12 0 0 0 12 -12 v 0"/>
<a class="link" xlink:href="#TEXT_SPACE">
<g class="symbol">
    <rect height="22" width="100" x="163" y="271"/>
    <text x="213" y="287">
TEXT_SPACE</text>
</g>
</a>
    <path d=" M 151 303 v 0 a 12 12 0 0 0 12 12 m 92 0 h 8 a 12 12 0 0 0 12 -12 v 0"/>
<a class="link" xlink:href="#TEXT_WORD">
<g class="symbol">
    <rect height="22" width="92" x="163" y="304"/>
    <text x="209" y="320">
TEXT_WORD</text>
</g>
</a>
</g>
        <path d=" M 297 249 h 5 a 5 5 0 0 1 5 -5 a 5 5 0 0 1 5 5 a 5 5 0 0 1 -5 5 a 5 5 0 0 1 -5 -5"/>
        <path d=" M 25 249 h 10"/>
        <path d=" M 129 249 h 10"/>
        <path d=" M 287 249 h 10"/>
</g>
<g class="sequence">
    <path d=" M 10 349 a 5 5 0 0 1 5 -5 a 5 5 0 0 1 5 5 a 5 5 0 0 1 -5 5 a 5 5 0 0 1 -5 -5 m 10 0 h 5"/>
    <text class="comment" id="TEMPLATE_E" x="75" y="354">
TEMPLATE_E</text>
<g class="string">
    <rect height="22" rx="10" ry="10" width="44" x="125" y="338"/>
    <text x="147" y="354">
        &lt;%!
    </text>
</g>
    <path d=" M 179 349 h 5 a 5 5 0 0 1 5 -5 a 5 5 0 0 1 5 5 a 5 5 0 0 1 -5 5 a 5 5 0 0 1 -5 -5"/>
    <path d=" M 25 349 h 10"/>
    <path d=" M 115 349 h 10"/>
    <path d=" M 169 349 h 10"/>
</g>
<g class="sequence">
    <path d=" M 10 383 a 5 5 0 0 1 5 -5 a 5 5 0 0 1 5 5 a 5 5 0 0 1 -5 5 a 5 5 0 0 1 -5 -5 m 10 0 h 5"/>
    <text class="comment" id="TEXT_SPACE" x="75" y="388">
TEXT_SPACE</text>
<g class="string">
    <rect height="22" rx="10" ry="10" width="148" x="125" y="372"/>
    <text x="199" y="388">
\p{White_Space}+</text>
</g>
    <path d=" M 283 383 h 5 a 5 5 0 0 1 5 -5 a 5 5 0 0 1 5 5 a 5 5 0 0 1 -5 5 a 5 5 0 0 1 -5 -5"/>
    <path d=" M 25 383 h 10"/>
    <path d=" M 115 383 h 10"/>
    <path d=" M 273 383 h 10"/>
</g>
<g class="sequence">
    <path d=" M 10 417 a 5 5 0 0 1 5 -5 a 5 5 0 0 1 5 5 a 5 5 0 0 1 -5 5 a 5 5 0 0 1 -5 -5 m 10 0 h 5"/>
    <text class="comment" id="TEXT_WORD" x="71" y="422">
TEXT_WORD</text>
<g class="string">
    <rect height="22" rx="10" ry="10" width="188" x="118" y="406"/>
    <text x="212" y="422">
[^&lt;\p{White_Space}]+</text>
</g>
    <path d=" M 316 417 h 5 a 5 5 0 0 1 5 -5 a 5 5 0 0 1 5 5 a 5 5 0 0 1 -5 5 a 5 5 0 0 1 -5 -5"/>
    <path d=" M 25 417 h 10"/>
    <path d=" M 108 417 h 10"/>
    <path d=" M 306 417 h 10"/>
</g>
<g class="sequence">
    <path d=" M 10 464 a 5 5 0 0 1 5 -5 a 5 5 0 0 1 5 5 a 5 5 0 0 1 -5 5 a 5 5 0 0 1 -5 -5 m 10 0 h 5"/>
    <text class="comment" id="TEMPLATE_L" x="75" y="469">
TEMPLATE_L</text>
<g class="sequence">
<g class="string">
    <rect height="22" rx="10" ry="10" width="36" x="125" y="453"/>
    <text x="143" y="469">
&lt;%</text>
</g>
<g class="optional">
    <path d=" M 171 464 h 24 m -24 0 a 12 12 0 0 0 12 -12 v 0 a 12 12 0 0 1 12 -12 h 116 m -55 0 l -5 -5 m 0 10 l 5 -5 m 55 0 a 12 12 0 0 1 12 12 v 0 a 12 12 0 0 0 12 12 h -24"/>
    <a class="link" xlink:href="#SpaceControl">
<g class="symbol">
    <rect height="22" width="116" x="195" y="453"/>
    <text x="253" y="469">
        SpaceControl
    </text>
</g>
</a>
</g>
    <path d=" M 161 464 h 10"/>
</g>
    <path d=" M 345 464 h 5 a 5 5 0 0 1 5 -5 a 5 5 0 0 1 5 5 a 5 5 0 0 1 -5 5 a 5 5 0 0 1 -5 -5"/>
    <path d=" M 25 464 h 10"/>
    <path d=" M 115 464 h 10"/>
    <path d=" M 335 464 h 10"/>
</g>
<g class="sequence">
    <path d=" M 10 511 a 5 5 0 0 1 5 -5 a 5 5 0 0 1 5 5 a 5 5 0 0 1 -5 5 a 5 5 0 0 1 -5 -5 m 10 0 h 5"/>
    <text class="comment" id="TEMPLATE_R" x="75" y="516">
TEMPLATE_R</text>
<g class="sequence">
<g class="optional">
    <path d=" M 125 511 h 24 m -24 0 a 12 12 0 0 0 12 -12 v 0 a 12 12 0 0 1 12 -12 h 116 m -55 0 l -5 -5 m 0 10 l 5 -5 m 55 0 a 12 12 0 0 1 12 12 v 0 a 12 12 0 0 0 12 12 h -24"/>
    <a class="link" xlink:href="#SpaceControl">
<g class="symbol">
    <rect height="22" width="116" x="149" y="500"/>
    <text x="207" y="516">
        SpaceControl
    </text>
</g>
</a>
</g>
<g class="string">
    <rect height="22" rx="10" ry="10" width="36" x="299" y="500"/>
    <text x="317" y="516">
%&gt;</text>
</g>
    <path d=" M 289 511 h 10"/>
</g>
    <path d=" M 345 511 h 5 a 5 5 0 0 1 5 -5 a 5 5 0 0 1 5 5 a 5 5 0 0 1 -5 5 a 5 5 0 0 1 -5 -5"/>
    <path d=" M 25 511 h 10"/>
    <path d=" M 115 511 h 10"/>
    <path d=" M 335 511 h 10"/>
</g>
<g class="sequence">
    <path d=" M 10 545 a 5 5 0 0 1 5 -5 a 5 5 0 0 1 5 5 a 5 5 0 0 1 -5 5 a 5 5 0 0 1 -5 -5 m 10 0 h 5"/>
    <text class="comment" id="SpaceControl" x="82" y="550">
        SpaceControl
    </text>
<g class="choice">
    <path d=" M 139 545 h 24 m 28 0 h 24"/>
<g class="string">
    <rect height="22" rx="10" ry="10" width="28" x="163" y="534"/>
    <text x="177" y="550">
_</text>
</g>
    <path d=" M 139 545 a 12 12 0 0 1 12 12 v 9 m 52 0 v -9 a 12 12 0 0 1 12 -12"/>
    <path d=" M 151 566 v 33 m 52 0 v -33"/>
    <path d=" M 151 599 v 33 m 52 0 v -33"/>
    <path d=" M 151 566 v 0 a 12 12 0 0 0 12 12 m 28 0 h 0 a 12 12 0 0 0 12 -12 v 0"/>
<g class="string">
    <rect height="22" rx="10" ry="10" width="28" x="163" y="567"/>
    <text x="177" y="583">
-</text>
</g>
    <path d=" M 151 599 v 0 a 12 12 0 0 0 12 12 m 28 0 h 0 a 12 12 0 0 0 12 -12 v 0"/>
<g class="string">
    <rect height="22" rx="10" ry="10" width="28" x="163" y="600"/>
    <text x="177" y="616">
~</text>
</g>
    <path d=" M 151 632 v 0 a 12 12 0 0 0 12 12 m 28 0 h 0 a 12 12 0 0 0 12 -12 v 0"/>
<g class="string">
    <rect height="22" rx="10" ry="10" width="28" x="163" y="633"/>
    <text x="177" y="649">
=</text>
</g>
</g>
    <path d=" M 225 545 h 5 a 5 5 0 0 1 5 -5 a 5 5 0 0 1 5 5 a 5 5 0 0 1 -5 5 a 5 5 0 0 1 -5 -5"/>
    <path d=" M 25 545 h 10"/>
    <path d=" M 129 545 h 10"/>
    <path d=" M 215 545 h 10"/>
</g>
<g class="sequence">
    <path d=" M 10 678 a 5 5 0 0 1 5 -5 a 5 5 0 0 1 5 5 a 5 5 0 0 1 -5 5 a 5 5 0 0 1 -5 -5 m 10 0 h 5"/>
    <text class="comment" id="KW_END" x="61" y="683">
KW_END</text>
<g class="string">
    <rect height="22" rx="10" ry="10" width="44" x="97" y="667"/>
    <text x="119" y="683">
end</text>
</g>
    <path d=" M 151 678 h 5 a 5 5 0 0 1 5 -5 a 5 5 0 0 1 5 5 a 5 5 0 0 1 -5 5 a 5 5 0 0 1 -5 -5"/>
    <path d=" M 25 678 h 10"/>
    <path d=" M 87 678 h 10"/>
    <path d=" M 141 678 h 10"/>
</g>
<g class="sequence">
    <path d=" M 10 712 a 5 5 0 0 1 5 -5 a 5 5 0 0 1 5 5 a 5 5 0 0 1 -5 5 a 5 5 0 0 1 -5 -5 m 10 0 h 5"/>
    <text class="comment" id="TemplateExport" x="89" y="717">
TemplateExport</text>
<g class="sequence">
<a class="link" xlink:href="#TEMPLATE_L">
<g class="symbol">
    <rect height="22" width="100" x="153" y="701"/>
    <text x="203" y="717">
TEMPLATE_L</text>
</g>
</a>
<g class="character">
    <rect height="22" rx="10" ry="10" width="76" x="263" y="701"/>
    <text x="301" y="717">
IGNORED</text>
</g>
<g class="sequence">
<g class="repeat">
    <path d=" M 349 712 h 12 m 100 0 h 12 m -12 0 a 12 12 0 0 1 12 12 v 7 a 12 12 0 0 1 -12 12 m -17 0 h -83 m 44 0 l 5 -5 m 0 10 l -5 -5 m -44 0 a 12 12 0 0 1 -12 -12 v -7 a 12 12 0 0 1 12 -12"/>
    <text class="comment" x="452" y="748">
*</text>
<a class="link" xlink:href="#ExportItem">
<g class="symbol">
    <rect height="22" width="100" x="361" y="701"/>
    <text x="411" y="717">
ExportItem</text>
</g>
</a>
</g>
<g class="character">
    <rect height="22" rx="10" ry="10" width="76" x="483" y="701"/>
    <text x="521" y="717">
IGNORED</text>
</g>
<a class="link" xlink:href="#TEMPLATE_R">
<g class="symbol">
    <rect height="22" width="100" x="569" y="701"/>
    <text x="619" y="717">
TEMPLATE_R</text>
</g>
</a>
    <path d=" M 473 712 h 10"/>
    <path d=" M 559 712 h 10"/>
</g>
    <path d=" M 253 712 h 10"/>
    <path d=" M 339 712 h 10"/>
</g>
    <path d=" M 679 712 h 5 a 5 5 0 0 1 5 -5 a 5 5 0 0 1 5 5 a 5 5 0 0 1 -5 5 a 5 5 0 0 1 -5 -5"/>
    <path d=" M 25 712 h 10"/>
    <path d=" M 143 712 h 10"/>
    <path d=" M 669 712 h 10"/>
</g>
<g class="sequence">
    <path d=" M 10 801 a 5 5 0 0 1 5 -5 a 5 5 0 0 1 5 5 a 5 5 0 0 1 -5 5 a 5 5 0 0 1 -5 -5 m 10 0 h 5"/>
    <text class="comment" id="ExportItem" x="75" y="806">
ExportItem</text>
<g class="sequence">
<a class="link" xlink:href="#KW_EXPORT">
<g class="symbol">
    <rect height="22" width="92" x="125" y="790"/>
    <text x="171" y="806">
KW_EXPORT</text>
</g>
</a>
<g class="character">
    <rect height="22" rx="10" ry="10" width="76" x="227" y="790"/>
    <text x="265" y="806">
IGNORED</text>
</g>
<g class="sequence">
<a class="link" xlink:href="#Identifier">
<g class="symbol">
    <rect height="22" width="100" x="313" y="790"/>
    <text x="363" y="806">
Identifier</text>
</g>
</a>
<g class="character">
    <rect height="22" rx="10" ry="10" width="76" x="423" y="790"/>
    <text x="461" y="806">
IGNORED</text>
</g>
<g class="optional">
    <path d=" M 509 801 h 24 m -24 0 a 12 12 0 0 0 12 -12 v 0 a 12 12 0 0 1 12 -12 h 256 m -125 0 l -5 -5 m 0 10 l 5 -5 m 125 0 a 12 12 0 0 1 12 12 v 0 a 12 12 0 0 0 12 12 h -24"/>
<g class="sequence">
<a class="link" xlink:href="#KW_TO">
<g class="symbol">
    <rect height="22" width="60" x="533" y="790"/>
    <text x="563" y="806">
KW_TO</text>
</g>
</a>
<g class="character">
    <rect height="22" rx="10" ry="10" width="76" x="603" y="790"/>
    <text x="641" y="806">
IGNORED</text>
</g>
<a class="link" xlink:href="#Identifier">
<g class="symbol">
    <rect height="22" width="100" x="689" y="790"/>
    <text x="739" y="806">
Identifier</text>
</g>
</a>
    <path d=" M 593 801 h 10"/>
    <path d=" M 679 801 h 10"/>
</g>
</g>
<g class="character">
    <rect height="22" rx="10" ry="10" width="76" x="823" y="790"/>
    <text x="861" y="806">
IGNORED</text>
</g>
<g class="optional">
    <path d=" M 909 801 h 24 m -24 0 a 12 12 0 0 0 12 -12 v 0 a 12 12 0 0 1 12 -12 h 452 m -223 0 l -5 -5 m 0 10 l 5 -5 m 223 0 a 12 12 0 0 1 12 12 v 0 a 12 12 0 0 0 12 12 h -24"/>
<g class="sequence">
<g class="sequence">
<a class="link" xlink:href="#KW_BY">
<g class="symbol">
    <rect height="22" width="60" x="933" y="790"/>
    <text x="963" y="806">
KW_BY</text>
</g>
</a>
<g class="character">
    <rect height="22" rx="10" ry="10" width="76" x="1003" y="790"/>
    <text x="1041" y="806">
IGNORED</text>
</g>
<a class="link" xlink:href="#KW_CLASS">
<g class="symbol">
    <rect height="22" width="84" x="1089" y="790"/>
    <text x="1131" y="806">
KW_CLASS</text>
</g>
</a>
    <path d=" M 993 801 h 10"/>
    <path d=" M 1079 801 h 10"/>
</g>
<g class="character">
    <rect height="22" rx="10" ry="10" width="76" x="1183" y="790"/>
    <text x="1221" y="806">
IGNORED</text>
</g>
<a class="link" xlink:href="#NamepathFree">
<g class="symbol">
    <rect height="22" width="116" x="1269" y="790"/>
    <text x="1327" y="806">
NamepathFree</text>
</g>
</a>
    <path d=" M 1173 801 h 10"/>
    <path d=" M 1259 801 h 10"/>
</g>
</g>
<g class="character">
    <rect height="22" rx="10" ry="10" width="76" x="1419" y="790"/>
    <text x="1457" y="806">
IGNORED</text>
</g>
<g class="optional">
    <path d=" M 1505 801 h 24 m -24 0 a 12 12 0 0 0 12 -12 v -12 a 12 12 0 0 1 12 -12 h 500 m -247 0 l -5 -5 m 0 10 l 5 -5 m 247 0 a 12 12 0 0 1 12 12 v 12 a 12 12 0 0 0 12 12 h -24"/>
<g class="sequence">
<g class="sequence">
<a class="link" xlink:href="#KW_BY">
<g class="symbol">
    <rect height="22" width="60" x="1529" y="790"/>
    <text x="1559" y="806">
KW_BY</text>
</g>
</a>
<g class="character">
    <rect height="22" rx="10" ry="10" width="76" x="1599" y="790"/>
    <text x="1637" y="806">
IGNORED</text>
</g>
<a class="link" xlink:href="#KW_TRAIT">
<g class="symbol">
    <rect height="22" width="84" x="1685" y="790"/>
    <text x="1727" y="806">
KW_TRAIT</text>
</g>
</a>
    <path d=" M 1589 801 h 10"/>
    <path d=" M 1675 801 h 10"/>
</g>
<g class="character">
    <rect height="22" rx="10" ry="10" width="76" x="1779" y="790"/>
    <text x="1817" y="806">
IGNORED</text>
</g>
<g class="optional">
    <path d=" M 1865 801 h 24 m -24 0 a 12 12 0 0 0 12 -12 v 0 a 12 12 0 0 1 12 -12 h 116 m -55 0 l -5 -5 m 0 10 l 5 -5 m 55 0 a 12 12 0 0 1 12 12 v 0 a 12 12 0 0 0 12 12 h -24"/>
<a class="link" xlink:href="#NamepathFree">
<g class="symbol">
    <rect height="22" width="116" x="1889" y="790"/>
    <text x="1947" y="806">
NamepathFree</text>
</g>
</a>
</g>
    <path d=" M 1769 801 h 10"/>
    <path d=" M 1855 801 h 10"/>
</g>
</g>
    <path d=" M 413 801 h 10"/>
    <path d=" M 499 801 h 10"/>
    <path d=" M 813 801 h 10"/>
    <path d=" M 899 801 h 10"/>
    <path d=" M 1409 801 h 10"/>
    <path d=" M 1495 801 h 10"/>
</g>
    <path d=" M 217 801 h 10"/>
    <path d=" M 303 801 h 10"/>
</g>
    <path d=" M 2063 801 h 5 a 5 5 0 0 1 5 -5 a 5 5 0 0 1 5 5 a 5 5 0 0 1 -5 5 a 5 5 0 0 1 -5 -5"/>
    <path d=" M 25 801 h 10"/>
    <path d=" M 115 801 h 10"/>
    <path d=" M 2053 801 h 10"/>
</g>
<g class="sequence">
    <path d=" M 10 835 a 5 5 0 0 1 5 -5 a 5 5 0 0 1 5 5 a 5 5 0 0 1 -5 5 a 5 5 0 0 1 -5 -5 m 10 0 h 5"/>
    <text class="comment" id="KW_EXPORT" x="71" y="840">
KW_EXPORT</text>
<g class="string">
    <rect height="22" rx="10" ry="10" width="68" x="118" y="824"/>
    <text x="152" y="840">
export</text>
</g>
    <path d=" M 196 835 h 5 a 5 5 0 0 1 5 -5 a 5 5 0 0 1 5 5 a 5 5 0 0 1 -5 5 a 5 5 0 0 1 -5 -5"/>
    <path d=" M 25 835 h 10"/>
    <path d=" M 108 835 h 10"/>
    <path d=" M 186 835 h 10"/>
</g>
<g class="sequence">
    <path d=" M 10 869 a 5 5 0 0 1 5 -5 a 5 5 0 0 1 5 5 a 5 5 0 0 1 -5 5 a 5 5 0 0 1 -5 -5 m 10 0 h 5"/>
    <text class="comment" id="KW_CLASS" x="68" y="874">
KW_CLASS</text>
<g class="string">
    <rect height="22" rx="10" ry="10" width="60" x="111" y="858"/>
    <text x="141" y="874">
class</text>
</g>
    <path d=" M 181 869 h 5 a 5 5 0 0 1 5 -5 a 5 5 0 0 1 5 5 a 5 5 0 0 1 -5 5 a 5 5 0 0 1 -5 -5"/>
    <path d=" M 25 869 h 10"/>
    <path d=" M 101 869 h 10"/>
    <path d=" M 171 869 h 10"/>
</g>
<g class="sequence">
    <path d=" M 10 903 a 5 5 0 0 1 5 -5 a 5 5 0 0 1 5 5 a 5 5 0 0 1 -5 5 a 5 5 0 0 1 -5 -5 m 10 0 h 5"/>
    <text class="comment" id="KW_TRAIT" x="68" y="908">
KW_TRAIT</text>
<g class="string">
    <rect height="22" rx="10" ry="10" width="60" x="111" y="892"/>
    <text x="141" y="908">
trait</text>
</g>
    <path d=" M 181 903 h 5 a 5 5 0 0 1 5 -5 a 5 5 0 0 1 5 5 a 5 5 0 0 1 -5 5 a 5 5 0 0 1 -5 -5"/>
    <path d=" M 25 903 h 10"/>
    <path d=" M 101 903 h 10"/>
    <path d=" M 171 903 h 10"/>
</g>
<g class="sequence">
    <path d=" M 10 937 a 5 5 0 0 1 5 -5 a 5 5 0 0 1 5 5 a 5 5 0 0 1 -5 5 a 5 5 0 0 1 -5 -5 m 10 0 h 5"/>
    <text class="comment" id="KW_TO" x="57" y="942">
KW_TO</text>
<g class="string">
    <rect height="22" rx="10" ry="10" width="36" x="90" y="926"/>
    <text x="108" y="942">
to</text>
</g>
    <path d=" M 136 937 h 5 a 5 5 0 0 1 5 -5 a 5 5 0 0 1 5 5 a 5 5 0 0 1 -5 5 a 5 5 0 0 1 -5 -5"/>
    <path d=" M 25 937 h 10"/>
    <path d=" M 80 937 h 10"/>
    <path d=" M 126 937 h 10"/>
</g>
<g class="sequence">
    <path d=" M 10 971 a 5 5 0 0 1 5 -5 a 5 5 0 0 1 5 5 a 5 5 0 0 1 -5 5 a 5 5 0 0 1 -5 -5 m 10 0 h 5"/>
    <text class="comment" id="KW_BY" x="57" y="976">
KW_BY</text>
<g class="string">
    <rect height="22" rx="10" ry="10" width="36" x="90" y="960"/>
    <text x="108" y="976">
by</text>
</g>
    <path d=" M 136 971 h 5 a 5 5 0 0 1 5 -5 a 5 5 0 0 1 5 5 a 5 5 0 0 1 -5 5 a 5 5 0 0 1 -5 -5"/>
    <path d=" M 25 971 h 10"/>
    <path d=" M 80 971 h 10"/>
    <path d=" M 126 971 h 10"/>
</g>
<g class="sequence">
    <path d=" M 10 1018 a 5 5 0 0 1 5 -5 a 5 5 0 0 1 5 5 a 5 5 0 0 1 -5 5 a 5 5 0 0 1 -5 -5 m 10 0 h 5"/>
    <text class="comment" id="TemplateIf" x="75" y="1023">
TemplateIf</text>
<g class="sequence">
<a class="link" xlink:href="#IfBegin">
<g class="symbol">
    <rect height="22" width="76" x="125" y="1007"/>
    <text x="163" y="1023">
IfBegin</text>
</g>
</a>
<g class="repeat">
    <path d=" M 211 1018 h 12 m 84 0 h 12 m -12 0 a 12 12 0 0 1 12 12 v 7 a 12 12 0 0 1 -12 12 m -17 0 h -67 m 36 0 l 5 -5 m 0 10 l -5 -5 m -36 0 a 12 12 0 0 1 -12 -12 v -7 a 12 12 0 0 1 12 -12"/>
    <text class="comment" x="298" y="1054">
*</text>
<a class="link" xlink:href="#IfElseIf">
<g class="symbol">
    <rect height="22" width="84" x="223" y="1007"/>
    <text x="265" y="1023">
IfElseIf</text>
</g>
</a>
</g>
<g class="optional">
    <path d=" M 329 1018 h 24 m -24 0 a 12 12 0 0 0 12 -12 v 0 a 12 12 0 0 1 12 -12 h 68 m -31 0 l -5 -5 m 0 10 l 5 -5 m 31 0 a 12 12 0 0 1 12 12 v 0 a 12 12 0 0 0 12 12 h -24"/>
<a class="link" xlink:href="#IfElse">
<g class="symbol">
    <rect height="22" width="68" x="353" y="1007"/>
    <text x="387" y="1023">
IfElse</text>
</g>
</a>
</g>
<a class="link" xlink:href="#IfEnd">
<g class="symbol">
    <rect height="22" width="60" x="455" y="1007"/>
    <text x="485" y="1023">
IfEnd</text>
</g>
</a>
    <path d=" M 201 1018 h 10"/>
    <path d=" M 319 1018 h 10"/>
    <path d=" M 445 1018 h 10"/>
</g>
    <path d=" M 525 1018 h 5 a 5 5 0 0 1 5 -5 a 5 5 0 0 1 5 5 a 5 5 0 0 1 -5 5 a 5 5 0 0 1 -5 -5"/>
    <path d=" M 25 1018 h 10"/>
    <path d=" M 115 1018 h 10"/>
    <path d=" M 515 1018 h 10"/>
</g>
<g class="sequence">
    <path d=" M 10 1082 a 5 5 0 0 1 5 -5 a 5 5 0 0 1 5 5 a 5 5 0 0 1 -5 5 a 5 5 0 0 1 -5 -5 m 10 0 h 5"/>
    <text class="comment" id="IfBegin" x="64" y="1087">
IfBegin</text>
<g class="sequence">
<g class="sequence">
<a class="link" xlink:href="#TEMPLATE_L">
<g class="symbol">
    <rect height="22" width="100" x="104" y="1071"/>
    <text x="154" y="1087">
TEMPLATE_L</text>
</g>
</a>
<g class="character">
    <rect height="22" rx="10" ry="10" width="76" x="214" y="1071"/>
    <text x="252" y="1087">
IGNORED</text>
</g>
<a class="link" xlink:href="#KW_IF">
<g class="symbol">
    <rect height="22" width="60" x="300" y="1071"/>
    <text x="330" y="1087">
KW_IF</text>
</g>
</a>
    <path d=" M 204 1082 h 10"/>
    <path d=" M 290 1082 h 10"/>
</g>
<g class="character">
    <rect height="22" rx="10" ry="10" width="76" x="370" y="1071"/>
    <text x="408" y="1087">
IGNORED</text>
</g>
<g class="sequence">
<g class="sequence">
<a class="link" xlink:href="#Atomic">
<g class="symbol">
    <rect height="22" width="68" x="456" y="1071"/>
    <text x="490" y="1087">
Atomic</text>
</g>
</a>
<g class="character">
    <rect height="22" rx="10" ry="10" width="76" x="534" y="1071"/>
    <text x="572" y="1087">
IGNORED</text>
</g>
<a class="link" xlink:href="#TEMPLATE_R">
<g class="symbol">
    <rect height="22" width="100" x="620" y="1071"/>
    <text x="670" y="1087">
TEMPLATE_R</text>
</g>
</a>
    <path d=" M 524 1082 h 10"/>
    <path d=" M 610 1082 h 10"/>
</g>
<g class="repeat">
    <path d=" M 730 1082 h 12 m 116 0 h 12 m -12 0 a 12 12 0 0 1 12 12 v 7 a 12 12 0 0 1 -12 12 m -17 0 h -99 m 52 0 l 5 -5 m 0 10 l -5 -5 m -52 0 a 12 12 0 0 1 -12 -12 v -7 a 12 12 0 0 1 12 -12"/>
    <text class="comment" x="849" y="1118">
*</text>
<a class="link" xlink:href="#TextElements">
<g class="symbol">
    <rect height="22" width="116" x="742" y="1071"/>
    <text x="800" y="1087">
TextElements</text>
</g>
</a>
</g>
    <path d=" M 720 1082 h 10"/>
</g>
    <path d=" M 360 1082 h 10"/>
    <path d=" M 446 1082 h 10"/>
</g>
    <path d=" M 880 1082 h 5 a 5 5 0 0 1 5 -5 a 5 5 0 0 1 5 5 a 5 5 0 0 1 -5 5 a 5 5 0 0 1 -5 -5"/>
    <path d=" M 25 1082 h 10"/>
    <path d=" M 94 1082 h 10"/>
    <path d=" M 870 1082 h 10"/>
</g>
<g class="sequence">
    <path d=" M 10 1146 a 5 5 0 0 1 5 -5 a 5 5 0 0 1 5 5 a 5 5 0 0 1 -5 5 a 5 5 0 0 1 -5 -5 m 10 0 h 5"/>
    <text class="comment" id="IfElse" x="61" y="1151">
IfElse</text>
<g class="sequence">
<g class="sequence">
<a class="link" xlink:href="#TEMPLATE_L">
<g class="symbol">
    <rect height="22" width="100" x="97" y="1135"/>
    <text x="147" y="1151">
TEMPLATE_L</text>
</g>
</a>
<g class="character">
    <rect height="22" rx="10" ry="10" width="76" x="207" y="1135"/>
    <text x="245" y="1151">
IGNORED</text>
</g>
<a class="link" xlink:href="#KW_ELSE">
<g class="symbol">
    <rect height="22" width="76" x="293" y="1135"/>
    <text x="331" y="1151">
KW_ELSE</text>
</g>
</a>
<g class="character">
    <rect height="22" rx="10" ry="10" width="76" x="379" y="1135"/>
    <text x="417" y="1151">
IGNORED</text>
</g>
<a class="link" xlink:href="#TEMPLATE_R">
<g class="symbol">
    <rect height="22" width="100" x="465" y="1135"/>
    <text x="515" y="1151">
TEMPLATE_R</text>
</g>
</a>
    <path d=" M 197 1146 h 10"/>
    <path d=" M 283 1146 h 10"/>
    <path d=" M 369 1146 h 10"/>
    <path d=" M 455 1146 h 10"/>
</g>
<g class="repeat">
    <path d=" M 575 1146 h 12 m 116 0 h 12 m -12 0 a 12 12 0 0 1 12 12 v 7 a 12 12 0 0 1 -12 12 m -17 0 h -99 m 52 0 l 5 -5 m 0 10 l -5 -5 m -52 0 a 12 12 0 0 1 -12 -12 v -7 a 12 12 0 0 1 12 -12"/>
    <text class="comment" x="694" y="1182">
*</text>
<a class="link" xlink:href="#TextElements">
<g class="symbol">
    <rect height="22" width="116" x="587" y="1135"/>
    <text x="645" y="1151">
TextElements</text>
</g>
</a>
</g>
    <path d=" M 565 1146 h 10"/>
</g>
    <path d=" M 725 1146 h 5 a 5 5 0 0 1 5 -5 a 5 5 0 0 1 5 5 a 5 5 0 0 1 -5 5 a 5 5 0 0 1 -5 -5"/>
    <path d=" M 25 1146 h 10"/>
    <path d=" M 87 1146 h 10"/>
    <path d=" M 715 1146 h 10"/>
</g>
<g class="sequence">
    <path d=" M 10 1210 a 5 5 0 0 1 5 -5 a 5 5 0 0 1 5 5 a 5 5 0 0 1 -5 5 a 5 5 0 0 1 -5 -5 m 10 0 h 5"/>
    <text class="comment" id="IfElseIf" x="68" y="1215">
IfElseIf</text>
<g class="sequence">
<g class="sequence">
<a class="link" xlink:href="#TEMPLATE_L">
<g class="symbol">
    <rect height="22" width="100" x="111" y="1199"/>
    <text x="161" y="1215">
TEMPLATE_L</text>
</g>
</a>
<g class="character">
    <rect height="22" rx="10" ry="10" width="76" x="221" y="1199"/>
    <text x="259" y="1215">
IGNORED</text>
</g>
<a class="link" xlink:href="#KW_ELSE">
<g class="symbol">
    <rect height="22" width="76" x="307" y="1199"/>
    <text x="345" y="1215">
KW_ELSE</text>
</g>
</a>
<g class="character">
    <rect height="22" rx="10" ry="10" width="76" x="393" y="1199"/>
    <text x="431" y="1215">
IGNORED</text>
</g>
<a class="link" xlink:href="#KW_IF">
<g class="symbol">
    <rect height="22" width="60" x="479" y="1199"/>
    <text x="509" y="1215">
KW_IF</text>
</g>
</a>
<g class="character">
    <rect height="22" rx="10" ry="10" width="76" x="549" y="1199"/>
    <text x="587" y="1215">
IGNORED</text>
</g>
<a class="link" xlink:href="#TEMPLATE_R">
<g class="symbol">
    <rect height="22" width="100" x="635" y="1199"/>
    <text x="685" y="1215">
TEMPLATE_R</text>
</g>
</a>
    <path d=" M 211 1210 h 10"/>
    <path d=" M 297 1210 h 10"/>
    <path d=" M 383 1210 h 10"/>
    <path d=" M 469 1210 h 10"/>
    <path d=" M 539 1210 h 10"/>
    <path d=" M 625 1210 h 10"/>
</g>
<g class="repeat">
    <path d=" M 745 1210 h 12 m 116 0 h 12 m -12 0 a 12 12 0 0 1 12 12 v 7 a 12 12 0 0 1 -12 12 m -17 0 h -99 m 52 0 l 5 -5 m 0 10 l -5 -5 m -52 0 a 12 12 0 0 1 -12 -12 v -7 a 12 12 0 0 1 12 -12"/>
    <text class="comment" x="864" y="1246">
*</text>
<a class="link" xlink:href="#TextElements">
<g class="symbol">
    <rect height="22" width="116" x="757" y="1199"/>
    <text x="815" y="1215">
TextElements</text>
</g>
</a>
</g>
    <path d=" M 735 1210 h 10"/>
</g>
    <path d=" M 895 1210 h 5 a 5 5 0 0 1 5 -5 a 5 5 0 0 1 5 5 a 5 5 0 0 1 -5 5 a 5 5 0 0 1 -5 -5"/>
    <path d=" M 25 1210 h 10"/>
    <path d=" M 101 1210 h 10"/>
    <path d=" M 885 1210 h 10"/>
</g>
<g class="sequence">
    <path d=" M 10 1287 a 5 5 0 0 1 5 -5 a 5 5 0 0 1 5 5 a 5 5 0 0 1 -5 5 a 5 5 0 0 1 -5 -5 m 10 0 h 5"/>
    <text class="comment" id="IfEnd" x="57" y="1292">
IfEnd</text>
<g class="sequence">
<a class="link" xlink:href="#TEMPLATE_L">
<g class="symbol">
    <rect height="22" width="100" x="90" y="1276"/>
    <text x="140" y="1292">
TEMPLATE_L</text>
</g>
</a>
<g class="character">
    <rect height="22" rx="10" ry="10" width="76" x="200" y="1276"/>
    <text x="238" y="1292">
IGNORED</text>
</g>
<a class="link" xlink:href="#KW_END">
<g class="symbol">
    <rect height="22" width="68" x="286" y="1276"/>
    <text x="320" y="1292">
KW_END</text>
</g>
</a>
<g class="character">
    <rect height="22" rx="10" ry="10" width="76" x="364" y="1276"/>
    <text x="402" y="1292">
IGNORED</text>
</g>
<g class="optional">
    <path d=" M 450 1287 h 24 m -24 0 a 12 12 0 0 0 12 -12 v 0 a 12 12 0 0 1 12 -12 h 60 m -27 0 l -5 -5 m 0 10 l 5 -5 m 27 0 a 12 12 0 0 1 12 12 v 0 a 12 12 0 0 0 12 12 h -24"/>
<a class="link" xlink:href="#KW_IF">
<g class="symbol">
    <rect height="22" width="60" x="474" y="1276"/>
    <text x="504" y="1292">
KW_IF</text>
</g>
</a>
</g>
<g class="character">
    <rect height="22" rx="10" ry="10" width="76" x="568" y="1276"/>
    <text x="606" y="1292">
IGNORED</text>
</g>
<a class="link" xlink:href="#TEMPLATE_R">
<g class="symbol">
    <rect height="22" width="100" x="654" y="1276"/>
    <text x="704" y="1292">
TEMPLATE_R</text>
</g>
</a>
    <path d=" M 190 1287 h 10"/>
    <path d=" M 276 1287 h 10"/>
    <path d=" M 354 1287 h 10"/>
    <path d=" M 440 1287 h 10"/>
    <path d=" M 558 1287 h 10"/>
    <path d=" M 644 1287 h 10"/>
</g>
    <path d=" M 764 1287 h 5 a 5 5 0 0 1 5 -5 a 5 5 0 0 1 5 5 a 5 5 0 0 1 -5 5 a 5 5 0 0 1 -5 -5"/>
    <path d=" M 25 1287 h 10"/>
    <path d=" M 80 1287 h 10"/>
    <path d=" M 754 1287 h 10"/>
</g>
<g class="sequence">
    <path d=" M 10 1321 a 5 5 0 0 1 5 -5 a 5 5 0 0 1 5 5 a 5 5 0 0 1 -5 5 a 5 5 0 0 1 -5 -5 m 10 0 h 5"/>
    <text class="comment" id="KW_IF" x="57" y="1326">
KW_IF</text>
<g class="string">
    <rect height="22" rx="10" ry="10" width="36" x="90" y="1310"/>
    <text x="108" y="1326">
if</text>
</g>
    <path d=" M 136 1321 h 5 a 5 5 0 0 1 5 -5 a 5 5 0 0 1 5 5 a 5 5 0 0 1 -5 5 a 5 5 0 0 1 -5 -5"/>
    <path d=" M 25 1321 h 10"/>
    <path d=" M 80 1321 h 10"/>
    <path d=" M 126 1321 h 10"/>
</g>
<g class="sequence">
    <path d=" M 10 1355 a 5 5 0 0 1 5 -5 a 5 5 0 0 1 5 5 a 5 5 0 0 1 -5 5 a 5 5 0 0 1 -5 -5 m 10 0 h 5"/>
    <text class="comment" id="KW_ELSE" x="64" y="1360">
KW_ELSE</text>
<g class="string">
    <rect height="22" rx="10" ry="10" width="52" x="104" y="1344"/>
    <text x="130" y="1360">
else</text>
</g>
    <path d=" M 166 1355 h 5 a 5 5 0 0 1 5 -5 a 5 5 0 0 1 5 5 a 5 5 0 0 1 -5 5 a 5 5 0 0 1 -5 -5"/>
    <path d=" M 25 1355 h 10"/>
    <path d=" M 94 1355 h 10"/>
    <path d=" M 156 1355 h 10"/>
</g>
<g class="sequence">
    <path d=" M 10 1389 a 5 5 0 0 1 5 -5 a 5 5 0 0 1 5 5 a 5 5 0 0 1 -5 5 a 5 5 0 0 1 -5 -5 m 10 0 h 5"/>
    <text class="comment" id="Atomic" x="61" y="1394">
Atomic</text>
<g class="choice">
    <path d=" M 97 1389 h 24 m 76 0 h 48"/>
<a class="link" xlink:href="#Boolean">
<g class="symbol">
    <rect height="22" width="76" x="121" y="1378"/>
    <text x="159" y="1394">
Boolean</text>
</g>
</a>
    <path d=" M 97 1389 a 12 12 0 0 1 12 12 v 9 m 124 0 v -9 a 12 12 0 0 1 12 -12"/>
    <path d=" M 109 1410 v 33 m 124 0 v -33"/>
    <path d=" M 109 1410 v 0 a 12 12 0 0 0 12 12 m 100 0 h 0 a 12 12 0 0 0 12 -12 v 0"/>
<a class="link" xlink:href="#Identifier">
<g class="symbol">
    <rect height="22" width="100" x="121" y="1411"/>
    <text x="171" y="1427">
Identifier</text>
</g>
</a>
    <path d=" M 109 1443 v 0 a 12 12 0 0 0 12 12 m 68 0 h 32 a 12 12 0 0 0 12 -12 v 0"/>
<a class="link" xlink:href="#Number">
<g class="symbol">
    <rect height="22" width="68" x="121" y="1444"/>
    <text x="155" y="1460">
Number</text>
</g>
</a>
</g>
    <path d=" M 255 1389 h 5 a 5 5 0 0 1 5 -5 a 5 5 0 0 1 5 5 a 5 5 0 0 1 -5 5 a 5 5 0 0 1 -5 -5"/>
    <path d=" M 25 1389 h 10"/>
    <path d=" M 87 1389 h 10"/>
    <path d=" M 245 1389 h 10"/>
</g>
<g class="sequence">
    <path d=" M 10 1489 a 5 5 0 0 1 5 -5 a 5 5 0 0 1 5 5 a 5 5 0 0 1 -5 5 a 5 5 0 0 1 -5 -5 m 10 0 h 5"/>
    <text class="comment" id="String" x="61" y="1494">
String</text>
<g class="choice">
    <path d=" M 97 1489 h 24 m 152 0 h 24"/>
<g class="sequence">
<g class="string">
    <rect height="22" rx="10" ry="10" width="28" x="121" y="1478"/>
    <text x="135" y="1494">
&quot;</text>
</g>
<g class="character">
    <rect height="22" rx="10" ry="10" width="76" x="159" y="1478"/>
    <text x="197" y="1494">
IGNORED</text>
</g>
<g class="string">
    <rect height="22" rx="10" ry="10" width="28" x="245" y="1478"/>
    <text x="259" y="1494">
&quot;</text>
</g>
    <path d=" M 149 1489 h 10"/>
    <path d=" M 235 1489 h 10"/>
</g>
    <path d=" M 97 1489 a 12 12 0 0 1 12 12 v 9 m 176 0 v -9 a 12 12 0 0 1 12 -12"/>
    <path d=" M 109 1510 v 0 a 12 12 0 0 0 12 12 m 152 0 h 0 a 12 12 0 0 0 12 -12 v 0"/>
<g class="sequence">
<g class="string">
    <rect height="22" rx="10" ry="10" width="28" x="121" y="1511"/>
    <text x="135" y="1527">
&#x27;</text>
</g>
<g class="character">
    <rect height="22" rx="10" ry="10" width="76" x="159" y="1511"/>
    <text x="197" y="1527">
IGNORED</text>
</g>
<g class="string">
    <rect height="22" rx="10" ry="10" width="28" x="245" y="1511"/>
    <text x="259" y="1527">
&#x27;</text>
</g>
    <path d=" M 149 1522 h 10"/>
    <path d=" M 235 1522 h 10"/>
</g>
</g>
    <path d=" M 307 1489 h 5 a 5 5 0 0 1 5 -5 a 5 5 0 0 1 5 5 a 5 5 0 0 1 -5 5 a 5 5 0 0 1 -5 -5"/>
    <path d=" M 25 1489 h 10"/>
    <path d=" M 87 1489 h 10"/>
    <path d=" M 297 1489 h 10"/>
</g>
<g class="sequence">
    <path d=" M 10 1556 a 5 5 0 0 1 5 -5 a 5 5 0 0 1 5 5 a 5 5 0 0 1 -5 5 a 5 5 0 0 1 -5 -5 m 10 0 h 5"/>
    <text class="comment" id="Number" x="61" y="1561">
Number</text>
<g class="string">
    <rect height="22" rx="10" ry="10" width="116" x="97" y="1545"/>
    <text x="155" y="1561">
0|[1-9][0-9]</text>
</g>
    <path d=" M 223 1556 h 5 a 5 5 0 0 1 5 -5 a 5 5 0 0 1 5 5 a 5 5 0 0 1 -5 5 a 5 5 0 0 1 -5 -5"/>
    <path d=" M 25 1556 h 10"/>
    <path d=" M 87 1556 h 10"/>
    <path d=" M 213 1556 h 10"/>
</g>
<g class="sequence">
    <path d=" M 10 1590 a 5 5 0 0 1 5 -5 a 5 5 0 0 1 5 5 a 5 5 0 0 1 -5 5 a 5 5 0 0 1 -5 -5 m 10 0 h 5"/>
    <text class="comment" id="NamepathFree" x="82" y="1595">
NamepathFree</text>
<g class="sequence">
<a class="link" xlink:href="#Identifier">
<g class="symbol">
    <rect height="22" width="100" x="139" y="1579"/>
    <text x="189" y="1595">
Identifier</text>
</g>
</a>
<g class="character">
    <rect height="22" rx="10" ry="10" width="76" x="249" y="1579"/>
    <text x="287" y="1595">
IGNORED</text>
</g>
<g class="repeat">
    <path d=" M 335 1590 h 12 m 280 0 h 12 m -12 0 a 12 12 0 0 1 12 12 v 40 a 12 12 0 0 1 -12 12 m -17 0 h -263 m 134 0 l 5 -5 m 0 10 l -5 -5 m -134 0 a 12 12 0 0 1 -12 -12 v -40 a 12 12 0 0 1 12 -12"/>
    <text class="comment" x="618" y="1659">
*</text>
<g class="sequence">
<g class="choice">
    <path d=" M 347 1590 h 24 m 28 0 h 32"/>
<g class="string">
    <rect height="22" rx="10" ry="10" width="28" x="371" y="1579"/>
    <text x="385" y="1595">
.</text>
</g>
    <path d=" M 347 1590 a 12 12 0 0 1 12 12 v 9 m 60 0 v -9 a 12 12 0 0 1 12 -12"/>
    <path d=" M 359 1611 v 0 a 12 12 0 0 0 12 12 m 36 0 h 0 a 12 12 0 0 0 12 -12 v 0"/>
<g class="string">
    <rect height="22" rx="10" ry="10" width="36" x="371" y="1612"/>
    <text x="389" y="1628">
::</text>
</g>
</g>
<g class="character">
    <rect height="22" rx="10" ry="10" width="76" x="441" y="1579"/>
    <text x="479" y="1595">
IGNORED</text>
</g>
<a class="link" xlink:href="#Identifier">
<g class="symbol">
    <rect height="22" width="100" x="527" y="1579"/>
    <text x="577" y="1595">
Identifier</text>
</g>
</a>
    <path d=" M 431 1590 h 10"/>
    <path d=" M 517 1590 h 10"/>
</g>
</g>
    <path d=" M 239 1590 h 10"/>
    <path d=" M 325 1590 h 10"/>
</g>
    <path d=" M 649 1590 h 5 a 5 5 0 0 1 5 -5 a 5 5 0 0 1 5 5 a 5 5 0 0 1 -5 5 a 5 5 0 0 1 -5 -5"/>
    <path d=" M 25 1590 h 10"/>
    <path d=" M 129 1590 h 10"/>
    <path d=" M 639 1590 h 10"/>
</g>
<g class="sequence">
    <path d=" M 10 1687 a 5 5 0 0 1 5 -5 a 5 5 0 0 1 5 5 a 5 5 0 0 1 -5 5 a 5 5 0 0 1 -5 -5 m 10 0 h 5"/>
    <text class="comment" id="Namepath" x="68" y="1692">
Namepath</text>
<g class="sequence">
<a class="link" xlink:href="#Identifier">
<g class="symbol">
    <rect height="22" width="100" x="111" y="1676"/>
    <text x="161" y="1692">
Identifier</text>
</g>
</a>
<g class="character">
    <rect height="22" rx="10" ry="10" width="76" x="221" y="1676"/>
    <text x="259" y="1692">
IGNORED</text>
</g>
<g class="repeat">
    <path d=" M 307 1687 h 12 m 232 0 h 12 m -12 0 a 12 12 0 0 1 12 12 v 7 a 12 12 0 0 1 -12 12 m -17 0 h -215 m 110 0 l 5 -5 m 0 10 l -5 -5 m -110 0 a 12 12 0 0 1 -12 -12 v -7 a 12 12 0 0 1 12 -12"/>
    <text class="comment" x="542" y="1723">
*</text>
<g class="sequence">
<g class="string">
    <rect height="22" rx="10" ry="10" width="36" x="319" y="1676"/>
    <text x="337" y="1692">
::</text>
</g>
<g class="character">
    <rect height="22" rx="10" ry="10" width="76" x="365" y="1676"/>
    <text x="403" y="1692">
IGNORED</text>
</g>
<a class="link" xlink:href="#Identifier">
<g class="symbol">
    <rect height="22" width="100" x="451" y="1676"/>
    <text x="501" y="1692">
Identifier</text>
</g>
</a>
    <path d=" M 355 1687 h 10"/>
    <path d=" M 441 1687 h 10"/>
</g>
</g>
    <path d=" M 211 1687 h 10"/>
    <path d=" M 297 1687 h 10"/>
</g>
    <path d=" M 573 1687 h 5 a 5 5 0 0 1 5 -5 a 5 5 0 0 1 5 5 a 5 5 0 0 1 -5 5 a 5 5 0 0 1 -5 -5"/>
    <path d=" M 25 1687 h 10"/>
    <path d=" M 101 1687 h 10"/>
    <path d=" M 563 1687 h 10"/>
</g>
<g class="sequence">
    <path d=" M 10 1751 a 5 5 0 0 1 5 -5 a 5 5 0 0 1 5 5 a 5 5 0 0 1 -5 5 a 5 5 0 0 1 -5 -5 m 10 0 h 5"/>
    <text class="comment" id="Identifier" x="75" y="1756">
Identifier</text>
<g class="string">
    <rect height="22" rx="10" ry="10" width="292" x="125" y="1740"/>
    <text x="271" y="1756">
[_\p{XID_start}]\p{XID_continue}*</text>
</g>
    <path d=" M 427 1751 h 5 a 5 5 0 0 1 5 -5 a 5 5 0 0 1 5 5 a 5 5 0 0 1 -5 5 a 5 5 0 0 1 -5 -5"/>
    <path d=" M 25 1751 h 10"/>
    <path d=" M 115 1751 h 10"/>
    <path d=" M 417 1751 h 10"/>
</g>
<g class="sequence">
    <path d=" M 10 1785 a 5 5 0 0 1 5 -5 a 5 5 0 0 1 5 5 a 5 5 0 0 1 -5 5 a 5 5 0 0 1 -5 -5 m 10 0 h 5"/>
    <text class="comment" id="Boolean" x="64" y="1790">
Boolean</text>
<g class="choice">
    <path d=" M 104 1785 h 24 m 52 0 h 32"/>
<g class="string">
    <rect height="22" rx="10" ry="10" width="52" x="128" y="1774"/>
    <text x="154" y="1790">
true</text>
</g>
    <path d=" M 104 1785 a 12 12 0 0 1 12 12 v 9 m 84 0 v -9 a 12 12 0 0 1 12 -12"/>
    <path d=" M 116 1806 v 0 a 12 12 0 0 0 12 12 m 60 0 h 0 a 12 12 0 0 0 12 -12 v 0"/>
<g class="string">
    <rect height="22" rx="10" ry="10" width="60" x="128" y="1807"/>
    <text x="158" y="1823">
false</text>
</g>
</g>
    <path d=" M 222 1785 h 5 a 5 5 0 0 1 5 -5 a 5 5 0 0 1 5 5 a 5 5 0 0 1 -5 5 a 5 5 0 0 1 -5 -5"/>
    <path d=" M 25 1785 h 10"/>
    <path d=" M 94 1785 h 10"/>
    <path d=" M 212 1785 h 10"/>
</g>
<g class="sequence">
    <path d=" M 10 1852 a 5 5 0 0 1 5 -5 a 5 5 0 0 1 5 5 a 5 5 0 0 1 -5 5 a 5 5 0 0 1 -5 -5 m 10 0 h 5"/>
    <text class="comment" id="WhiteSpace" x="75" y="1857">
WhiteSpace</text>
<g class="string">
    <rect height="22" rx="10" ry="10" width="148" x="125" y="1841"/>
    <text x="199" y="1857">
\p{White_Space}+</text>
</g>
    <path d=" M 283 1852 h 5 a 5 5 0 0 1 5 -5 a 5 5 0 0 1 5 5 a 5 5 0 0 1 -5 5 a 5 5 0 0 1 -5 -5"/>
    <path d=" M 25 1852 h 10"/>
    <path d=" M 115 1852 h 10"/>
    <path d=" M 273 1852 h 10"/>
</g>
</g>
</svg>
