<svg class="railroad" viewBox="0 0 789 829" xmlns="http://www.w3.org/2000/svg" xmlns:xlink="http://www.w3.org/1999/xlink">
<style type="text/css">
svg.railroad {
    background-color: hsl(30, 20%, 95%);
    background-size: 15px 15px;
    background-image: linear-gradient(to right, rgba(30, 30, 30, .05) 1px, transparent 1px),
    linear-gradient(to bottom, rgba(30, 30, 30, .05) 1px, transparent 1px);
}

svg.railroad path {
    stroke-width: 3px;
    stroke: black;
    fill: transparent;
}

svg.railroad .debug {
    stroke-width: 1px;
    stroke: red;
}

svg.railroad text {
    font-size: 14px;
    font-family: monospace;
    text-anchor: middle;
}

svg.railroad .nonterminal text {
    font-weight: bold;
}

svg.railroad text.comment {
    font-family: serif;
    font-style: italic;
    font-size: 12px;
}

svg.railroad rect {
    stroke-width: 3px;
    stroke: black;
}

svg.railroad g.labeledbox > rect {
    stroke-width: 1px;
    stroke: grey;
    stroke-dasharray: 5px;
    fill: rgba(90, 90, 150, .1);
}

svg.railroad .symbol > rect {
    fill: rgba(90, 90, 150, .1);
}

svg.railroad .regex > rect {
    fill: honeydew;
}

svg.railroad .string > rect {
    fill: cornsilk;
}

svg.railroad .character > rect {
    fill: lightcoral;
}
</style>
<g class="verticalgrid">
<g class="sequence">
<path d=" M 10 21 a 5 5 0 0 1 5 -5 a 5 5 0 0 1 5 5 a 5 5 0 0 1 -5 5 a 5 5 0 0 1 -5 -5 m 10 0 h 5"/>
<text class="comment" id="Root" x="54" y="26">
Root</text>
<g class="repeat">
<path d=" M 83 21 h 12 m 76 0 h 12 m -12 0 a 12 12 0 0 1 12 12 v 7 a 12 12 0 0 1 -12 12 m -17 0 h -59 m 32 0 l 5 -5 m 0 10 l -5 -5 m -32 0 a 12 12 0 0 1 -12 -12 v -7 a 12 12 0 0 1 12 -12"/>
<text class="comment" x="162" y="57">
*</text>
<a class="link" xlink:href="#Element">
<g class="symbol">
<rect height="22" width="76" x="95" y="10"/>
<text x="133" y="26">
Element</text>
</g>
</a>
</g>
<path d=" M 193 21 h 5 a 5 5 0 0 1 5 -5 a 5 5 0 0 1 5 5 a 5 5 0 0 1 -5 5 a 5 5 0 0 1 -5 -5"/>
<path d=" M 25 21 h 10"/>
<path d=" M 73 21 h 10"/>
<path d=" M 183 21 h 10"/>
</g>
<g class="sequence">
<path d=" M 10 85 a 5 5 0 0 1 5 -5 a 5 5 0 0 1 5 5 a 5 5 0 0 1 -5 5 a 5 5 0 0 1 -5 -5 m 10 0 h 5"/>
<text class="comment" id="Element" x="64" y="90">
Element</text>
<g class="sequence">
<a class="link" xlink:href="#TextElements">
<g class="symbol">
<rect height="22" width="116" x="104" y="74"/>
<text x="162" y="90">
TextElements</text>
</g>
</a>
<a class="link" xlink:href="#TemplateIf">
<g class="symbol">
<rect height="22" width="100" x="230" y="74"/>
<text x="280" y="90">
TemplateIf</text>
</g>
</a>
<path d=" M 220 85 h 10"/>
</g>
<path d=" M 340 85 h 5 a 5 5 0 0 1 5 -5 a 5 5 0 0 1 5 5 a 5 5 0 0 1 -5 5 a 5 5 0 0 1 -5 -5"/>
<path d=" M 25 85 h 10"/>
<path d=" M 94 85 h 10"/>
<path d=" M 330 85 h 10"/>
</g>
<g class="sequence">
<path d=" M 10 119 a 5 5 0 0 1 5 -5 a 5 5 0 0 1 5 5 a 5 5 0 0 1 -5 5 a 5 5 0 0 1 -5 -5 m 10 0 h 5"/>
<text class="comment" id="TextElements" x="82" y="124">
TextElements</text>
<g class="sequence">
<a class="link" xlink:href="#TEMPLATE_E">
<g class="symbol">
<rect height="22" width="100" x="139" y="108"/>
<text x="189" y="124">
TEMPLATE_E</text>
</g>
</a>
<a class="link" xlink:href="#TEXT_SPACE">
<g class="symbol">
<rect height="22" width="100" x="249" y="108"/>
<text x="299" y="124">
TEXT_SPACE</text>
</g>
</a>
<a class="link" xlink:href="#TEXT_WORD">
<g class="symbol">
<rect height="22" width="92" x="359" y="108"/>
<text x="405" y="124">
TEXT_WORD</text>
</g>
</a>
<path d=" M 239 119 h 10"/>
<path d=" M 349 119 h 10"/>
</g>
<path d=" M 461 119 h 5 a 5 5 0 0 1 5 -5 a 5 5 0 0 1 5 5 a 5 5 0 0 1 -5 5 a 5 5 0 0 1 -5 -5"/>
<path d=" M 25 119 h 10"/>
<path d=" M 129 119 h 10"/>
<path d=" M 451 119 h 10"/>
</g>
<g class="sequence">
<path d=" M 10 153 a 5 5 0 0 1 5 -5 a 5 5 0 0 1 5 5 a 5 5 0 0 1 -5 5 a 5 5 0 0 1 -5 -5 m 10 0 h 5"/>
<text class="comment" id="TEMPLATE_E" x="75" y="158">
TEMPLATE_E</text>
<g class="string">
<rect height="22" rx="10" ry="10" width="44" x="125" y="142"/>
<text x="147" y="158">
&lt;&lt;%</text>
</g>
<path d=" M 179 153 h 5 a 5 5 0 0 1 5 -5 a 5 5 0 0 1 5 5 a 5 5 0 0 1 -5 5 a 5 5 0 0 1 -5 -5"/>
<path d=" M 25 153 h 10"/>
<path d=" M 115 153 h 10"/>
<path d=" M 169 153 h 10"/>
</g>
<g class="sequence">
<path d=" M 10 187 a 5 5 0 0 1 5 -5 a 5 5 0 0 1 5 5 a 5 5 0 0 1 -5 5 a 5 5 0 0 1 -5 -5 m 10 0 h 5"/>
<text class="comment" id="TEXT_SPACE" x="75" y="192">
TEXT_SPACE</text>
<g class="string">
<rect height="22" rx="10" ry="10" width="148" x="125" y="176"/>
<text x="199" y="192">
\p{White_Space}+</text>
</g>
<path d=" M 283 187 h 5 a 5 5 0 0 1 5 -5 a 5 5 0 0 1 5 5 a 5 5 0 0 1 -5 5 a 5 5 0 0 1 -5 -5"/>
<path d=" M 25 187 h 10"/>
<path d=" M 115 187 h 10"/>
<path d=" M 273 187 h 10"/>
</g>
<g class="sequence">
<path d=" M 10 221 a 5 5 0 0 1 5 -5 a 5 5 0 0 1 5 5 a 5 5 0 0 1 -5 5 a 5 5 0 0 1 -5 -5 m 10 0 h 5"/>
<text class="comment" id="TEXT_WORD" x="71" y="226">
TEXT_WORD</text>
<g class="string">
<rect height="22" rx="10" ry="10" width="188" x="118" y="210"/>
<text x="212" y="226">
[^&lt;\p{White_Space}]+</text>
</g>
<path d=" M 316 221 h 5 a 5 5 0 0 1 5 -5 a 5 5 0 0 1 5 5 a 5 5 0 0 1 -5 5 a 5 5 0 0 1 -5 -5"/>
<path d=" M 25 221 h 10"/>
<path d=" M 108 221 h 10"/>
<path d=" M 306 221 h 10"/>
</g>
<g class="sequence">
<path d=" M 10 255 a 5 5 0 0 1 5 -5 a 5 5 0 0 1 5 5 a 5 5 0 0 1 -5 5 a 5 5 0 0 1 -5 -5 m 10 0 h 5"/>
<text class="comment" id="TEMPLATE_L" x="75" y="260">
TEMPLATE_L</text>
<g class="sequence">
<g class="string">
<rect height="22" rx="10" ry="10" width="36" x="125" y="244"/>
<text x="143" y="260">
&lt;%</text>
</g>
<a class="link" xlink:href="#SPACE_CONTROL">
<g class="symbol">
<rect height="22" width="124" x="171" y="244"/>
<text x="233" y="260">
SPACE_CONTROL</text>
</g>
</a>
<path d=" M 161 255 h 10"/>
</g>
<path d=" M 305 255 h 5 a 5 5 0 0 1 5 -5 a 5 5 0 0 1 5 5 a 5 5 0 0 1 -5 5 a 5 5 0 0 1 -5 -5"/>
<path d=" M 25 255 h 10"/>
<path d=" M 115 255 h 10"/>
<path d=" M 295 255 h 10"/>
</g>
<g class="sequence">
<path d=" M 10 289 a 5 5 0 0 1 5 -5 a 5 5 0 0 1 5 5 a 5 5 0 0 1 -5 5 a 5 5 0 0 1 -5 -5 m 10 0 h 5"/>
<text class="comment" id="TEMPLATE_R" x="75" y="294">
TEMPLATE_R</text>
<g class="sequence">
<a class="link" xlink:href="#SPACE_CONTROL">
<g class="symbol">
<rect height="22" width="124" x="125" y="278"/>
<text x="187" y="294">
SPACE_CONTROL</text>
</g>
</a>
<g class="string">
<rect height="22" rx="10" ry="10" width="36" x="259" y="278"/>
<text x="277" y="294">
%&gt;</text>
</g>
<path d=" M 249 289 h 10"/>
</g>
<path d=" M 305 289 h 5 a 5 5 0 0 1 5 -5 a 5 5 0 0 1 5 5 a 5 5 0 0 1 -5 5 a 5 5 0 0 1 -5 -5"/>
<path d=" M 25 289 h 10"/>
<path d=" M 115 289 h 10"/>
<path d=" M 295 289 h 10"/>
</g>
<g class="sequence">
<path d=" M 10 323 a 5 5 0 0 1 5 -5 a 5 5 0 0 1 5 5 a 5 5 0 0 1 -5 5 a 5 5 0 0 1 -5 -5 m 10 0 h 5"/>
<text class="comment" id="SPACE_CONTROL" x="85" y="328">
SPACE_CONTROL</text>
<g class="sequence">
<g class="string">
<rect height="22" rx="10" ry="10" width="28" x="146" y="312"/>
<text x="160" y="328">
_</text>
</g>
<g class="string">
<rect height="22" rx="10" ry="10" width="28" x="184" y="312"/>
<text x="198" y="328">
-</text>
</g>
<g class="string">
<rect height="22" rx="10" ry="10" width="28" x="222" y="312"/>
<text x="236" y="328">
~</text>
</g>
<g class="string">
<rect height="22" rx="10" ry="10" width="28" x="260" y="312"/>
<text x="274" y="328">
=</text>
</g>
<path d=" M 174 323 h 10"/>
<path d=" M 212 323 h 10"/>
<path d=" M 250 323 h 10"/>
</g>
<path d=" M 298 323 h 5 a 5 5 0 0 1 5 -5 a 5 5 0 0 1 5 5 a 5 5 0 0 1 -5 5 a 5 5 0 0 1 -5 -5"/>
<path d=" M 25 323 h 10"/>
<path d=" M 136 323 h 10"/>
<path d=" M 288 323 h 10"/>
</g>
<g class="sequence">
<path d=" M 10 357 a 5 5 0 0 1 5 -5 a 5 5 0 0 1 5 5 a 5 5 0 0 1 -5 5 a 5 5 0 0 1 -5 -5 m 10 0 h 5"/>
<text class="comment" id="TemplateIf" x="75" y="362">
TemplateIf</text>
<g class="sequence">
<a class="link" xlink:href="#IfBegin">
<g class="symbol">
<rect height="22" width="76" x="125" y="346"/>
<text x="163" y="362">
IfBegin</text>
</g>
</a>
<g class="repeat">
<path d=" M 211 357 h 12 m 116 0 h 12 m -12 0 a 12 12 0 0 1 12 12 v 7 a 12 12 0 0 1 -12 12 m -17 0 h -99 m 52 0 l 5 -5 m 0 10 l -5 -5 m -52 0 a 12 12 0 0 1 -12 -12 v -7 a 12 12 0 0 1 12 -12"/>
<text class="comment" x="330" y="393">
*</text>
<a class="link" xlink:href="#TextElements">
<g class="symbol">
<rect height="22" width="116" x="223" y="346"/>
<text x="281" y="362">
TextElements</text>
</g>
</a>
</g>
<a class="link" xlink:href="#IfEnd">
<g class="symbol">
<rect height="22" width="60" x="361" y="346"/>
<text x="391" y="362">
IfEnd</text>
</g>
</a>
<path d=" M 201 357 h 10"/>
<path d=" M 351 357 h 10"/>
</g>
<path d=" M 431 357 h 5 a 5 5 0 0 1 5 -5 a 5 5 0 0 1 5 5 a 5 5 0 0 1 -5 5 a 5 5 0 0 1 -5 -5"/>
<path d=" M 25 357 h 10"/>
<path d=" M 115 357 h 10"/>
<path d=" M 421 357 h 10"/>
</g>
<g class="sequence">
<path d=" M 10 421 a 5 5 0 0 1 5 -5 a 5 5 0 0 1 5 5 a 5 5 0 0 1 -5 5 a 5 5 0 0 1 -5 -5 m 10 0 h 5"/>
<text class="comment" id="IfBegin" x="64" y="426">
IfBegin</text>
<g class="sequence">
<a class="link" xlink:href="#TEMPLATE_L">
<g class="symbol">
<rect height="22" width="100" x="104" y="410"/>
<text x="154" y="426">
TEMPLATE_L</text>
</g>
</a>
<g class="character">
<rect height="22" rx="10" ry="10" width="76" x="214" y="410"/>
<text x="252" y="426">
IGNORED</text>
</g>
<a class="link" xlink:href="#KW_IF">
<g class="symbol">
<rect height="22" width="60" x="300" y="410"/>
<text x="330" y="426">
KW_IF</text>
</g>
</a>
<g class="character">
<rect height="22" rx="10" ry="10" width="76" x="370" y="410"/>
<text x="408" y="426">
IGNORED</text>
</g>
<a class="link" xlink:href="#Atomic">
<g class="symbol">
<rect height="22" width="68" x="456" y="410"/>
<text x="490" y="426">
Atomic</text>
</g>
</a>
<g class="character">
<rect height="22" rx="10" ry="10" width="76" x="534" y="410"/>
<text x="572" y="426">
IGNORED</text>
</g>
<a class="link" xlink:href="#TEMPLATE_R">
<g class="symbol">
<rect height="22" width="100" x="620" y="410"/>
<text x="670" y="426">
TEMPLATE_R</text>
</g>
</a>
<path d=" M 204 421 h 10"/>
<path d=" M 290 421 h 10"/>
<path d=" M 360 421 h 10"/>
<path d=" M 446 421 h 10"/>
<path d=" M 524 421 h 10"/>
<path d=" M 610 421 h 10"/>
</g>
<path d=" M 730 421 h 5 a 5 5 0 0 1 5 -5 a 5 5 0 0 1 5 5 a 5 5 0 0 1 -5 5 a 5 5 0 0 1 -5 -5"/>
<path d=" M 25 421 h 10"/>
<path d=" M 94 421 h 10"/>
<path d=" M 720 421 h 10"/>
</g>
<g class="sequence">
<path d=" M 10 455 a 5 5 0 0 1 5 -5 a 5 5 0 0 1 5 5 a 5 5 0 0 1 -5 5 a 5 5 0 0 1 -5 -5 m 10 0 h 5"/>
<text class="comment" id="IfElse" x="61" y="460">
IfElse</text>
<g class="sequence">
<a class="link" xlink:href="#TEMPLATE_L">
<g class="symbol">
<rect height="22" width="100" x="97" y="444"/>
<text x="147" y="460">
TEMPLATE_L</text>
</g>
</a>
<g class="character">
<rect height="22" rx="10" ry="10" width="76" x="207" y="444"/>
<text x="245" y="460">
IGNORED</text>
</g>
<a class="link" xlink:href="#KW_ELSE">
<g class="symbol">
<rect height="22" width="76" x="293" y="444"/>
<text x="331" y="460">
KW_ELSE</text>
</g>
</a>
<g class="character">
<rect height="22" rx="10" ry="10" width="76" x="379" y="444"/>
<text x="417" y="460">
IGNORED</text>
</g>
<a class="link" xlink:href="#TEMPLATE_R">
<g class="symbol">
<rect height="22" width="100" x="465" y="444"/>
<text x="515" y="460">
TEMPLATE_R</text>
</g>
</a>
<path d=" M 197 455 h 10"/>
<path d=" M 283 455 h 10"/>
<path d=" M 369 455 h 10"/>
<path d=" M 455 455 h 10"/>
</g>
<path d=" M 575 455 h 5 a 5 5 0 0 1 5 -5 a 5 5 0 0 1 5 5 a 5 5 0 0 1 -5 5 a 5 5 0 0 1 -5 -5"/>
<path d=" M 25 455 h 10"/>
<path d=" M 87 455 h 10"/>
<path d=" M 565 455 h 10"/>
</g>
<g class="sequence">
<path d=" M 10 489 a 5 5 0 0 1 5 -5 a 5 5 0 0 1 5 5 a 5 5 0 0 1 -5 5 a 5 5 0 0 1 -5 -5 m 10 0 h 5"/>
<text class="comment" id="IfElseIf" x="68" y="494">
IfElseIf</text>
<g class="sequence">
<a class="link" xlink:href="#TEMPLATE_L">
<g class="symbol">
<rect height="22" width="100" x="111" y="478"/>
<text x="161" y="494">
TEMPLATE_L</text>
</g>
</a>
<g class="character">
<rect height="22" rx="10" ry="10" width="76" x="221" y="478"/>
<text x="259" y="494">
IGNORED</text>
</g>
<a class="link" xlink:href="#KW_ELSE">
<g class="symbol">
<rect height="22" width="76" x="307" y="478"/>
<text x="345" y="494">
KW_ELSE</text>
</g>
</a>
<g class="character">
<rect height="22" rx="10" ry="10" width="76" x="393" y="478"/>
<text x="431" y="494">
IGNORED</text>
</g>
<a class="link" xlink:href="#KW_IF">
<g class="symbol">
<rect height="22" width="60" x="479" y="478"/>
<text x="509" y="494">
KW_IF</text>
</g>
</a>
<g class="character">
<rect height="22" rx="10" ry="10" width="76" x="549" y="478"/>
<text x="587" y="494">
IGNORED</text>
</g>
<a class="link" xlink:href="#TEMPLATE_R">
<g class="symbol">
<rect height="22" width="100" x="635" y="478"/>
<text x="685" y="494">
TEMPLATE_R</text>
</g>
</a>
<path d=" M 211 489 h 10"/>
<path d=" M 297 489 h 10"/>
<path d=" M 383 489 h 10"/>
<path d=" M 469 489 h 10"/>
<path d=" M 539 489 h 10"/>
<path d=" M 625 489 h 10"/>
</g>
<path d=" M 745 489 h 5 a 5 5 0 0 1 5 -5 a 5 5 0 0 1 5 5 a 5 5 0 0 1 -5 5 a 5 5 0 0 1 -5 -5"/>
<path d=" M 25 489 h 10"/>
<path d=" M 101 489 h 10"/>
<path d=" M 735 489 h 10"/>
</g>
<g class="sequence">
<path d=" M 10 536 a 5 5 0 0 1 5 -5 a 5 5 0 0 1 5 5 a 5 5 0 0 1 -5 5 a 5 5 0 0 1 -5 -5 m 10 0 h 5"/>
<text class="comment" id="IfEnd" x="57" y="541">
IfEnd</text>
<g class="sequence">
<a class="link" xlink:href="#TEMPLATE_L">
<g class="symbol">
<rect height="22" width="100" x="90" y="525"/>
<text x="140" y="541">
TEMPLATE_L</text>
</g>
</a>
<g class="character">
<rect height="22" rx="10" ry="10" width="76" x="200" y="525"/>
<text x="238" y="541">
IGNORED</text>
</g>
<a class="link" xlink:href="#KW_END">
<g class="symbol">
<rect height="22" width="68" x="286" y="525"/>
<text x="320" y="541">
KW_END</text>
</g>
</a>
<g class="character">
<rect height="22" rx="10" ry="10" width="76" x="364" y="525"/>
<text x="402" y="541">
IGNORED</text>
</g>
<g class="optional">
<path d=" M 450 536 h 24 m -24 0 a 12 12 0 0 0 12 -12 v 0 a 12 12 0 0 1 12 -12 h 60 m -27 0 l -5 -5 m 0 10 l 5 -5 m 27 0 a 12 12 0 0 1 12 12 v 0 a 12 12 0 0 0 12 12 h -24"/>
<a class="link" xlink:href="#KW_IF">
<g class="symbol">
<rect height="22" width="60" x="474" y="525"/>
<text x="504" y="541">
KW_IF</text>
</g>
</a>
</g>
<g class="character">
<rect height="22" rx="10" ry="10" width="76" x="568" y="525"/>
<text x="606" y="541">
IGNORED</text>
</g>
<a class="link" xlink:href="#TEMPLATE_R">
<g class="symbol">
<rect height="22" width="100" x="654" y="525"/>
<text x="704" y="541">
TEMPLATE_R</text>
</g>
</a>
<path d=" M 190 536 h 10"/>
<path d=" M 276 536 h 10"/>
<path d=" M 354 536 h 10"/>
<path d=" M 440 536 h 10"/>
<path d=" M 558 536 h 10"/>
<path d=" M 644 536 h 10"/>
</g>
<path d=" M 764 536 h 5 a 5 5 0 0 1 5 -5 a 5 5 0 0 1 5 5 a 5 5 0 0 1 -5 5 a 5 5 0 0 1 -5 -5"/>
<path d=" M 25 536 h 10"/>
<path d=" M 80 536 h 10"/>
<path d=" M 754 536 h 10"/>
</g>
<g class="sequence">
<path d=" M 10 570 a 5 5 0 0 1 5 -5 a 5 5 0 0 1 5 5 a 5 5 0 0 1 -5 5 a 5 5 0 0 1 -5 -5 m 10 0 h 5"/>
<text class="comment" id="KW_IF" x="57" y="575">
KW_IF</text>
<g class="string">
<rect height="22" rx="10" ry="10" width="36" x="90" y="559"/>
<text x="108" y="575">
if</text>
</g>
<path d=" M 136 570 h 5 a 5 5 0 0 1 5 -5 a 5 5 0 0 1 5 5 a 5 5 0 0 1 -5 5 a 5 5 0 0 1 -5 -5"/>
<path d=" M 25 570 h 10"/>
<path d=" M 80 570 h 10"/>
<path d=" M 126 570 h 10"/>
</g>
<g class="sequence">
<path d=" M 10 604 a 5 5 0 0 1 5 -5 a 5 5 0 0 1 5 5 a 5 5 0 0 1 -5 5 a 5 5 0 0 1 -5 -5 m 10 0 h 5"/>
<text class="comment" id="KW_ELSE" x="64" y="609">
KW_ELSE</text>
<g class="string">
<rect height="22" rx="10" ry="10" width="52" x="104" y="593"/>
<text x="130" y="609">
else</text>
</g>
<path d=" M 166 604 h 5 a 5 5 0 0 1 5 -5 a 5 5 0 0 1 5 5 a 5 5 0 0 1 -5 5 a 5 5 0 0 1 -5 -5"/>
<path d=" M 25 604 h 10"/>
<path d=" M 94 604 h 10"/>
<path d=" M 156 604 h 10"/>
</g>
<g class="sequence">
<path d=" M 10 638 a 5 5 0 0 1 5 -5 a 5 5 0 0 1 5 5 a 5 5 0 0 1 -5 5 a 5 5 0 0 1 -5 -5 m 10 0 h 5"/>
<text class="comment" id="KW_END" x="61" y="643">
KW_END</text>
<g class="string">
<rect height="22" rx="10" ry="10" width="44" x="97" y="627"/>
<text x="119" y="643">
end</text>
</g>
<path d=" M 151 638 h 5 a 5 5 0 0 1 5 -5 a 5 5 0 0 1 5 5 a 5 5 0 0 1 -5 5 a 5 5 0 0 1 -5 -5"/>
<path d=" M 25 638 h 10"/>
<path d=" M 87 638 h 10"/>
<path d=" M 141 638 h 10"/>
</g>
<g class="sequence">
<path d=" M 10 672 a 5 5 0 0 1 5 -5 a 5 5 0 0 1 5 5 a 5 5 0 0 1 -5 5 a 5 5 0 0 1 -5 -5 m 10 0 h 5"/>
<text class="comment" id="Atomic" x="61" y="677">
Atomic</text>
<g class="sequence">
<a class="link" xlink:href="#Boolean">
<g class="symbol">
<rect height="22" width="76" x="97" y="661"/>
<text x="135" y="677">
Boolean</text>
</g>
</a>
<a class="link" xlink:href="#Identifier">
<g class="symbol">
<rect height="22" width="100" x="183" y="661"/>
<text x="233" y="677">
Identifier</text>
</g>
</a>
<a class="link" xlink:href="#Number">
<g class="symbol">
<rect height="22" width="68" x="293" y="661"/>
<text x="327" y="677">
Number</text>
</g>
</a>
<path d=" M 173 672 h 10"/>
<path d=" M 283 672 h 10"/>
</g>
<path d=" M 371 672 h 5 a 5 5 0 0 1 5 -5 a 5 5 0 0 1 5 5 a 5 5 0 0 1 -5 5 a 5 5 0 0 1 -5 -5"/>
<path d=" M 25 672 h 10"/>
<path d=" M 87 672 h 10"/>
<path d=" M 361 672 h 10"/>
</g>
<g class="sequence">
<path d=" M 10 706 a 5 5 0 0 1 5 -5 a 5 5 0 0 1 5 5 a 5 5 0 0 1 -5 5 a 5 5 0 0 1 -5 -5 m 10 0 h 5"/>
<text class="comment" id="Number" x="61" y="711">
Number</text>
<g class="string">
<rect height="22" rx="10" ry="10" width="116" x="97" y="695"/>
<text x="155" y="711">
0|[1-9][0-9]</text>
</g>
<path d=" M 223 706 h 5 a 5 5 0 0 1 5 -5 a 5 5 0 0 1 5 5 a 5 5 0 0 1 -5 5 a 5 5 0 0 1 -5 -5"/>
<path d=" M 25 706 h 10"/>
<path d=" M 87 706 h 10"/>
<path d=" M 213 706 h 10"/>
</g>
<g class="sequence">
<path d=" M 10 740 a 5 5 0 0 1 5 -5 a 5 5 0 0 1 5 5 a 5 5 0 0 1 -5 5 a 5 5 0 0 1 -5 -5 m 10 0 h 5"/>
<text class="comment" id="Identifier" x="75" y="745">
Identifier</text>
<g class="string">
<rect height="22" rx="10" ry="10" width="308" x="125" y="729"/>
<text x="279" y="745">
[_\p{XID_start}][\p{XID_continue}]*</text>
</g>
<path d=" M 443 740 h 5 a 5 5 0 0 1 5 -5 a 5 5 0 0 1 5 5 a 5 5 0 0 1 -5 5 a 5 5 0 0 1 -5 -5"/>
<path d=" M 25 740 h 10"/>
<path d=" M 115 740 h 10"/>
<path d=" M 433 740 h 10"/>
</g>
<g class="sequence">
<path d=" M 10 774 a 5 5 0 0 1 5 -5 a 5 5 0 0 1 5 5 a 5 5 0 0 1 -5 5 a 5 5 0 0 1 -5 -5 m 10 0 h 5"/>
<text class="comment" id="Boolean" x="64" y="779">
Boolean</text>
<g class="sequence">
<g class="string">
<rect height="22" rx="10" ry="10" width="52" x="104" y="763"/>
<text x="130" y="779">
true</text>
</g>
<g class="string">
<rect height="22" rx="10" ry="10" width="60" x="166" y="763"/>
<text x="196" y="779">
false</text>
</g>
<path d=" M 156 774 h 10"/>
</g>
<path d=" M 236 774 h 5 a 5 5 0 0 1 5 -5 a 5 5 0 0 1 5 5 a 5 5 0 0 1 -5 5 a 5 5 0 0 1 -5 -5"/>
<path d=" M 25 774 h 10"/>
<path d=" M 94 774 h 10"/>
<path d=" M 226 774 h 10"/>
</g>
<g class="sequence">
<path d=" M 10 808 a 5 5 0 0 1 5 -5 a 5 5 0 0 1 5 5 a 5 5 0 0 1 -5 5 a 5 5 0 0 1 -5 -5 m 10 0 h 5"/>
<text class="comment" id="WhiteSpace" x="75" y="813">
WhiteSpace</text>
<g class="string">
<rect height="22" rx="10" ry="10" width="148" x="125" y="797"/>
<text x="199" y="813">
\p{White_Space}+</text>
</g>
<path d=" M 283 808 h 5 a 5 5 0 0 1 5 -5 a 5 5 0 0 1 5 5 a 5 5 0 0 1 -5 5 a 5 5 0 0 1 -5 -5"/>
<path d=" M 25 808 h 10"/>
<path d=" M 115 808 h 10"/>
<path d=" M 273 808 h 10"/>
</g>
</g>
</svg>
