<svg class="railroad" viewBox="0 0 810 664" xmlns="http://www.w3.org/2000/svg" xmlns:xlink="http://www.w3.org/1999/xlink">
<style type="text/css">
svg.railroad {
    background-color: hsl(30, 20%, 95%);
    background-size: 15px 15px;
    background-image: linear-gradient(to right, rgba(30, 30, 30, .05) 1px, transparent 1px),
    linear-gradient(to bottom, rgba(30, 30, 30, .05) 1px, transparent 1px);
}

svg.railroad path {
    stroke-width: 3px;
    stroke: black;
    fill: transparent;
}

svg.railroad .debug {
    stroke-width: 1px;
    stroke: red;
}

svg.railroad text {
    font-size: 14px;
    font-family: monospace;
    text-anchor: middle;
}

svg.railroad .nonterminal text {
    font-weight: bold;
}

svg.railroad text.comment {
    font-family: serif;
    font-style: italic;
    font-size: 12px;
}

svg.railroad rect {
    stroke-width: 3px;
    stroke: black;
}

svg.railroad g.labeledbox > rect {
    stroke-width: 1px;
    stroke: grey;
    stroke-dasharray: 5px;
    fill: rgba(90, 90, 150, .1);
}

svg.railroad .symbol > rect {
    fill: rgba(90, 90, 150, .1);
}

svg.railroad .regex > rect {
    fill: honeydew;
}

svg.railroad .string > rect {
    fill: cornsilk;
}

svg.railroad .character > rect {
    fill: lightcoral;
}
</style>
<g class="verticalgrid">
<g class="sequence">
<path d=" M 10 21 a 5 5 0 0 1 5 -5 a 5 5 0 0 1 5 5 a 5 5 0 0 1 -5 5 a 5 5 0 0 1 -5 -5 m 10 0 h 5"/>
<text class="comment" id="Root" x="54" y="26">
Root</text>
<g class="repeat">
<path d=" M 83 21 h 12 m 76 0 h 12 m -12 0 a 12 12 0 0 1 12 12 v 7 a 12 12 0 0 1 -12 12 m -17 0 h -59 m 32 0 l 5 -5 m 0 10 l -5 -5 m -32 0 a 12 12 0 0 1 -12 -12 v -7 a 12 12 0 0 1 12 -12"/>
<text class="comment" x="162" y="57">
*</text>
<a class="link" xlink:href="#Element">
<g class="symbol">
<rect height="22" width="76" x="95" y="10"/>
<text x="133" y="26">
Element</text>
</g>
</a>
</g>
<path d=" M 193 21 h 5 a 5 5 0 0 1 5 -5 a 5 5 0 0 1 5 5 a 5 5 0 0 1 -5 5 a 5 5 0 0 1 -5 -5"/>
<path d=" M 25 21 h 10"/>
<path d=" M 73 21 h 10"/>
<path d=" M 183 21 h 10"/>
</g>
<g class="sequence">
<path d=" M 10 85 a 5 5 0 0 1 5 -5 a 5 5 0 0 1 5 5 a 5 5 0 0 1 -5 5 a 5 5 0 0 1 -5 -5 m 10 0 h 5"/>
<text class="comment" id="Element" x="64" y="90">
Element</text>
<g class="sequence">
<a class="link" xlink:href="#TextElements">
<g class="symbol">
<rect height="22" width="116" x="104" y="74"/>
<text x="162" y="90">
TextElements</text>
</g>
</a>
<a class="link" xlink:href="#TemplateIf">
<g class="symbol">
<rect height="22" width="100" x="230" y="74"/>
<text x="280" y="90">
TemplateIf</text>
</g>
</a>
<path d=" M 220 85 h 10"/>
</g>
<path d=" M 340 85 h 5 a 5 5 0 0 1 5 -5 a 5 5 0 0 1 5 5 a 5 5 0 0 1 -5 5 a 5 5 0 0 1 -5 -5"/>
<path d=" M 25 85 h 10"/>
<path d=" M 94 85 h 10"/>
<path d=" M 330 85 h 10"/>
</g>
<g class="sequence">
<path d=" M 10 119 a 5 5 0 0 1 5 -5 a 5 5 0 0 1 5 5 a 5 5 0 0 1 -5 5 a 5 5 0 0 1 -5 -5 m 10 0 h 5"/>
<text class="comment" id="TemplateIf" x="75" y="124">
TemplateIf</text>
<g class="sequence">
<a class="link" xlink:href="#IfBegin">
<g class="symbol">
<rect height="22" width="76" x="125" y="108"/>
<text x="163" y="124">
IfBegin</text>
</g>
</a>
<g class="repeat">
<path d=" M 211 119 h 12 m 116 0 h 12 m -12 0 a 12 12 0 0 1 12 12 v 7 a 12 12 0 0 1 -12 12 m -17 0 h -99 m 52 0 l 5 -5 m 0 10 l -5 -5 m -52 0 a 12 12 0 0 1 -12 -12 v -7 a 12 12 0 0 1 12 -12"/>
<text class="comment" x="330" y="155">
*</text>
<a class="link" xlink:href="#TextElements">
<g class="symbol">
<rect height="22" width="116" x="223" y="108"/>
<text x="281" y="124">
TextElements</text>
</g>
</a>
</g>
<a class="link" xlink:href="#IfEnd">
<g class="symbol">
<rect height="22" width="60" x="361" y="108"/>
<text x="391" y="124">
IfEnd</text>
</g>
</a>
<path d=" M 201 119 h 10"/>
<path d=" M 351 119 h 10"/>
</g>
<path d=" M 431 119 h 5 a 5 5 0 0 1 5 -5 a 5 5 0 0 1 5 5 a 5 5 0 0 1 -5 5 a 5 5 0 0 1 -5 -5"/>
<path d=" M 25 119 h 10"/>
<path d=" M 115 119 h 10"/>
<path d=" M 421 119 h 10"/>
</g>
<g class="sequence">
<path d=" M 10 196 a 5 5 0 0 1 5 -5 a 5 5 0 0 1 5 5 a 5 5 0 0 1 -5 5 a 5 5 0 0 1 -5 -5 m 10 0 h 5"/>
<text class="comment" id="IfBegin" x="64" y="201">
IfBegin</text>
<g class="sequence">
<a class="link" xlink:href="#TEMPLATE_L">
<g class="symbol">
<rect height="22" width="100" x="104" y="185"/>
<text x="154" y="201">
TEMPLATE_L</text>
</g>
</a>
<g class="character">
<rect height="22" rx="10" ry="10" width="76" x="214" y="185"/>
<text x="252" y="201">
IGNORED</text>
</g>
<a class="link" xlink:href="#KW_END">
<g class="symbol">
<rect height="22" width="68" x="300" y="185"/>
<text x="334" y="201">
KW_END</text>
</g>
</a>
<g class="character">
<rect height="22" rx="10" ry="10" width="76" x="378" y="185"/>
<text x="416" y="201">
IGNORED</text>
</g>
<g class="optional">
<path d=" M 464 196 h 24 m -24 0 a 12 12 0 0 0 12 -12 v 0 a 12 12 0 0 1 12 -12 h 60 m -27 0 l -5 -5 m 0 10 l 5 -5 m 27 0 a 12 12 0 0 1 12 12 v 0 a 12 12 0 0 0 12 12 h -24"/>
<a class="link" xlink:href="#KW_IF">
<g class="symbol">
<rect height="22" width="60" x="488" y="185"/>
<text x="518" y="201">
KW_IF</text>
</g>
</a>
</g>
<g class="character">
<rect height="22" rx="10" ry="10" width="76" x="582" y="185"/>
<text x="620" y="201">
IGNORED</text>
</g>
<a class="link" xlink:href="#TEMPLATE_R">
<g class="symbol">
<rect height="22" width="100" x="668" y="185"/>
<text x="718" y="201">
TEMPLATE_R</text>
</g>
</a>
<path d=" M 204 196 h 10"/>
<path d=" M 290 196 h 10"/>
<path d=" M 368 196 h 10"/>
<path d=" M 454 196 h 10"/>
<path d=" M 572 196 h 10"/>
<path d=" M 658 196 h 10"/>
</g>
<path d=" M 778 196 h 5 a 5 5 0 0 1 5 -5 a 5 5 0 0 1 5 5 a 5 5 0 0 1 -5 5 a 5 5 0 0 1 -5 -5"/>
<path d=" M 25 196 h 10"/>
<path d=" M 94 196 h 10"/>
<path d=" M 768 196 h 10"/>
</g>
<g class="sequence">
<path d=" M 10 243 a 5 5 0 0 1 5 -5 a 5 5 0 0 1 5 5 a 5 5 0 0 1 -5 5 a 5 5 0 0 1 -5 -5 m 10 0 h 5"/>
<text class="comment" id="IfElse" x="61" y="248">
IfElse</text>
<g class="sequence">
<a class="link" xlink:href="#TEMPLATE_L">
<g class="symbol">
<rect height="22" width="100" x="97" y="232"/>
<text x="147" y="248">
TEMPLATE_L</text>
</g>
</a>
<g class="character">
<rect height="22" rx="10" ry="10" width="76" x="207" y="232"/>
<text x="245" y="248">
IGNORED</text>
</g>
<a class="link" xlink:href="#KW_END">
<g class="symbol">
<rect height="22" width="68" x="293" y="232"/>
<text x="327" y="248">
KW_END</text>
</g>
</a>
<g class="character">
<rect height="22" rx="10" ry="10" width="76" x="371" y="232"/>
<text x="409" y="248">
IGNORED</text>
</g>
<g class="optional">
<path d=" M 457 243 h 24 m -24 0 a 12 12 0 0 0 12 -12 v 0 a 12 12 0 0 1 12 -12 h 60 m -27 0 l -5 -5 m 0 10 l 5 -5 m 27 0 a 12 12 0 0 1 12 12 v 0 a 12 12 0 0 0 12 12 h -24"/>
<a class="link" xlink:href="#KW_IF">
<g class="symbol">
<rect height="22" width="60" x="481" y="232"/>
<text x="511" y="248">
KW_IF</text>
</g>
</a>
</g>
<g class="character">
<rect height="22" rx="10" ry="10" width="76" x="575" y="232"/>
<text x="613" y="248">
IGNORED</text>
</g>
<a class="link" xlink:href="#TEMPLATE_R">
<g class="symbol">
<rect height="22" width="100" x="661" y="232"/>
<text x="711" y="248">
TEMPLATE_R</text>
</g>
</a>
<path d=" M 197 243 h 10"/>
<path d=" M 283 243 h 10"/>
<path d=" M 361 243 h 10"/>
<path d=" M 447 243 h 10"/>
<path d=" M 565 243 h 10"/>
<path d=" M 651 243 h 10"/>
</g>
<path d=" M 771 243 h 5 a 5 5 0 0 1 5 -5 a 5 5 0 0 1 5 5 a 5 5 0 0 1 -5 5 a 5 5 0 0 1 -5 -5"/>
<path d=" M 25 243 h 10"/>
<path d=" M 87 243 h 10"/>
<path d=" M 761 243 h 10"/>
</g>
<g class="sequence">
<path d=" M 10 290 a 5 5 0 0 1 5 -5 a 5 5 0 0 1 5 5 a 5 5 0 0 1 -5 5 a 5 5 0 0 1 -5 -5 m 10 0 h 5"/>
<text class="comment" id="IfElseIf" x="68" y="295">
IfElseIf</text>
<g class="sequence">
<a class="link" xlink:href="#TEMPLATE_L">
<g class="symbol">
<rect height="22" width="100" x="111" y="279"/>
<text x="161" y="295">
TEMPLATE_L</text>
</g>
</a>
<g class="character">
<rect height="22" rx="10" ry="10" width="76" x="221" y="279"/>
<text x="259" y="295">
IGNORED</text>
</g>
<a class="link" xlink:href="#KW_END">
<g class="symbol">
<rect height="22" width="68" x="307" y="279"/>
<text x="341" y="295">
KW_END</text>
</g>
</a>
<g class="character">
<rect height="22" rx="10" ry="10" width="76" x="385" y="279"/>
<text x="423" y="295">
IGNORED</text>
</g>
<g class="optional">
<path d=" M 471 290 h 24 m -24 0 a 12 12 0 0 0 12 -12 v 0 a 12 12 0 0 1 12 -12 h 60 m -27 0 l -5 -5 m 0 10 l 5 -5 m 27 0 a 12 12 0 0 1 12 12 v 0 a 12 12 0 0 0 12 12 h -24"/>
<a class="link" xlink:href="#KW_IF">
<g class="symbol">
<rect height="22" width="60" x="495" y="279"/>
<text x="525" y="295">
KW_IF</text>
</g>
</a>
</g>
<g class="character">
<rect height="22" rx="10" ry="10" width="76" x="589" y="279"/>
<text x="627" y="295">
IGNORED</text>
</g>
<a class="link" xlink:href="#TEMPLATE_R">
<g class="symbol">
<rect height="22" width="100" x="675" y="279"/>
<text x="725" y="295">
TEMPLATE_R</text>
</g>
</a>
<path d=" M 211 290 h 10"/>
<path d=" M 297 290 h 10"/>
<path d=" M 375 290 h 10"/>
<path d=" M 461 290 h 10"/>
<path d=" M 579 290 h 10"/>
<path d=" M 665 290 h 10"/>
</g>
<path d=" M 785 290 h 5 a 5 5 0 0 1 5 -5 a 5 5 0 0 1 5 5 a 5 5 0 0 1 -5 5 a 5 5 0 0 1 -5 -5"/>
<path d=" M 25 290 h 10"/>
<path d=" M 101 290 h 10"/>
<path d=" M 775 290 h 10"/>
</g>
<g class="sequence">
<path d=" M 10 337 a 5 5 0 0 1 5 -5 a 5 5 0 0 1 5 5 a 5 5 0 0 1 -5 5 a 5 5 0 0 1 -5 -5 m 10 0 h 5"/>
<text class="comment" id="IfEnd" x="57" y="342">
IfEnd</text>
<g class="sequence">
<a class="link" xlink:href="#TEMPLATE_L">
<g class="symbol">
<rect height="22" width="100" x="90" y="326"/>
<text x="140" y="342">
TEMPLATE_L</text>
</g>
</a>
<g class="character">
<rect height="22" rx="10" ry="10" width="76" x="200" y="326"/>
<text x="238" y="342">
IGNORED</text>
</g>
<a class="link" xlink:href="#KW_END">
<g class="symbol">
<rect height="22" width="68" x="286" y="326"/>
<text x="320" y="342">
KW_END</text>
</g>
</a>
<g class="character">
<rect height="22" rx="10" ry="10" width="76" x="364" y="326"/>
<text x="402" y="342">
IGNORED</text>
</g>
<g class="optional">
<path d=" M 450 337 h 24 m -24 0 a 12 12 0 0 0 12 -12 v 0 a 12 12 0 0 1 12 -12 h 60 m -27 0 l -5 -5 m 0 10 l 5 -5 m 27 0 a 12 12 0 0 1 12 12 v 0 a 12 12 0 0 0 12 12 h -24"/>
<a class="link" xlink:href="#KW_IF">
<g class="symbol">
<rect height="22" width="60" x="474" y="326"/>
<text x="504" y="342">
KW_IF</text>
</g>
</a>
</g>
<g class="character">
<rect height="22" rx="10" ry="10" width="76" x="568" y="326"/>
<text x="606" y="342">
IGNORED</text>
</g>
<a class="link" xlink:href="#TEMPLATE_R">
<g class="symbol">
<rect height="22" width="100" x="654" y="326"/>
<text x="704" y="342">
TEMPLATE_R</text>
</g>
</a>
<path d=" M 190 337 h 10"/>
<path d=" M 276 337 h 10"/>
<path d=" M 354 337 h 10"/>
<path d=" M 440 337 h 10"/>
<path d=" M 558 337 h 10"/>
<path d=" M 644 337 h 10"/>
</g>
<path d=" M 764 337 h 5 a 5 5 0 0 1 5 -5 a 5 5 0 0 1 5 5 a 5 5 0 0 1 -5 5 a 5 5 0 0 1 -5 -5"/>
<path d=" M 25 337 h 10"/>
<path d=" M 80 337 h 10"/>
<path d=" M 754 337 h 10"/>
</g>
<g class="sequence">
<path d=" M 10 371 a 5 5 0 0 1 5 -5 a 5 5 0 0 1 5 5 a 5 5 0 0 1 -5 5 a 5 5 0 0 1 -5 -5 m 10 0 h 5"/>
<text class="comment" id="KW_END" x="61" y="376">
KW_END</text>
<g class="string">
<rect height="22" rx="10" ry="10" width="44" x="97" y="360"/>
<text x="119" y="376">
end</text>
</g>
<path d=" M 151 371 h 5 a 5 5 0 0 1 5 -5 a 5 5 0 0 1 5 5 a 5 5 0 0 1 -5 5 a 5 5 0 0 1 -5 -5"/>
<path d=" M 25 371 h 10"/>
<path d=" M 87 371 h 10"/>
<path d=" M 141 371 h 10"/>
</g>
<g class="sequence">
<path d=" M 10 405 a 5 5 0 0 1 5 -5 a 5 5 0 0 1 5 5 a 5 5 0 0 1 -5 5 a 5 5 0 0 1 -5 -5 m 10 0 h 5"/>
<text class="comment" id="KW_IF" x="57" y="410">
KW_IF</text>
<g class="string">
<rect height="22" rx="10" ry="10" width="36" x="90" y="394"/>
<text x="108" y="410">
if</text>
</g>
<path d=" M 136 405 h 5 a 5 5 0 0 1 5 -5 a 5 5 0 0 1 5 5 a 5 5 0 0 1 -5 5 a 5 5 0 0 1 -5 -5"/>
<path d=" M 25 405 h 10"/>
<path d=" M 80 405 h 10"/>
<path d=" M 126 405 h 10"/>
</g>
<g class="sequence">
<path d=" M 10 439 a 5 5 0 0 1 5 -5 a 5 5 0 0 1 5 5 a 5 5 0 0 1 -5 5 a 5 5 0 0 1 -5 -5 m 10 0 h 5"/>
<text class="comment" id="TEMPLATE_L" x="75" y="444">
TEMPLATE_L</text>
<g class="string">
<rect height="22" rx="10" ry="10" width="36" x="125" y="428"/>
<text x="143" y="444">
&lt;%</text>
</g>
<path d=" M 171 439 h 5 a 5 5 0 0 1 5 -5 a 5 5 0 0 1 5 5 a 5 5 0 0 1 -5 5 a 5 5 0 0 1 -5 -5"/>
<path d=" M 25 439 h 10"/>
<path d=" M 115 439 h 10"/>
<path d=" M 161 439 h 10"/>
</g>
<g class="sequence">
<path d=" M 10 473 a 5 5 0 0 1 5 -5 a 5 5 0 0 1 5 5 a 5 5 0 0 1 -5 5 a 5 5 0 0 1 -5 -5 m 10 0 h 5"/>
<text class="comment" id="TEMPLATE_R" x="75" y="478">
TEMPLATE_R</text>
<g class="string">
<rect height="22" rx="10" ry="10" width="36" x="125" y="462"/>
<text x="143" y="478">
%&gt;</text>
</g>
<path d=" M 171 473 h 5 a 5 5 0 0 1 5 -5 a 5 5 0 0 1 5 5 a 5 5 0 0 1 -5 5 a 5 5 0 0 1 -5 -5"/>
<path d=" M 25 473 h 10"/>
<path d=" M 115 473 h 10"/>
<path d=" M 161 473 h 10"/>
</g>
<g class="sequence">
<path d=" M 10 507 a 5 5 0 0 1 5 -5 a 5 5 0 0 1 5 5 a 5 5 0 0 1 -5 5 a 5 5 0 0 1 -5 -5 m 10 0 h 5"/>
<text class="comment" id="TextElements" x="82" y="512">
TextElements</text>
<g class="sequence">
<a class="link" xlink:href="#TEMPLATE_E">
<g class="symbol">
<rect height="22" width="100" x="139" y="496"/>
<text x="189" y="512">
TEMPLATE_E</text>
</g>
</a>
<a class="link" xlink:href="#TEXT_SPACE">
<g class="symbol">
<rect height="22" width="100" x="249" y="496"/>
<text x="299" y="512">
TEXT_SPACE</text>
</g>
</a>
<a class="link" xlink:href="#TEXT_WORD">
<g class="symbol">
<rect height="22" width="92" x="359" y="496"/>
<text x="405" y="512">
TEXT_WORD</text>
</g>
</a>
<path d=" M 239 507 h 10"/>
<path d=" M 349 507 h 10"/>
</g>
<path d=" M 461 507 h 5 a 5 5 0 0 1 5 -5 a 5 5 0 0 1 5 5 a 5 5 0 0 1 -5 5 a 5 5 0 0 1 -5 -5"/>
<path d=" M 25 507 h 10"/>
<path d=" M 129 507 h 10"/>
<path d=" M 451 507 h 10"/>
</g>
<g class="sequence">
<path d=" M 10 541 a 5 5 0 0 1 5 -5 a 5 5 0 0 1 5 5 a 5 5 0 0 1 -5 5 a 5 5 0 0 1 -5 -5 m 10 0 h 5"/>
<text class="comment" id="TEMPLATE_E" x="75" y="546">
TEMPLATE_E</text>
<g class="string">
<rect height="22" rx="10" ry="10" width="44" x="125" y="530"/>
<text x="147" y="546">
&lt;&lt;%</text>
</g>
<path d=" M 179 541 h 5 a 5 5 0 0 1 5 -5 a 5 5 0 0 1 5 5 a 5 5 0 0 1 -5 5 a 5 5 0 0 1 -5 -5"/>
<path d=" M 25 541 h 10"/>
<path d=" M 115 541 h 10"/>
<path d=" M 169 541 h 10"/>
</g>
<g class="sequence">
<path d=" M 10 575 a 5 5 0 0 1 5 -5 a 5 5 0 0 1 5 5 a 5 5 0 0 1 -5 5 a 5 5 0 0 1 -5 -5 m 10 0 h 5"/>
<text class="comment" id="TEXT_SPACE" x="75" y="580">
TEXT_SPACE</text>
<g class="string">
<rect height="22" rx="10" ry="10" width="148" x="125" y="564"/>
<text x="199" y="580">
\p{White_Space}+</text>
</g>
<path d=" M 283 575 h 5 a 5 5 0 0 1 5 -5 a 5 5 0 0 1 5 5 a 5 5 0 0 1 -5 5 a 5 5 0 0 1 -5 -5"/>
<path d=" M 25 575 h 10"/>
<path d=" M 115 575 h 10"/>
<path d=" M 273 575 h 10"/>
</g>
<g class="sequence">
<path d=" M 10 609 a 5 5 0 0 1 5 -5 a 5 5 0 0 1 5 5 a 5 5 0 0 1 -5 5 a 5 5 0 0 1 -5 -5 m 10 0 h 5"/>
<text class="comment" id="TEXT_WORD" x="71" y="614">
TEXT_WORD</text>
<g class="string">
<rect height="22" rx="10" ry="10" width="188" x="118" y="598"/>
<text x="212" y="614">
[^&lt;\p{White_Space}]+</text>
</g>
<path d=" M 316 609 h 5 a 5 5 0 0 1 5 -5 a 5 5 0 0 1 5 5 a 5 5 0 0 1 -5 5 a 5 5 0 0 1 -5 -5"/>
<path d=" M 25 609 h 10"/>
<path d=" M 108 609 h 10"/>
<path d=" M 306 609 h 10"/>
</g>
<g class="sequence">
<path d=" M 10 643 a 5 5 0 0 1 5 -5 a 5 5 0 0 1 5 5 a 5 5 0 0 1 -5 5 a 5 5 0 0 1 -5 -5 m 10 0 h 5"/>
<text class="comment" id="WhiteSpace" x="75" y="648">
WhiteSpace</text>
<g class="string">
<rect height="22" rx="10" ry="10" width="148" x="125" y="632"/>
<text x="199" y="648">
\p{White_Space}+</text>
</g>
<path d=" M 283 643 h 5 a 5 5 0 0 1 5 -5 a 5 5 0 0 1 5 5 a 5 5 0 0 1 -5 5 a 5 5 0 0 1 -5 -5"/>
<path d=" M 25 643 h 10"/>
<path d=" M 115 643 h 10"/>
<path d=" M 273 643 h 10"/>
</g>
</g>
</svg>
