<svg class="railroad" viewBox="0 0 2088 1809" xmlns="http://www.w3.org/2000/svg" xmlns:xlink="http://www.w3.org/1999/xlink">
<style type="text/css">svg.railroad{background-color:hsl(30,20%,95%);background-size:15px 15px;background-image:linear-gradient(to right,rgba(30,30,30,.05) 1px,transparent 1px),linear-gradient(to bottom,rgba(30,30,30,.05) 1px,transparent 1px);}svg.railroad path{stroke-width:3px;stroke:black;fill:transparent;}svg.railroad .debug{stroke-width:1px;stroke:red;}svg.railroad text{font-size:14px;font-family:monospace;text-anchor:middle;}svg.railroad .nonterminal text{font-weight:bold;}svg.railroad text.comment{font-family:serif;font-style:italic;font-size:12px;}svg.railroad rect{stroke-width:3px;stroke:black;}svg.railroad g.labeledbox>rect{stroke-width:1px;stroke:grey;stroke-dasharray:5px;fill:rgba(90,90,150,.1);}svg.railroad .symbol>rect{fill:rgba(90,90,150,.1);}svg.railroad .regex>rect{fill:honeydew;}svg.railroad .string>rect{fill:cornsilk;}svg.railroad .character>rect{fill:lightcoral;}</style>
<g class="verticalgrid">
<g class="sequence">
<path d=" M 10 21 a 5 5 0 0 1 5 -5 a 5 5 0 0 1 5 5 a 5 5 0 0 1 -5 5 a 5 5 0 0 1 -5 -5 m 10 0 h 5"/>
<text class="comment" id="Root" x="54" y="26">
Root</text>
<g class="repeat">
<path d=" M 83 21 h 12 m 76 0 h 12 m -12 0 a 12 12 0 0 1 12 12 v 7 a 12 12 0 0 1 -12 12 m -17 0 h -59 m 32 0 l 5 -5 m 0 10 l -5 -5 m -32 0 a 12 12 0 0 1 -12 -12 v -7 a 12 12 0 0 1 12 -12"/>
<text class="comment" x="162" y="57">
*</text>
<a class="link" xlink:href="#Element">
<g class="symbol">
<rect height="22" width="76" x="95" y="10"/>
<text x="133" y="26">
Element</text>
</g>
</a>
</g>
<path d=" M 193 21 h 5 a 5 5 0 0 1 5 -5 a 5 5 0 0 1 5 5 a 5 5 0 0 1 -5 5 a 5 5 0 0 1 -5 -5"/>
<path d=" M 25 21 h 10"/>
<path d=" M 73 21 h 10"/>
<path d=" M 183 21 h 10"/>
</g>
<g class="sequence">
<path d=" M 10 85 a 5 5 0 0 1 5 -5 a 5 5 0 0 1 5 5 a 5 5 0 0 1 -5 5 a 5 5 0 0 1 -5 -5 m 10 0 h 5"/>
<text class="comment" id="Element" x="64" y="90">
Element</text>
<g class="choice">
<path d=" M 104 85 h 24 m 116 0 h 40"/>
<a class="link" xlink:href="#TextElements">
<g class="symbol">
<rect height="22" width="116" x="128" y="74"/>
<text x="186" y="90">
TextElements</text>
</g>
</a>
<path d=" M 104 85 a 12 12 0 0 1 12 12 v 9 m 156 0 v -9 a 12 12 0 0 1 12 -12"/>
<path d=" M 116 106 v 33 m 156 0 v -33"/>
<path d=" M 116 106 v 0 a 12 12 0 0 0 12 12 m 132 0 h 0 a 12 12 0 0 0 12 -12 v 0"/>
<a class="link" xlink:href="#TemplateExport">
<g class="symbol">
<rect height="22" width="132" x="128" y="107"/>
<text x="194" y="123">
TemplateExport</text>
</g>
</a>
<path d=" M 116 139 v 0 a 12 12 0 0 0 12 12 m 100 0 h 32 a 12 12 0 0 0 12 -12 v 0"/>
<a class="link" xlink:href="#TemplateIf">
<g class="symbol">
<rect height="22" width="100" x="128" y="140"/>
<text x="178" y="156">
TemplateIf</text>
</g>
</a>
</g>
<path d=" M 294 85 h 5 a 5 5 0 0 1 5 -5 a 5 5 0 0 1 5 5 a 5 5 0 0 1 -5 5 a 5 5 0 0 1 -5 -5"/>
<path d=" M 25 85 h 10"/>
<path d=" M 94 85 h 10"/>
<path d=" M 284 85 h 10"/>
</g>
<g class="sequence">
<path d=" M 10 185 a 5 5 0 0 1 5 -5 a 5 5 0 0 1 5 5 a 5 5 0 0 1 -5 5 a 5 5 0 0 1 -5 -5 m 10 0 h 5"/>
<text class="comment" id="TextElements" x="82" y="190">
TextElements</text>
<g class="choice">
<path d=" M 139 185 h 24 m 100 0 h 24"/>
<a class="link" xlink:href="#TEMPLATE_E">
<g class="symbol">
<rect height="22" width="100" x="163" y="174"/>
<text x="213" y="190">
TEMPLATE_E</text>
</g>
</a>
<path d=" M 139 185 a 12 12 0 0 1 12 12 v 9 m 124 0 v -9 a 12 12 0 0 1 12 -12"/>
<path d=" M 151 206 v 33 m 124 0 v -33"/>
<path d=" M 151 206 v 0 a 12 12 0 0 0 12 12 m 100 0 h 0 a 12 12 0 0 0 12 -12 v 0"/>
<a class="link" xlink:href="#TEXT_SPACE">
<g class="symbol">
<rect height="22" width="100" x="163" y="207"/>
<text x="213" y="223">
TEXT_SPACE</text>
</g>
</a>
<path d=" M 151 239 v 0 a 12 12 0 0 0 12 12 m 92 0 h 8 a 12 12 0 0 0 12 -12 v 0"/>
<a class="link" xlink:href="#TEXT_WORD">
<g class="symbol">
<rect height="22" width="92" x="163" y="240"/>
<text x="209" y="256">
TEXT_WORD</text>
</g>
</a>
</g>
<path d=" M 297 185 h 5 a 5 5 0 0 1 5 -5 a 5 5 0 0 1 5 5 a 5 5 0 0 1 -5 5 a 5 5 0 0 1 -5 -5"/>
<path d=" M 25 185 h 10"/>
<path d=" M 129 185 h 10"/>
<path d=" M 287 185 h 10"/>
</g>
<g class="sequence">
<path d=" M 10 285 a 5 5 0 0 1 5 -5 a 5 5 0 0 1 5 5 a 5 5 0 0 1 -5 5 a 5 5 0 0 1 -5 -5 m 10 0 h 5"/>
<text class="comment" id="TEMPLATE_E" x="75" y="290">
TEMPLATE_E</text>
<g class="string">
<rect height="22" rx="10" ry="10" width="44" x="125" y="274"/>
<text x="147" y="290">
&lt;&lt;%</text>
</g>
<path d=" M 179 285 h 5 a 5 5 0 0 1 5 -5 a 5 5 0 0 1 5 5 a 5 5 0 0 1 -5 5 a 5 5 0 0 1 -5 -5"/>
<path d=" M 25 285 h 10"/>
<path d=" M 115 285 h 10"/>
<path d=" M 169 285 h 10"/>
</g>
<g class="sequence">
<path d=" M 10 319 a 5 5 0 0 1 5 -5 a 5 5 0 0 1 5 5 a 5 5 0 0 1 -5 5 a 5 5 0 0 1 -5 -5 m 10 0 h 5"/>
<text class="comment" id="TEXT_SPACE" x="75" y="324">
TEXT_SPACE</text>
<g class="string">
<rect height="22" rx="10" ry="10" width="148" x="125" y="308"/>
<text x="199" y="324">
\p{White_Space}+</text>
</g>
<path d=" M 283 319 h 5 a 5 5 0 0 1 5 -5 a 5 5 0 0 1 5 5 a 5 5 0 0 1 -5 5 a 5 5 0 0 1 -5 -5"/>
<path d=" M 25 319 h 10"/>
<path d=" M 115 319 h 10"/>
<path d=" M 273 319 h 10"/>
</g>
<g class="sequence">
<path d=" M 10 353 a 5 5 0 0 1 5 -5 a 5 5 0 0 1 5 5 a 5 5 0 0 1 -5 5 a 5 5 0 0 1 -5 -5 m 10 0 h 5"/>
<text class="comment" id="TEXT_WORD" x="71" y="358">
TEXT_WORD</text>
<g class="string">
<rect height="22" rx="10" ry="10" width="188" x="118" y="342"/>
<text x="212" y="358">
[^&lt;\p{White_Space}]+</text>
</g>
<path d=" M 316 353 h 5 a 5 5 0 0 1 5 -5 a 5 5 0 0 1 5 5 a 5 5 0 0 1 -5 5 a 5 5 0 0 1 -5 -5"/>
<path d=" M 25 353 h 10"/>
<path d=" M 108 353 h 10"/>
<path d=" M 306 353 h 10"/>
</g>
<g class="sequence">
<path d=" M 10 400 a 5 5 0 0 1 5 -5 a 5 5 0 0 1 5 5 a 5 5 0 0 1 -5 5 a 5 5 0 0 1 -5 -5 m 10 0 h 5"/>
<text class="comment" id="TEMPLATE_L" x="75" y="405">
TEMPLATE_L</text>
<g class="sequence">
<g class="string">
<rect height="22" rx="10" ry="10" width="36" x="125" y="389"/>
<text x="143" y="405">
&lt;%</text>
</g>
<g class="optional">
<path d=" M 171 400 h 24 m -24 0 a 12 12 0 0 0 12 -12 v 0 a 12 12 0 0 1 12 -12 h 124 m -59 0 l -5 -5 m 0 10 l 5 -5 m 59 0 a 12 12 0 0 1 12 12 v 0 a 12 12 0 0 0 12 12 h -24"/>
<a class="link" xlink:href="#SPACE_CONTROL">
<g class="symbol">
<rect height="22" width="124" x="195" y="389"/>
<text x="257" y="405">
SPACE_CONTROL</text>
</g>
</a>
</g>
<path d=" M 161 400 h 10"/>
</g>
<path d=" M 353 400 h 5 a 5 5 0 0 1 5 -5 a 5 5 0 0 1 5 5 a 5 5 0 0 1 -5 5 a 5 5 0 0 1 -5 -5"/>
<path d=" M 25 400 h 10"/>
<path d=" M 115 400 h 10"/>
<path d=" M 343 400 h 10"/>
</g>
<g class="sequence">
<path d=" M 10 447 a 5 5 0 0 1 5 -5 a 5 5 0 0 1 5 5 a 5 5 0 0 1 -5 5 a 5 5 0 0 1 -5 -5 m 10 0 h 5"/>
<text class="comment" id="TEMPLATE_R" x="75" y="452">
TEMPLATE_R</text>
<g class="sequence">
<g class="optional">
<path d=" M 125 447 h 24 m -24 0 a 12 12 0 0 0 12 -12 v 0 a 12 12 0 0 1 12 -12 h 124 m -59 0 l -5 -5 m 0 10 l 5 -5 m 59 0 a 12 12 0 0 1 12 12 v 0 a 12 12 0 0 0 12 12 h -24"/>
<a class="link" xlink:href="#SPACE_CONTROL">
<g class="symbol">
<rect height="22" width="124" x="149" y="436"/>
<text x="211" y="452">
SPACE_CONTROL</text>
</g>
</a>
</g>
<g class="string">
<rect height="22" rx="10" ry="10" width="36" x="307" y="436"/>
<text x="325" y="452">
%&gt;</text>
</g>
<path d=" M 297 447 h 10"/>
</g>
<path d=" M 353 447 h 5 a 5 5 0 0 1 5 -5 a 5 5 0 0 1 5 5 a 5 5 0 0 1 -5 5 a 5 5 0 0 1 -5 -5"/>
<path d=" M 25 447 h 10"/>
<path d=" M 115 447 h 10"/>
<path d=" M 343 447 h 10"/>
</g>
<g class="sequence">
<path d=" M 10 481 a 5 5 0 0 1 5 -5 a 5 5 0 0 1 5 5 a 5 5 0 0 1 -5 5 a 5 5 0 0 1 -5 -5 m 10 0 h 5"/>
<text class="comment" id="SPACE_CONTROL" x="85" y="486">
SPACE_CONTROL</text>
<g class="choice">
<path d=" M 146 481 h 24 m 28 0 h 24"/>
<g class="string">
<rect height="22" rx="10" ry="10" width="28" x="170" y="470"/>
<text x="184" y="486">
_</text>
</g>
<path d=" M 146 481 a 12 12 0 0 1 12 12 v 9 m 52 0 v -9 a 12 12 0 0 1 12 -12"/>
<path d=" M 158 502 v 33 m 52 0 v -33"/>
<path d=" M 158 535 v 33 m 52 0 v -33"/>
<path d=" M 158 502 v 0 a 12 12 0 0 0 12 12 m 28 0 h 0 a 12 12 0 0 0 12 -12 v 0"/>
<g class="string">
<rect height="22" rx="10" ry="10" width="28" x="170" y="503"/>
<text x="184" y="519">
-</text>
</g>
<path d=" M 158 535 v 0 a 12 12 0 0 0 12 12 m 28 0 h 0 a 12 12 0 0 0 12 -12 v 0"/>
<g class="string">
<rect height="22" rx="10" ry="10" width="28" x="170" y="536"/>
<text x="184" y="552">
~</text>
</g>
<path d=" M 158 568 v 0 a 12 12 0 0 0 12 12 m 28 0 h 0 a 12 12 0 0 0 12 -12 v 0"/>
<g class="string">
<rect height="22" rx="10" ry="10" width="28" x="170" y="569"/>
<text x="184" y="585">
=</text>
</g>
</g>
<path d=" M 232 481 h 5 a 5 5 0 0 1 5 -5 a 5 5 0 0 1 5 5 a 5 5 0 0 1 -5 5 a 5 5 0 0 1 -5 -5"/>
<path d=" M 25 481 h 10"/>
<path d=" M 136 481 h 10"/>
<path d=" M 222 481 h 10"/>
</g>
<g class="sequence">
<path d=" M 10 614 a 5 5 0 0 1 5 -5 a 5 5 0 0 1 5 5 a 5 5 0 0 1 -5 5 a 5 5 0 0 1 -5 -5 m 10 0 h 5"/>
<text class="comment" id="KW_END" x="61" y="619">
KW_END</text>
<g class="string">
<rect height="22" rx="10" ry="10" width="44" x="97" y="603"/>
<text x="119" y="619">
end</text>
</g>
<path d=" M 151 614 h 5 a 5 5 0 0 1 5 -5 a 5 5 0 0 1 5 5 a 5 5 0 0 1 -5 5 a 5 5 0 0 1 -5 -5"/>
<path d=" M 25 614 h 10"/>
<path d=" M 87 614 h 10"/>
<path d=" M 141 614 h 10"/>
</g>
<g class="sequence">
<path d=" M 10 648 a 5 5 0 0 1 5 -5 a 5 5 0 0 1 5 5 a 5 5 0 0 1 -5 5 a 5 5 0 0 1 -5 -5 m 10 0 h 5"/>
<text class="comment" id="TemplateExport" x="89" y="653">
TemplateExport</text>
<g class="sequence">
<a class="link" xlink:href="#TEMPLATE_L">
<g class="symbol">
<rect height="22" width="100" x="153" y="637"/>
<text x="203" y="653">
TEMPLATE_L</text>
</g>
</a>
<g class="character">
<rect height="22" rx="10" ry="10" width="76" x="263" y="637"/>
<text x="301" y="653">
IGNORED</text>
</g>
<g class="sequence">
<g class="repeat">
<path d=" M 349 648 h 12 m 100 0 h 12 m -12 0 a 12 12 0 0 1 12 12 v 7 a 12 12 0 0 1 -12 12 m -17 0 h -83 m 44 0 l 5 -5 m 0 10 l -5 -5 m -44 0 a 12 12 0 0 1 -12 -12 v -7 a 12 12 0 0 1 12 -12"/>
<text class="comment" x="452" y="684">
*</text>
<a class="link" xlink:href="#ExportItem">
<g class="symbol">
<rect height="22" width="100" x="361" y="637"/>
<text x="411" y="653">
ExportItem</text>
</g>
</a>
</g>
<g class="character">
<rect height="22" rx="10" ry="10" width="76" x="483" y="637"/>
<text x="521" y="653">
IGNORED</text>
</g>
<a class="link" xlink:href="#TEMPLATE_R">
<g class="symbol">
<rect height="22" width="100" x="569" y="637"/>
<text x="619" y="653">
TEMPLATE_R</text>
</g>
</a>
<path d=" M 473 648 h 10"/>
<path d=" M 559 648 h 10"/>
</g>
<path d=" M 253 648 h 10"/>
<path d=" M 339 648 h 10"/>
</g>
<path d=" M 679 648 h 5 a 5 5 0 0 1 5 -5 a 5 5 0 0 1 5 5 a 5 5 0 0 1 -5 5 a 5 5 0 0 1 -5 -5"/>
<path d=" M 25 648 h 10"/>
<path d=" M 143 648 h 10"/>
<path d=" M 669 648 h 10"/>
</g>
<g class="sequence">
<path d=" M 10 737 a 5 5 0 0 1 5 -5 a 5 5 0 0 1 5 5 a 5 5 0 0 1 -5 5 a 5 5 0 0 1 -5 -5 m 10 0 h 5"/>
<text class="comment" id="ExportItem" x="75" y="742">
ExportItem</text>
<g class="sequence">
<a class="link" xlink:href="#KW_EXPORT">
<g class="symbol">
<rect height="22" width="92" x="125" y="726"/>
<text x="171" y="742">
KW_EXPORT</text>
</g>
</a>
<g class="character">
<rect height="22" rx="10" ry="10" width="76" x="227" y="726"/>
<text x="265" y="742">
IGNORED</text>
</g>
<g class="sequence">
<a class="link" xlink:href="#Identifier">
<g class="symbol">
<rect height="22" width="100" x="313" y="726"/>
<text x="363" y="742">
Identifier</text>
</g>
</a>
<g class="character">
<rect height="22" rx="10" ry="10" width="76" x="423" y="726"/>
<text x="461" y="742">
IGNORED</text>
</g>
<g class="optional">
<path d=" M 509 737 h 24 m -24 0 a 12 12 0 0 0 12 -12 v 0 a 12 12 0 0 1 12 -12 h 256 m -125 0 l -5 -5 m 0 10 l 5 -5 m 125 0 a 12 12 0 0 1 12 12 v 0 a 12 12 0 0 0 12 12 h -24"/>
<g class="sequence">
<a class="link" xlink:href="#KW_TO">
<g class="symbol">
<rect height="22" width="60" x="533" y="726"/>
<text x="563" y="742">
KW_TO</text>
</g>
</a>
<g class="character">
<rect height="22" rx="10" ry="10" width="76" x="603" y="726"/>
<text x="641" y="742">
IGNORED</text>
</g>
<a class="link" xlink:href="#Identifier">
<g class="symbol">
<rect height="22" width="100" x="689" y="726"/>
<text x="739" y="742">
Identifier</text>
</g>
</a>
<path d=" M 593 737 h 10"/>
<path d=" M 679 737 h 10"/>
</g>
</g>
<g class="character">
<rect height="22" rx="10" ry="10" width="76" x="823" y="726"/>
<text x="861" y="742">
IGNORED</text>
</g>
<g class="optional">
<path d=" M 909 737 h 24 m -24 0 a 12 12 0 0 0 12 -12 v 0 a 12 12 0 0 1 12 -12 h 452 m -223 0 l -5 -5 m 0 10 l 5 -5 m 223 0 a 12 12 0 0 1 12 12 v 0 a 12 12 0 0 0 12 12 h -24"/>
<g class="sequence">
<g class="sequence">
<a class="link" xlink:href="#KW_BY">
<g class="symbol">
<rect height="22" width="60" x="933" y="726"/>
<text x="963" y="742">
KW_BY</text>
</g>
</a>
<g class="character">
<rect height="22" rx="10" ry="10" width="76" x="1003" y="726"/>
<text x="1041" y="742">
IGNORED</text>
</g>
<a class="link" xlink:href="#KW_CLASS">
<g class="symbol">
<rect height="22" width="84" x="1089" y="726"/>
<text x="1131" y="742">
KW_CLASS</text>
</g>
</a>
<path d=" M 993 737 h 10"/>
<path d=" M 1079 737 h 10"/>
</g>
<g class="character">
<rect height="22" rx="10" ry="10" width="76" x="1183" y="726"/>
<text x="1221" y="742">
IGNORED</text>
</g>
<a class="link" xlink:href="#NamepathFree">
<g class="symbol">
<rect height="22" width="116" x="1269" y="726"/>
<text x="1327" y="742">
NamepathFree</text>
</g>
</a>
<path d=" M 1173 737 h 10"/>
<path d=" M 1259 737 h 10"/>
</g>
</g>
<g class="character">
<rect height="22" rx="10" ry="10" width="76" x="1419" y="726"/>
<text x="1457" y="742">
IGNORED</text>
</g>
<g class="optional">
<path d=" M 1505 737 h 24 m -24 0 a 12 12 0 0 0 12 -12 v -12 a 12 12 0 0 1 12 -12 h 500 m -247 0 l -5 -5 m 0 10 l 5 -5 m 247 0 a 12 12 0 0 1 12 12 v 12 a 12 12 0 0 0 12 12 h -24"/>
<g class="sequence">
<g class="sequence">
<a class="link" xlink:href="#KW_BY">
<g class="symbol">
<rect height="22" width="60" x="1529" y="726"/>
<text x="1559" y="742">
KW_BY</text>
</g>
</a>
<g class="character">
<rect height="22" rx="10" ry="10" width="76" x="1599" y="726"/>
<text x="1637" y="742">
IGNORED</text>
</g>
<a class="link" xlink:href="#KW_TRAIT">
<g class="symbol">
<rect height="22" width="84" x="1685" y="726"/>
<text x="1727" y="742">
KW_TRAIT</text>
</g>
</a>
<path d=" M 1589 737 h 10"/>
<path d=" M 1675 737 h 10"/>
</g>
<g class="character">
<rect height="22" rx="10" ry="10" width="76" x="1779" y="726"/>
<text x="1817" y="742">
IGNORED</text>
</g>
<g class="optional">
<path d=" M 1865 737 h 24 m -24 0 a 12 12 0 0 0 12 -12 v 0 a 12 12 0 0 1 12 -12 h 116 m -55 0 l -5 -5 m 0 10 l 5 -5 m 55 0 a 12 12 0 0 1 12 12 v 0 a 12 12 0 0 0 12 12 h -24"/>
<a class="link" xlink:href="#NamepathFree">
<g class="symbol">
<rect height="22" width="116" x="1889" y="726"/>
<text x="1947" y="742">
NamepathFree</text>
</g>
</a>
</g>
<path d=" M 1769 737 h 10"/>
<path d=" M 1855 737 h 10"/>
</g>
</g>
<path d=" M 413 737 h 10"/>
<path d=" M 499 737 h 10"/>
<path d=" M 813 737 h 10"/>
<path d=" M 899 737 h 10"/>
<path d=" M 1409 737 h 10"/>
<path d=" M 1495 737 h 10"/>
</g>
<path d=" M 217 737 h 10"/>
<path d=" M 303 737 h 10"/>
</g>
<path d=" M 2063 737 h 5 a 5 5 0 0 1 5 -5 a 5 5 0 0 1 5 5 a 5 5 0 0 1 -5 5 a 5 5 0 0 1 -5 -5"/>
<path d=" M 25 737 h 10"/>
<path d=" M 115 737 h 10"/>
<path d=" M 2053 737 h 10"/>
</g>
<g class="sequence">
<path d=" M 10 771 a 5 5 0 0 1 5 -5 a 5 5 0 0 1 5 5 a 5 5 0 0 1 -5 5 a 5 5 0 0 1 -5 -5 m 10 0 h 5"/>
<text class="comment" id="KW_EXPORT" x="71" y="776">
KW_EXPORT</text>
<g class="string">
<rect height="22" rx="10" ry="10" width="68" x="118" y="760"/>
<text x="152" y="776">
export</text>
</g>
<path d=" M 196 771 h 5 a 5 5 0 0 1 5 -5 a 5 5 0 0 1 5 5 a 5 5 0 0 1 -5 5 a 5 5 0 0 1 -5 -5"/>
<path d=" M 25 771 h 10"/>
<path d=" M 108 771 h 10"/>
<path d=" M 186 771 h 10"/>
</g>
<g class="sequence">
<path d=" M 10 805 a 5 5 0 0 1 5 -5 a 5 5 0 0 1 5 5 a 5 5 0 0 1 -5 5 a 5 5 0 0 1 -5 -5 m 10 0 h 5"/>
<text class="comment" id="KW_CLASS" x="68" y="810">
KW_CLASS</text>
<g class="string">
<rect height="22" rx="10" ry="10" width="60" x="111" y="794"/>
<text x="141" y="810">
class</text>
</g>
<path d=" M 181 805 h 5 a 5 5 0 0 1 5 -5 a 5 5 0 0 1 5 5 a 5 5 0 0 1 -5 5 a 5 5 0 0 1 -5 -5"/>
<path d=" M 25 805 h 10"/>
<path d=" M 101 805 h 10"/>
<path d=" M 171 805 h 10"/>
</g>
<g class="sequence">
<path d=" M 10 839 a 5 5 0 0 1 5 -5 a 5 5 0 0 1 5 5 a 5 5 0 0 1 -5 5 a 5 5 0 0 1 -5 -5 m 10 0 h 5"/>
<text class="comment" id="KW_TRAIT" x="68" y="844">
KW_TRAIT</text>
<g class="string">
<rect height="22" rx="10" ry="10" width="60" x="111" y="828"/>
<text x="141" y="844">
trait</text>
</g>
<path d=" M 181 839 h 5 a 5 5 0 0 1 5 -5 a 5 5 0 0 1 5 5 a 5 5 0 0 1 -5 5 a 5 5 0 0 1 -5 -5"/>
<path d=" M 25 839 h 10"/>
<path d=" M 101 839 h 10"/>
<path d=" M 171 839 h 10"/>
</g>
<g class="sequence">
<path d=" M 10 873 a 5 5 0 0 1 5 -5 a 5 5 0 0 1 5 5 a 5 5 0 0 1 -5 5 a 5 5 0 0 1 -5 -5 m 10 0 h 5"/>
<text class="comment" id="KW_TO" x="57" y="878">
KW_TO</text>
<g class="string">
<rect height="22" rx="10" ry="10" width="36" x="90" y="862"/>
<text x="108" y="878">
to</text>
</g>
<path d=" M 136 873 h 5 a 5 5 0 0 1 5 -5 a 5 5 0 0 1 5 5 a 5 5 0 0 1 -5 5 a 5 5 0 0 1 -5 -5"/>
<path d=" M 25 873 h 10"/>
<path d=" M 80 873 h 10"/>
<path d=" M 126 873 h 10"/>
</g>
<g class="sequence">
<path d=" M 10 907 a 5 5 0 0 1 5 -5 a 5 5 0 0 1 5 5 a 5 5 0 0 1 -5 5 a 5 5 0 0 1 -5 -5 m 10 0 h 5"/>
<text class="comment" id="KW_BY" x="57" y="912">
KW_BY</text>
<g class="string">
<rect height="22" rx="10" ry="10" width="36" x="90" y="896"/>
<text x="108" y="912">
by</text>
</g>
<path d=" M 136 907 h 5 a 5 5 0 0 1 5 -5 a 5 5 0 0 1 5 5 a 5 5 0 0 1 -5 5 a 5 5 0 0 1 -5 -5"/>
<path d=" M 25 907 h 10"/>
<path d=" M 80 907 h 10"/>
<path d=" M 126 907 h 10"/>
</g>
<g class="sequence">
<path d=" M 10 954 a 5 5 0 0 1 5 -5 a 5 5 0 0 1 5 5 a 5 5 0 0 1 -5 5 a 5 5 0 0 1 -5 -5 m 10 0 h 5"/>
<text class="comment" id="TemplateIf" x="75" y="959">
TemplateIf</text>
<g class="sequence">
<a class="link" xlink:href="#IfBegin">
<g class="symbol">
<rect height="22" width="76" x="125" y="943"/>
<text x="163" y="959">
IfBegin</text>
</g>
</a>
<g class="repeat">
<path d=" M 211 954 h 12 m 84 0 h 12 m -12 0 a 12 12 0 0 1 12 12 v 7 a 12 12 0 0 1 -12 12 m -17 0 h -67 m 36 0 l 5 -5 m 0 10 l -5 -5 m -36 0 a 12 12 0 0 1 -12 -12 v -7 a 12 12 0 0 1 12 -12"/>
<text class="comment" x="298" y="990">
*</text>
<a class="link" xlink:href="#IfElseIf">
<g class="symbol">
<rect height="22" width="84" x="223" y="943"/>
<text x="265" y="959">
IfElseIf</text>
</g>
</a>
</g>
<g class="optional">
<path d=" M 329 954 h 24 m -24 0 a 12 12 0 0 0 12 -12 v 0 a 12 12 0 0 1 12 -12 h 68 m -31 0 l -5 -5 m 0 10 l 5 -5 m 31 0 a 12 12 0 0 1 12 12 v 0 a 12 12 0 0 0 12 12 h -24"/>
<a class="link" xlink:href="#IfElse">
<g class="symbol">
<rect height="22" width="68" x="353" y="943"/>
<text x="387" y="959">
IfElse</text>
</g>
</a>
</g>
<a class="link" xlink:href="#IfEnd">
<g class="symbol">
<rect height="22" width="60" x="455" y="943"/>
<text x="485" y="959">
IfEnd</text>
</g>
</a>
<path d=" M 201 954 h 10"/>
<path d=" M 319 954 h 10"/>
<path d=" M 445 954 h 10"/>
</g>
<path d=" M 525 954 h 5 a 5 5 0 0 1 5 -5 a 5 5 0 0 1 5 5 a 5 5 0 0 1 -5 5 a 5 5 0 0 1 -5 -5"/>
<path d=" M 25 954 h 10"/>
<path d=" M 115 954 h 10"/>
<path d=" M 515 954 h 10"/>
</g>
<g class="sequence">
<path d=" M 10 1018 a 5 5 0 0 1 5 -5 a 5 5 0 0 1 5 5 a 5 5 0 0 1 -5 5 a 5 5 0 0 1 -5 -5 m 10 0 h 5"/>
<text class="comment" id="IfBegin" x="64" y="1023">
IfBegin</text>
<g class="sequence">
<g class="sequence">
<a class="link" xlink:href="#TEMPLATE_L">
<g class="symbol">
<rect height="22" width="100" x="104" y="1007"/>
<text x="154" y="1023">
TEMPLATE_L</text>
</g>
</a>
<g class="character">
<rect height="22" rx="10" ry="10" width="76" x="214" y="1007"/>
<text x="252" y="1023">
IGNORED</text>
</g>
<a class="link" xlink:href="#KW_IF">
<g class="symbol">
<rect height="22" width="60" x="300" y="1007"/>
<text x="330" y="1023">
KW_IF</text>
</g>
</a>
<path d=" M 204 1018 h 10"/>
<path d=" M 290 1018 h 10"/>
</g>
<g class="character">
<rect height="22" rx="10" ry="10" width="76" x="370" y="1007"/>
<text x="408" y="1023">
IGNORED</text>
</g>
<g class="sequence">
<g class="sequence">
<a class="link" xlink:href="#Atomic">
<g class="symbol">
<rect height="22" width="68" x="456" y="1007"/>
<text x="490" y="1023">
Atomic</text>
</g>
</a>
<g class="character">
<rect height="22" rx="10" ry="10" width="76" x="534" y="1007"/>
<text x="572" y="1023">
IGNORED</text>
</g>
<a class="link" xlink:href="#TEMPLATE_R">
<g class="symbol">
<rect height="22" width="100" x="620" y="1007"/>
<text x="670" y="1023">
TEMPLATE_R</text>
</g>
</a>
<path d=" M 524 1018 h 10"/>
<path d=" M 610 1018 h 10"/>
</g>
<g class="repeat">
<path d=" M 730 1018 h 12 m 116 0 h 12 m -12 0 a 12 12 0 0 1 12 12 v 7 a 12 12 0 0 1 -12 12 m -17 0 h -99 m 52 0 l 5 -5 m 0 10 l -5 -5 m -52 0 a 12 12 0 0 1 -12 -12 v -7 a 12 12 0 0 1 12 -12"/>
<text class="comment" x="849" y="1054">
*</text>
<a class="link" xlink:href="#TextElements">
<g class="symbol">
<rect height="22" width="116" x="742" y="1007"/>
<text x="800" y="1023">
TextElements</text>
</g>
</a>
</g>
<path d=" M 720 1018 h 10"/>
</g>
<path d=" M 360 1018 h 10"/>
<path d=" M 446 1018 h 10"/>
</g>
<path d=" M 880 1018 h 5 a 5 5 0 0 1 5 -5 a 5 5 0 0 1 5 5 a 5 5 0 0 1 -5 5 a 5 5 0 0 1 -5 -5"/>
<path d=" M 25 1018 h 10"/>
<path d=" M 94 1018 h 10"/>
<path d=" M 870 1018 h 10"/>
</g>
<g class="sequence">
<path d=" M 10 1082 a 5 5 0 0 1 5 -5 a 5 5 0 0 1 5 5 a 5 5 0 0 1 -5 5 a 5 5 0 0 1 -5 -5 m 10 0 h 5"/>
<text class="comment" id="IfElse" x="61" y="1087">
IfElse</text>
<g class="sequence">
<g class="sequence">
<a class="link" xlink:href="#TEMPLATE_L">
<g class="symbol">
<rect height="22" width="100" x="97" y="1071"/>
<text x="147" y="1087">
TEMPLATE_L</text>
</g>
</a>
<g class="character">
<rect height="22" rx="10" ry="10" width="76" x="207" y="1071"/>
<text x="245" y="1087">
IGNORED</text>
</g>
<a class="link" xlink:href="#KW_ELSE">
<g class="symbol">
<rect height="22" width="76" x="293" y="1071"/>
<text x="331" y="1087">
KW_ELSE</text>
</g>
</a>
<g class="character">
<rect height="22" rx="10" ry="10" width="76" x="379" y="1071"/>
<text x="417" y="1087">
IGNORED</text>
</g>
<a class="link" xlink:href="#TEMPLATE_R">
<g class="symbol">
<rect height="22" width="100" x="465" y="1071"/>
<text x="515" y="1087">
TEMPLATE_R</text>
</g>
</a>
<path d=" M 197 1082 h 10"/>
<path d=" M 283 1082 h 10"/>
<path d=" M 369 1082 h 10"/>
<path d=" M 455 1082 h 10"/>
</g>
<g class="repeat">
<path d=" M 575 1082 h 12 m 116 0 h 12 m -12 0 a 12 12 0 0 1 12 12 v 7 a 12 12 0 0 1 -12 12 m -17 0 h -99 m 52 0 l 5 -5 m 0 10 l -5 -5 m -52 0 a 12 12 0 0 1 -12 -12 v -7 a 12 12 0 0 1 12 -12"/>
<text class="comment" x="694" y="1118">
*</text>
<a class="link" xlink:href="#TextElements">
<g class="symbol">
<rect height="22" width="116" x="587" y="1071"/>
<text x="645" y="1087">
TextElements</text>
</g>
</a>
</g>
<path d=" M 565 1082 h 10"/>
</g>
<path d=" M 725 1082 h 5 a 5 5 0 0 1 5 -5 a 5 5 0 0 1 5 5 a 5 5 0 0 1 -5 5 a 5 5 0 0 1 -5 -5"/>
<path d=" M 25 1082 h 10"/>
<path d=" M 87 1082 h 10"/>
<path d=" M 715 1082 h 10"/>
</g>
<g class="sequence">
<path d=" M 10 1146 a 5 5 0 0 1 5 -5 a 5 5 0 0 1 5 5 a 5 5 0 0 1 -5 5 a 5 5 0 0 1 -5 -5 m 10 0 h 5"/>
<text class="comment" id="IfElseIf" x="68" y="1151">
IfElseIf</text>
<g class="sequence">
<g class="sequence">
<a class="link" xlink:href="#TEMPLATE_L">
<g class="symbol">
<rect height="22" width="100" x="111" y="1135"/>
<text x="161" y="1151">
TEMPLATE_L</text>
</g>
</a>
<g class="character">
<rect height="22" rx="10" ry="10" width="76" x="221" y="1135"/>
<text x="259" y="1151">
IGNORED</text>
</g>
<a class="link" xlink:href="#KW_ELSE">
<g class="symbol">
<rect height="22" width="76" x="307" y="1135"/>
<text x="345" y="1151">
KW_ELSE</text>
</g>
</a>
<g class="character">
<rect height="22" rx="10" ry="10" width="76" x="393" y="1135"/>
<text x="431" y="1151">
IGNORED</text>
</g>
<a class="link" xlink:href="#KW_IF">
<g class="symbol">
<rect height="22" width="60" x="479" y="1135"/>
<text x="509" y="1151">
KW_IF</text>
</g>
</a>
<g class="character">
<rect height="22" rx="10" ry="10" width="76" x="549" y="1135"/>
<text x="587" y="1151">
IGNORED</text>
</g>
<a class="link" xlink:href="#TEMPLATE_R">
<g class="symbol">
<rect height="22" width="100" x="635" y="1135"/>
<text x="685" y="1151">
TEMPLATE_R</text>
</g>
</a>
<path d=" M 211 1146 h 10"/>
<path d=" M 297 1146 h 10"/>
<path d=" M 383 1146 h 10"/>
<path d=" M 469 1146 h 10"/>
<path d=" M 539 1146 h 10"/>
<path d=" M 625 1146 h 10"/>
</g>
<g class="repeat">
<path d=" M 745 1146 h 12 m 116 0 h 12 m -12 0 a 12 12 0 0 1 12 12 v 7 a 12 12 0 0 1 -12 12 m -17 0 h -99 m 52 0 l 5 -5 m 0 10 l -5 -5 m -52 0 a 12 12 0 0 1 -12 -12 v -7 a 12 12 0 0 1 12 -12"/>
<text class="comment" x="864" y="1182">
*</text>
<a class="link" xlink:href="#TextElements">
<g class="symbol">
<rect height="22" width="116" x="757" y="1135"/>
<text x="815" y="1151">
TextElements</text>
</g>
</a>
</g>
<path d=" M 735 1146 h 10"/>
</g>
<path d=" M 895 1146 h 5 a 5 5 0 0 1 5 -5 a 5 5 0 0 1 5 5 a 5 5 0 0 1 -5 5 a 5 5 0 0 1 -5 -5"/>
<path d=" M 25 1146 h 10"/>
<path d=" M 101 1146 h 10"/>
<path d=" M 885 1146 h 10"/>
</g>
<g class="sequence">
<path d=" M 10 1223 a 5 5 0 0 1 5 -5 a 5 5 0 0 1 5 5 a 5 5 0 0 1 -5 5 a 5 5 0 0 1 -5 -5 m 10 0 h 5"/>
<text class="comment" id="IfEnd" x="57" y="1228">
IfEnd</text>
<g class="sequence">
<a class="link" xlink:href="#TEMPLATE_L">
<g class="symbol">
<rect height="22" width="100" x="90" y="1212"/>
<text x="140" y="1228">
TEMPLATE_L</text>
</g>
</a>
<g class="character">
<rect height="22" rx="10" ry="10" width="76" x="200" y="1212"/>
<text x="238" y="1228">
IGNORED</text>
</g>
<a class="link" xlink:href="#KW_END">
<g class="symbol">
<rect height="22" width="68" x="286" y="1212"/>
<text x="320" y="1228">
KW_END</text>
</g>
</a>
<g class="character">
<rect height="22" rx="10" ry="10" width="76" x="364" y="1212"/>
<text x="402" y="1228">
IGNORED</text>
</g>
<g class="optional">
<path d=" M 450 1223 h 24 m -24 0 a 12 12 0 0 0 12 -12 v 0 a 12 12 0 0 1 12 -12 h 60 m -27 0 l -5 -5 m 0 10 l 5 -5 m 27 0 a 12 12 0 0 1 12 12 v 0 a 12 12 0 0 0 12 12 h -24"/>
<a class="link" xlink:href="#KW_IF">
<g class="symbol">
<rect height="22" width="60" x="474" y="1212"/>
<text x="504" y="1228">
KW_IF</text>
</g>
</a>
</g>
<g class="character">
<rect height="22" rx="10" ry="10" width="76" x="568" y="1212"/>
<text x="606" y="1228">
IGNORED</text>
</g>
<a class="link" xlink:href="#TEMPLATE_R">
<g class="symbol">
<rect height="22" width="100" x="654" y="1212"/>
<text x="704" y="1228">
TEMPLATE_R</text>
</g>
</a>
<path d=" M 190 1223 h 10"/>
<path d=" M 276 1223 h 10"/>
<path d=" M 354 1223 h 10"/>
<path d=" M 440 1223 h 10"/>
<path d=" M 558 1223 h 10"/>
<path d=" M 644 1223 h 10"/>
</g>
<path d=" M 764 1223 h 5 a 5 5 0 0 1 5 -5 a 5 5 0 0 1 5 5 a 5 5 0 0 1 -5 5 a 5 5 0 0 1 -5 -5"/>
<path d=" M 25 1223 h 10"/>
<path d=" M 80 1223 h 10"/>
<path d=" M 754 1223 h 10"/>
</g>
<g class="sequence">
<path d=" M 10 1257 a 5 5 0 0 1 5 -5 a 5 5 0 0 1 5 5 a 5 5 0 0 1 -5 5 a 5 5 0 0 1 -5 -5 m 10 0 h 5"/>
<text class="comment" id="KW_IF" x="57" y="1262">
KW_IF</text>
<g class="string">
<rect height="22" rx="10" ry="10" width="36" x="90" y="1246"/>
<text x="108" y="1262">
if</text>
</g>
<path d=" M 136 1257 h 5 a 5 5 0 0 1 5 -5 a 5 5 0 0 1 5 5 a 5 5 0 0 1 -5 5 a 5 5 0 0 1 -5 -5"/>
<path d=" M 25 1257 h 10"/>
<path d=" M 80 1257 h 10"/>
<path d=" M 126 1257 h 10"/>
</g>
<g class="sequence">
<path d=" M 10 1291 a 5 5 0 0 1 5 -5 a 5 5 0 0 1 5 5 a 5 5 0 0 1 -5 5 a 5 5 0 0 1 -5 -5 m 10 0 h 5"/>
<text class="comment" id="KW_ELSE" x="64" y="1296">
KW_ELSE</text>
<g class="string">
<rect height="22" rx="10" ry="10" width="52" x="104" y="1280"/>
<text x="130" y="1296">
else</text>
</g>
<path d=" M 166 1291 h 5 a 5 5 0 0 1 5 -5 a 5 5 0 0 1 5 5 a 5 5 0 0 1 -5 5 a 5 5 0 0 1 -5 -5"/>
<path d=" M 25 1291 h 10"/>
<path d=" M 94 1291 h 10"/>
<path d=" M 156 1291 h 10"/>
</g>
<g class="sequence">
<path d=" M 10 1325 a 5 5 0 0 1 5 -5 a 5 5 0 0 1 5 5 a 5 5 0 0 1 -5 5 a 5 5 0 0 1 -5 -5 m 10 0 h 5"/>
<text class="comment" id="Atomic" x="61" y="1330">
Atomic</text>
<g class="choice">
<path d=" M 97 1325 h 24 m 76 0 h 48"/>
<a class="link" xlink:href="#Boolean">
<g class="symbol">
<rect height="22" width="76" x="121" y="1314"/>
<text x="159" y="1330">
Boolean</text>
</g>
</a>
<path d=" M 97 1325 a 12 12 0 0 1 12 12 v 9 m 124 0 v -9 a 12 12 0 0 1 12 -12"/>
<path d=" M 109 1346 v 33 m 124 0 v -33"/>
<path d=" M 109 1346 v 0 a 12 12 0 0 0 12 12 m 100 0 h 0 a 12 12 0 0 0 12 -12 v 0"/>
<a class="link" xlink:href="#Identifier">
<g class="symbol">
<rect height="22" width="100" x="121" y="1347"/>
<text x="171" y="1363">
Identifier</text>
</g>
</a>
<path d=" M 109 1379 v 0 a 12 12 0 0 0 12 12 m 68 0 h 32 a 12 12 0 0 0 12 -12 v 0"/>
<a class="link" xlink:href="#Number">
<g class="symbol">
<rect height="22" width="68" x="121" y="1380"/>
<text x="155" y="1396">
Number</text>
</g>
</a>
</g>
<path d=" M 255 1325 h 5 a 5 5 0 0 1 5 -5 a 5 5 0 0 1 5 5 a 5 5 0 0 1 -5 5 a 5 5 0 0 1 -5 -5"/>
<path d=" M 25 1325 h 10"/>
<path d=" M 87 1325 h 10"/>
<path d=" M 245 1325 h 10"/>
</g>
<g class="sequence">
<path d=" M 10 1425 a 5 5 0 0 1 5 -5 a 5 5 0 0 1 5 5 a 5 5 0 0 1 -5 5 a 5 5 0 0 1 -5 -5 m 10 0 h 5"/>
<text class="comment" id="String" x="61" y="1430">
String</text>
<g class="choice">
<path d=" M 97 1425 h 24 m 152 0 h 24"/>
<g class="sequence">
<g class="string">
<rect height="22" rx="10" ry="10" width="28" x="121" y="1414"/>
<text x="135" y="1430">
&quot;</text>
</g>
<g class="character">
<rect height="22" rx="10" ry="10" width="76" x="159" y="1414"/>
<text x="197" y="1430">
IGNORED</text>
</g>
<g class="string">
<rect height="22" rx="10" ry="10" width="28" x="245" y="1414"/>
<text x="259" y="1430">
&quot;</text>
</g>
<path d=" M 149 1425 h 10"/>
<path d=" M 235 1425 h 10"/>
</g>
<path d=" M 97 1425 a 12 12 0 0 1 12 12 v 9 m 176 0 v -9 a 12 12 0 0 1 12 -12"/>
<path d=" M 109 1446 v 0 a 12 12 0 0 0 12 12 m 152 0 h 0 a 12 12 0 0 0 12 -12 v 0"/>
<g class="sequence">
<g class="string">
<rect height="22" rx="10" ry="10" width="28" x="121" y="1447"/>
<text x="135" y="1463">
&#x27;</text>
</g>
<g class="character">
<rect height="22" rx="10" ry="10" width="76" x="159" y="1447"/>
<text x="197" y="1463">
IGNORED</text>
</g>
<g class="string">
<rect height="22" rx="10" ry="10" width="28" x="245" y="1447"/>
<text x="259" y="1463">
&#x27;</text>
</g>
<path d=" M 149 1458 h 10"/>
<path d=" M 235 1458 h 10"/>
</g>
</g>
<path d=" M 307 1425 h 5 a 5 5 0 0 1 5 -5 a 5 5 0 0 1 5 5 a 5 5 0 0 1 -5 5 a 5 5 0 0 1 -5 -5"/>
<path d=" M 25 1425 h 10"/>
<path d=" M 87 1425 h 10"/>
<path d=" M 297 1425 h 10"/>
</g>
<g class="sequence">
<path d=" M 10 1492 a 5 5 0 0 1 5 -5 a 5 5 0 0 1 5 5 a 5 5 0 0 1 -5 5 a 5 5 0 0 1 -5 -5 m 10 0 h 5"/>
<text class="comment" id="Number" x="61" y="1497">
Number</text>
<g class="string">
<rect height="22" rx="10" ry="10" width="116" x="97" y="1481"/>
<text x="155" y="1497">
0|[1-9][0-9]</text>
</g>
<path d=" M 223 1492 h 5 a 5 5 0 0 1 5 -5 a 5 5 0 0 1 5 5 a 5 5 0 0 1 -5 5 a 5 5 0 0 1 -5 -5"/>
<path d=" M 25 1492 h 10"/>
<path d=" M 87 1492 h 10"/>
<path d=" M 213 1492 h 10"/>
</g>
<g class="sequence">
<path d=" M 10 1526 a 5 5 0 0 1 5 -5 a 5 5 0 0 1 5 5 a 5 5 0 0 1 -5 5 a 5 5 0 0 1 -5 -5 m 10 0 h 5"/>
<text class="comment" id="NamepathFree" x="82" y="1531">
NamepathFree</text>
<g class="sequence">
<a class="link" xlink:href="#Identifier">
<g class="symbol">
<rect height="22" width="100" x="139" y="1515"/>
<text x="189" y="1531">
Identifier</text>
</g>
</a>
<g class="character">
<rect height="22" rx="10" ry="10" width="76" x="249" y="1515"/>
<text x="287" y="1531">
IGNORED</text>
</g>
<g class="repeat">
<path d=" M 335 1526 h 12 m 280 0 h 12 m -12 0 a 12 12 0 0 1 12 12 v 40 a 12 12 0 0 1 -12 12 m -17 0 h -263 m 134 0 l 5 -5 m 0 10 l -5 -5 m -134 0 a 12 12 0 0 1 -12 -12 v -40 a 12 12 0 0 1 12 -12"/>
<text class="comment" x="618" y="1595">
*</text>
<g class="sequence">
<g class="choice">
<path d=" M 347 1526 h 24 m 28 0 h 32"/>
<g class="string">
<rect height="22" rx="10" ry="10" width="28" x="371" y="1515"/>
<text x="385" y="1531">
.</text>
</g>
<path d=" M 347 1526 a 12 12 0 0 1 12 12 v 9 m 60 0 v -9 a 12 12 0 0 1 12 -12"/>
<path d=" M 359 1547 v 0 a 12 12 0 0 0 12 12 m 36 0 h 0 a 12 12 0 0 0 12 -12 v 0"/>
<g class="string">
<rect height="22" rx="10" ry="10" width="36" x="371" y="1548"/>
<text x="389" y="1564">
::</text>
</g>
</g>
<g class="character">
<rect height="22" rx="10" ry="10" width="76" x="441" y="1515"/>
<text x="479" y="1531">
IGNORED</text>
</g>
<a class="link" xlink:href="#Identifier">
<g class="symbol">
<rect height="22" width="100" x="527" y="1515"/>
<text x="577" y="1531">
Identifier</text>
</g>
</a>
<path d=" M 431 1526 h 10"/>
<path d=" M 517 1526 h 10"/>
</g>
</g>
<path d=" M 239 1526 h 10"/>
<path d=" M 325 1526 h 10"/>
</g>
<path d=" M 649 1526 h 5 a 5 5 0 0 1 5 -5 a 5 5 0 0 1 5 5 a 5 5 0 0 1 -5 5 a 5 5 0 0 1 -5 -5"/>
<path d=" M 25 1526 h 10"/>
<path d=" M 129 1526 h 10"/>
<path d=" M 639 1526 h 10"/>
</g>
<g class="sequence">
<path d=" M 10 1623 a 5 5 0 0 1 5 -5 a 5 5 0 0 1 5 5 a 5 5 0 0 1 -5 5 a 5 5 0 0 1 -5 -5 m 10 0 h 5"/>
<text class="comment" id="Namepath" x="68" y="1628">
Namepath</text>
<g class="sequence">
<a class="link" xlink:href="#Identifier">
<g class="symbol">
<rect height="22" width="100" x="111" y="1612"/>
<text x="161" y="1628">
Identifier</text>
</g>
</a>
<g class="character">
<rect height="22" rx="10" ry="10" width="76" x="221" y="1612"/>
<text x="259" y="1628">
IGNORED</text>
</g>
<g class="repeat">
<path d=" M 307 1623 h 12 m 232 0 h 12 m -12 0 a 12 12 0 0 1 12 12 v 7 a 12 12 0 0 1 -12 12 m -17 0 h -215 m 110 0 l 5 -5 m 0 10 l -5 -5 m -110 0 a 12 12 0 0 1 -12 -12 v -7 a 12 12 0 0 1 12 -12"/>
<text class="comment" x="542" y="1659">
*</text>
<g class="sequence">
<g class="string">
<rect height="22" rx="10" ry="10" width="36" x="319" y="1612"/>
<text x="337" y="1628">
::</text>
</g>
<g class="character">
<rect height="22" rx="10" ry="10" width="76" x="365" y="1612"/>
<text x="403" y="1628">
IGNORED</text>
</g>
<a class="link" xlink:href="#Identifier">
<g class="symbol">
<rect height="22" width="100" x="451" y="1612"/>
<text x="501" y="1628">
Identifier</text>
</g>
</a>
<path d=" M 355 1623 h 10"/>
<path d=" M 441 1623 h 10"/>
</g>
</g>
<path d=" M 211 1623 h 10"/>
<path d=" M 297 1623 h 10"/>
</g>
<path d=" M 573 1623 h 5 a 5 5 0 0 1 5 -5 a 5 5 0 0 1 5 5 a 5 5 0 0 1 -5 5 a 5 5 0 0 1 -5 -5"/>
<path d=" M 25 1623 h 10"/>
<path d=" M 101 1623 h 10"/>
<path d=" M 563 1623 h 10"/>
</g>
<g class="sequence">
<path d=" M 10 1687 a 5 5 0 0 1 5 -5 a 5 5 0 0 1 5 5 a 5 5 0 0 1 -5 5 a 5 5 0 0 1 -5 -5 m 10 0 h 5"/>
<text class="comment" id="Identifier" x="75" y="1692">
Identifier</text>
<g class="string">
<rect height="22" rx="10" ry="10" width="292" x="125" y="1676"/>
<text x="271" y="1692">
[_\p{XID_start}]\p{XID_continue}*</text>
</g>
<path d=" M 427 1687 h 5 a 5 5 0 0 1 5 -5 a 5 5 0 0 1 5 5 a 5 5 0 0 1 -5 5 a 5 5 0 0 1 -5 -5"/>
<path d=" M 25 1687 h 10"/>
<path d=" M 115 1687 h 10"/>
<path d=" M 417 1687 h 10"/>
</g>
<g class="sequence">
<path d=" M 10 1721 a 5 5 0 0 1 5 -5 a 5 5 0 0 1 5 5 a 5 5 0 0 1 -5 5 a 5 5 0 0 1 -5 -5 m 10 0 h 5"/>
<text class="comment" id="Boolean" x="64" y="1726">
Boolean</text>
<g class="choice">
<path d=" M 104 1721 h 24 m 52 0 h 32"/>
<g class="string">
<rect height="22" rx="10" ry="10" width="52" x="128" y="1710"/>
<text x="154" y="1726">
true</text>
</g>
<path d=" M 104 1721 a 12 12 0 0 1 12 12 v 9 m 84 0 v -9 a 12 12 0 0 1 12 -12"/>
<path d=" M 116 1742 v 0 a 12 12 0 0 0 12 12 m 60 0 h 0 a 12 12 0 0 0 12 -12 v 0"/>
<g class="string">
<rect height="22" rx="10" ry="10" width="60" x="128" y="1743"/>
<text x="158" y="1759">
false</text>
</g>
</g>
<path d=" M 222 1721 h 5 a 5 5 0 0 1 5 -5 a 5 5 0 0 1 5 5 a 5 5 0 0 1 -5 5 a 5 5 0 0 1 -5 -5"/>
<path d=" M 25 1721 h 10"/>
<path d=" M 94 1721 h 10"/>
<path d=" M 212 1721 h 10"/>
</g>
<g class="sequence">
<path d=" M 10 1788 a 5 5 0 0 1 5 -5 a 5 5 0 0 1 5 5 a 5 5 0 0 1 -5 5 a 5 5 0 0 1 -5 -5 m 10 0 h 5"/>
<text class="comment" id="WhiteSpace" x="75" y="1793">
WhiteSpace</text>
<g class="string">
<rect height="22" rx="10" ry="10" width="148" x="125" y="1777"/>
<text x="199" y="1793">
\p{White_Space}+</text>
</g>
<path d=" M 283 1788 h 5 a 5 5 0 0 1 5 -5 a 5 5 0 0 1 5 5 a 5 5 0 0 1 -5 5 a 5 5 0 0 1 -5 -5"/>
<path d=" M 25 1788 h 10"/>
<path d=" M 115 1788 h 10"/>
<path d=" M 273 1788 h 10"/>
</g>
</g>
</svg>