<svg class="railroad" viewBox="0 0 1872 3123" xmlns="http://www.w3.org/2000/svg" xmlns:xlink="http://www.w3.org/1999/xlink">
<style type="text/css">
svg.railroad {
    background-color: hsl(30, 20%, 95%);
    background-size: 15px 15px;
    background-image: linear-gradient(to right, rgba(30, 30, 30, .05) 1px, transparent 1px),
    linear-gradient(to bottom, rgba(30, 30, 30, .05) 1px, transparent 1px);
}

svg.railroad path {
    stroke-width: 3px;
    stroke: black;
    fill: transparent;
}

svg.railroad .debug {
    stroke-width: 1px;
    stroke: red;
}

svg.railroad text {
    font-size: 14px;
    font-family: monospace;
    text-anchor: middle;
}

svg.railroad .nonterminal text {
    font-weight: bold;
}

svg.railroad text.comment {
    font-family: serif;
    font-style: italic;
    font-size: 12px;
}

svg.railroad rect {
    stroke-width: 3px;
    stroke: black;
}

svg.railroad g.labeledbox > rect {
    stroke-width: 1px;
    stroke: grey;
    stroke-dasharray: 5px;
    fill: rgba(90, 90, 150, .1);
}

svg.railroad .symbol > rect {
    fill: rgba(90, 90, 150, .1);
}

svg.railroad .regex > rect {
    fill: honeydew;
}

svg.railroad .string > rect {
    fill: cornsilk;
}

svg.railroad .character > rect {
    fill: lightcoral;
}
</style>
<g class="verticalgrid">
<g class="sequence">
<path d=" M 10 21 a 5 5 0 0 1 5 -5 a 5 5 0 0 1 5 5 a 5 5 0 0 1 -5 5 a 5 5 0 0 1 -5 -5 m 10 0 h 5"/>
<text class="comment" id="Root" x="54" y="26">
Root</text>
<g class="repeat">
<path d=" M 83 21 h 12 m 138 0 h 12 m -12 0 a 12 12 0 0 1 12 12 v 7 a 12 12 0 0 1 -12 12 m -52 0 h -86 m 46 0 l 5 -5 m 0 10 l -5 -5 m -46 0 a 12 12 0 0 1 -12 -12 v -7 a 12 12 0 0 1 12 -12"/>
<text class="comment" x="207" y="57">
[0, ∞]</text>
<g class="sequence">
<g class="character">
<rect height="22" rx="10" ry="10" width="52" x="95" y="10"/>
<text x="121" y="26">
HIDE</text>
</g>
<a class="link" xlink:href="#Element">
<g class="symbol">
<rect height="22" width="76" x="157" y="10"/>
<text x="195" y="26">
Element</text>
</g>
</a>
<path d=" M 147 21 h 10"/>
</g>
</g>
<path d=" M 255 21 h 5 a 5 5 0 0 1 5 -5 a 5 5 0 0 1 5 5 a 5 5 0 0 1 -5 5 a 5 5 0 0 1 -5 -5"/>
<path d=" M 25 21 h 10"/>
<path d=" M 73 21 h 10"/>
<path d=" M 245 21 h 10"/>
</g>
<g class="sequence">
<path d=" M 10 85 a 5 5 0 0 1 5 -5 a 5 5 0 0 1 5 5 a 5 5 0 0 1 -5 5 a 5 5 0 0 1 -5 -5 m 10 0 h 5"/>
<text class="comment" id="Element" x="64" y="90">
Element</text>
<g class="choice">
<path d=" M 104 85 h 24 m 84 0 h 72 m -33 0 l -5 -5 m 0 10 l 5 -5 m 33 0"/>
<a class="link" xlink:href="#TextMany">
<g class="symbol">
<rect height="22" width="84" x="128" y="74"/>
<text x="170" y="90">
TextMany</text>
</g>
</a>
<path d=" M 104 85 a 12 12 0 0 1 12 12 v 9 m 156 0 v -9 a 12 12 0 0 1 12 -12"/>
<path d=" M 116 106 v 33 m 156 0 v -33"/>
<path d=" M 116 139 v 33 m 156 0 v -33"/>
<path d=" M 116 106 v 0 a 12 12 0 0 0 12 12 m 132 0 h 0 a 12 12 0 0 0 12 -12 v 0"/>
<a class="link" xlink:href="#TemplateExport">
<g class="symbol">
<rect height="22" width="132" x="128" y="107"/>
<text x="194" y="123">
TemplateExport</text>
</g>
</a>
<path d=" M 116 139 v 0 a 12 12 0 0 0 12 12 m 76 0 h 56 m -25 0 l -5 -5 m 0 10 l 5 -5 m 25 0 a 12 12 0 0 0 12 -12 v 0"/>
<a class="link" xlink:href="#IfBlock">
<g class="symbol">
<rect height="22" width="76" x="128" y="140"/>
<text x="166" y="156">
IfBlock</text>
</g>
</a>
<path d=" M 116 172 v 0 a 12 12 0 0 0 12 12 m 84 0 h 48 a 12 12 0 0 0 12 -12 v 0"/>
<a class="link" xlink:href="#ForBlock">
<g class="symbol">
<rect height="22" width="84" x="128" y="173"/>
<text x="170" y="189">
ForBlock</text>
</g>
</a>
</g>
<path d=" M 294 85 h 5 a 5 5 0 0 1 5 -5 a 5 5 0 0 1 5 5 a 5 5 0 0 1 -5 5 a 5 5 0 0 1 -5 -5"/>
<path d=" M 25 85 h 10"/>
<path d=" M 94 85 h 10"/>
<path d=" M 284 85 h 10"/>
</g>
<g class="sequence">
<path d=" M 10 218 a 5 5 0 0 1 5 -5 a 5 5 0 0 1 5 5 a 5 5 0 0 1 -5 5 a 5 5 0 0 1 -5 -5 m 10 0 h 5"/>
<text class="comment" id="TextMany" x="68" y="223">
TextMany</text>
<g class="repeat">
<path d=" M 111 218 h 12 m 108 0 h 12 m -12 0 a 12 12 0 0 1 12 12 v 7 a 12 12 0 0 1 -12 12 m -52 0 h -56 m 31 0 l 5 -5 m 0 10 l -5 -5 m -31 0 a 12 12 0 0 1 -12 -12 v -7 a 12 12 0 0 1 12 -12"/>
<text class="comment" x="205" y="254">
[1, ∞]</text>
<a class="link" xlink:href="#TextElement">
<g class="symbol">
<rect height="22" width="108" x="123" y="207"/>
<text x="177" y="223">
TextElement</text>
</g>
</a>
</g>
<path d=" M 253 218 h 5 a 5 5 0 0 1 5 -5 a 5 5 0 0 1 5 5 a 5 5 0 0 1 -5 5 a 5 5 0 0 1 -5 -5"/>
<path d=" M 25 218 h 10"/>
<path d=" M 101 218 h 10"/>
<path d=" M 243 218 h 10"/>
</g>
<g class="sequence">
<path d=" M 10 282 a 5 5 0 0 1 5 -5 a 5 5 0 0 1 5 5 a 5 5 0 0 1 -5 5 a 5 5 0 0 1 -5 -5 m 10 0 h 5"/>
<text class="comment" id="TextElement" x="78" y="287">
TextElement</text>
<g class="choice">
<path d=" M 132 282 h 24 m 100 0 h 24"/>
<a class="link" xlink:href="#TEXT_SPACE">
<g class="symbol">
<rect height="22" width="100" x="156" y="271"/>
<text x="206" y="287">
TEXT_SPACE</text>
</g>
</a>
<path d=" M 132 282 a 12 12 0 0 1 12 12 v 9 m 124 0 v -9 a 12 12 0 0 1 12 -12"/>
<path d=" M 144 303 v 0 a 12 12 0 0 0 12 12 m 92 0 h 8 a 12 12 0 0 0 12 -12 v 0"/>
<a class="link" xlink:href="#TEXT_WORD">
<g class="symbol">
<rect height="22" width="92" x="156" y="304"/>
<text x="202" y="320">
TEXT_WORD</text>
</g>
</a>
</g>
<path d=" M 290 282 h 5 a 5 5 0 0 1 5 -5 a 5 5 0 0 1 5 5 a 5 5 0 0 1 -5 5 a 5 5 0 0 1 -5 -5"/>
<path d=" M 25 282 h 10"/>
<path d=" M 122 282 h 10"/>
<path d=" M 280 282 h 10"/>
</g>
<g class="sequence">
<path d=" M 10 349 a 5 5 0 0 1 5 -5 a 5 5 0 0 1 5 5 a 5 5 0 0 1 -5 5 a 5 5 0 0 1 -5 -5 m 10 0 h 5"/>
<text class="comment" id="TemplateExport" x="89" y="354">
TemplateExport</text>
<g class="sequence">
<g class="sequence">
<a class="link" xlink:href="#TEMPLATE_L">
<g class="symbol">
<rect height="22" width="100" x="153" y="338"/>
<text x="203" y="354">
TEMPLATE_L</text>
</g>
</a>
<g class="character">
<rect height="22" rx="10" ry="10" width="52" x="263" y="338"/>
<text x="289" y="354">
HIDE</text>
</g>
<path d=" M 253 349 h 10"/>
</g>
<g class="repeat">
<path d=" M 325 349 h 12 m 162 0 h 12 m -12 0 a 12 12 0 0 1 12 12 v 7 a 12 12 0 0 1 -12 12 m -52 0 h -110 m 58 0 l 5 -5 m 0 10 l -5 -5 m -58 0 a 12 12 0 0 1 -12 -12 v -7 a 12 12 0 0 1 12 -12"/>
<text class="comment" x="473" y="385">
[0, ∞]</text>
<g class="sequence">
<g class="character">
<rect height="22" rx="10" ry="10" width="52" x="337" y="338"/>
<text x="363" y="354">
HIDE</text>
</g>
<a class="link" xlink:href="#ExportItem">
<g class="symbol">
<rect height="22" width="100" x="399" y="338"/>
<text x="449" y="354">
ExportItem</text>
</g>
</a>
<path d=" M 389 349 h 10"/>
</g>
</g>
<g class="character">
<rect height="22" rx="10" ry="10" width="52" x="521" y="338"/>
<text x="547" y="354">
HIDE</text>
</g>
<a class="link" xlink:href="#TEMPLATE_R">
<g class="symbol">
<rect height="22" width="100" x="583" y="338"/>
<text x="633" y="354">
TEMPLATE_R</text>
</g>
</a>
<path d=" M 315 349 h 10"/>
<path d=" M 511 349 h 10"/>
<path d=" M 573 349 h 10"/>
</g>
<path d=" M 693 349 h 5 a 5 5 0 0 1 5 -5 a 5 5 0 0 1 5 5 a 5 5 0 0 1 -5 5 a 5 5 0 0 1 -5 -5"/>
<path d=" M 25 349 h 10"/>
<path d=" M 143 349 h 10"/>
<path d=" M 683 349 h 10"/>
</g>
<g class="sequence">
<path d=" M 10 438 a 5 5 0 0 1 5 -5 a 5 5 0 0 1 5 5 a 5 5 0 0 1 -5 5 a 5 5 0 0 1 -5 -5 m 10 0 h 5"/>
<text class="comment" id="ExportItem" x="75" y="443">
ExportItem</text>
<g class="sequence">
<g class="sequence">
<a class="link" xlink:href="#KW_EXPORT">
<g class="symbol">
<rect height="22" width="92" x="125" y="427"/>
<text x="171" y="443">
KW_EXPORT</text>
</g>
</a>
<g class="character">
<rect height="22" rx="10" ry="10" width="52" x="227" y="427"/>
<text x="253" y="443">
HIDE</text>
</g>
<path d=" M 217 438 h 10"/>
</g>
<a class="link" xlink:href="#Identifier">
<g class="symbol">
<rect height="22" width="100" x="289" y="427"/>
<text x="339" y="443">
Identifier</text>
</g>
</a>
<g class="character">
<rect height="22" rx="10" ry="10" width="52" x="399" y="427"/>
<text x="425" y="443">
HIDE</text>
</g>
<g class="optional">
<path d=" M 461 438 h 24 m -24 0 a 12 12 0 0 0 12 -12 v 0 a 12 12 0 0 1 12 -12 h 232 m -113 0 l -5 -5 m 0 10 l 5 -5 m 113 0 a 12 12 0 0 1 12 12 v 0 a 12 12 0 0 0 12 12 h -24"/>
<g class="sequence">
<g class="sequence">
<a class="link" xlink:href="#KW_TO">
<g class="symbol">
<rect height="22" width="60" x="485" y="427"/>
<text x="515" y="443">
KW_TO</text>
</g>
</a>
<g class="character">
<rect height="22" rx="10" ry="10" width="52" x="555" y="427"/>
<text x="581" y="443">
HIDE</text>
</g>
<path d=" M 545 438 h 10"/>
</g>
<a class="link" xlink:href="#Identifier">
<g class="symbol">
<rect height="22" width="100" x="617" y="427"/>
<text x="667" y="443">
Identifier</text>
</g>
</a>
<path d=" M 607 438 h 10"/>
</g>
</g>
<g class="character">
<rect height="22" rx="10" ry="10" width="52" x="751" y="427"/>
<text x="777" y="443">
HIDE</text>
</g>
<g class="optional">
<path d=" M 813 438 h 24 m -24 0 a 12 12 0 0 0 12 -12 v 0 a 12 12 0 0 1 12 -12 h 404 m -199 0 l -5 -5 m 0 10 l 5 -5 m 199 0 a 12 12 0 0 1 12 12 v 0 a 12 12 0 0 0 12 12 h -24"/>
<g class="sequence">
<g class="sequence">
<a class="link" xlink:href="#KW_BY">
<g class="symbol">
<rect height="22" width="60" x="837" y="427"/>
<text x="867" y="443">
KW_BY</text>
</g>
</a>
<g class="character">
<rect height="22" rx="10" ry="10" width="52" x="907" y="427"/>
<text x="933" y="443">
HIDE</text>
</g>
<a class="link" xlink:href="#KW_CLASS">
<g class="symbol">
<rect height="22" width="84" x="969" y="427"/>
<text x="1011" y="443">
KW_CLASS</text>
</g>
</a>
<g class="character">
<rect height="22" rx="10" ry="10" width="52" x="1063" y="427"/>
<text x="1089" y="443">
HIDE</text>
</g>
<path d=" M 897 438 h 10"/>
<path d=" M 959 438 h 10"/>
<path d=" M 1053 438 h 10"/>
</g>
<a class="link" xlink:href="#NamepathFree">
<g class="symbol">
<rect height="22" width="116" x="1125" y="427"/>
<text x="1183" y="443">
NamepathFree</text>
</g>
</a>
<path d=" M 1115 438 h 10"/>
</g>
</g>
<g class="character">
<rect height="22" rx="10" ry="10" width="52" x="1275" y="427"/>
<text x="1301" y="443">
HIDE</text>
</g>
<g class="optional">
<path d=" M 1337 438 h 24 m -24 0 a 12 12 0 0 0 12 -12 v -12 a 12 12 0 0 1 12 -12 h 452 m -223 0 l -5 -5 m 0 10 l 5 -5 m 223 0 a 12 12 0 0 1 12 12 v 12 a 12 12 0 0 0 12 12 h -24"/>
<g class="sequence">
<g class="sequence">
<a class="link" xlink:href="#KW_BY">
<g class="symbol">
<rect height="22" width="60" x="1361" y="427"/>
<text x="1391" y="443">
KW_BY</text>
</g>
</a>
<g class="character">
<rect height="22" rx="10" ry="10" width="52" x="1431" y="427"/>
<text x="1457" y="443">
HIDE</text>
</g>
<a class="link" xlink:href="#KW_TRAIT">
<g class="symbol">
<rect height="22" width="84" x="1493" y="427"/>
<text x="1535" y="443">
KW_TRAIT</text>
</g>
</a>
<g class="character">
<rect height="22" rx="10" ry="10" width="52" x="1587" y="427"/>
<text x="1613" y="443">
HIDE</text>
</g>
<path d=" M 1421 438 h 10"/>
<path d=" M 1483 438 h 10"/>
<path d=" M 1577 438 h 10"/>
</g>
<g class="optional">
<path d=" M 1649 438 h 24 m -24 0 a 12 12 0 0 0 12 -12 v 0 a 12 12 0 0 1 12 -12 h 116 m -55 0 l -5 -5 m 0 10 l 5 -5 m 55 0 a 12 12 0 0 1 12 12 v 0 a 12 12 0 0 0 12 12 h -24"/>
<a class="link" xlink:href="#NamepathFree">
<g class="symbol">
<rect height="22" width="116" x="1673" y="427"/>
<text x="1731" y="443">
NamepathFree</text>
</g>
</a>
</g>
<path d=" M 1639 438 h 10"/>
</g>
</g>
<path d=" M 279 438 h 10"/>
<path d=" M 389 438 h 10"/>
<path d=" M 451 438 h 10"/>
<path d=" M 741 438 h 10"/>
<path d=" M 803 438 h 10"/>
<path d=" M 1265 438 h 10"/>
<path d=" M 1327 438 h 10"/>
</g>
<path d=" M 1847 438 h 5 a 5 5 0 0 1 5 -5 a 5 5 0 0 1 5 5 a 5 5 0 0 1 -5 5 a 5 5 0 0 1 -5 -5"/>
<path d=" M 25 438 h 10"/>
<path d=" M 115 438 h 10"/>
<path d=" M 1837 438 h 10"/>
</g>
<g class="sequence">
<path d=" M 10 485 a 5 5 0 0 1 5 -5 a 5 5 0 0 1 5 5 a 5 5 0 0 1 -5 5 a 5 5 0 0 1 -5 -5 m 10 0 h 5"/>
<text class="comment" id="IfBlock" x="64" y="490">
IfBlock</text>
<g class="sequence">
<a class="link" xlink:href="#TemplateIf">
<g class="symbol">
<rect height="22" width="100" x="104" y="474"/>
<text x="154" y="490">
TemplateIf</text>
</g>
</a>
<g class="repeat">
<path d=" M 214 485 h 12 m 132 0 h 12 m -12 0 a 12 12 0 0 1 12 12 v 7 a 12 12 0 0 1 -12 12 m -52 0 h -80 m 43 0 l 5 -5 m 0 10 l -5 -5 m -43 0 a 12 12 0 0 1 -12 -12 v -7 a 12 12 0 0 1 12 -12"/>
<text class="comment" x="332" y="521">
[0, ∞]</text>
<a class="link" xlink:href="#TemplateElseIf">
<g class="symbol">
<rect height="22" width="132" x="226" y="474"/>
<text x="292" y="490">
TemplateElseIf</text>
</g>
</a>
</g>
<g class="optional">
<path d=" M 380 485 h 24 m -24 0 a 12 12 0 0 0 12 -12 v 0 a 12 12 0 0 1 12 -12 h 116 m -55 0 l -5 -5 m 0 10 l 5 -5 m 55 0 a 12 12 0 0 1 12 12 v 0 a 12 12 0 0 0 12 12 h -24"/>
<a class="link" xlink:href="#TemplateElse">
<g class="symbol">
<rect height="22" width="116" x="404" y="474"/>
<text x="462" y="490">
TemplateElse</text>
</g>
</a>
</g>
<a class="link" xlink:href="#TemplateEnd">
<g class="symbol">
<rect height="22" width="108" x="554" y="474"/>
<text x="608" y="490">
TemplateEnd</text>
</g>
</a>
<path d=" M 204 485 h 10"/>
<path d=" M 370 485 h 10"/>
<path d=" M 544 485 h 10"/>
</g>
<path d=" M 672 485 h 5 a 5 5 0 0 1 5 -5 a 5 5 0 0 1 5 5 a 5 5 0 0 1 -5 5 a 5 5 0 0 1 -5 -5"/>
<path d=" M 25 485 h 10"/>
<path d=" M 94 485 h 10"/>
<path d=" M 662 485 h 10"/>
</g>
<g class="sequence">
<path d=" M 10 549 a 5 5 0 0 1 5 -5 a 5 5 0 0 1 5 5 a 5 5 0 0 1 -5 5 a 5 5 0 0 1 -5 -5 m 10 0 h 5"/>
<text class="comment" id="TemplateIf" x="75" y="554">
TemplateIf</text>
<g class="sequence">
<a class="link" xlink:href="#TEMPLATE_L">
<g class="symbol">
<rect height="22" width="100" x="125" y="538"/>
<text x="175" y="554">
TEMPLATE_L</text>
</g>
</a>
<g class="character">
<rect height="22" rx="10" ry="10" width="52" x="235" y="538"/>
<text x="261" y="554">
HIDE</text>
</g>
<a class="link" xlink:href="#KW_IF">
<g class="symbol">
<rect height="22" width="60" x="297" y="538"/>
<text x="327" y="554">
KW_IF</text>
</g>
</a>
<g class="character">
<rect height="22" rx="10" ry="10" width="52" x="367" y="538"/>
<text x="393" y="554">
HIDE</text>
</g>
<a class="link" xlink:href="#Expression">
<g class="symbol">
<rect height="22" width="100" x="429" y="538"/>
<text x="479" y="554">
Expression</text>
</g>
</a>
<g class="character">
<rect height="22" rx="10" ry="10" width="52" x="539" y="538"/>
<text x="565" y="554">
HIDE</text>
</g>
<a class="link" xlink:href="#TEMPLATE_R">
<g class="symbol">
<rect height="22" width="100" x="601" y="538"/>
<text x="651" y="554">
TEMPLATE_R</text>
</g>
</a>
<g class="repeat">
<path d=" M 711 549 h 12 m 76 0 h 12 m -12 0 a 12 12 0 0 1 12 12 v 7 a 12 12 0 0 1 -12 12 m -52 0 h -24 a 12 12 0 0 1 -12 -12 v -7 a 12 12 0 0 1 12 -12"/>
<text class="comment" x="773" y="585">
[0, ∞]</text>
<a class="link" xlink:href="#Element">
<g class="symbol">
<rect height="22" width="76" x="723" y="538"/>
<text x="761" y="554">
Element</text>
</g>
</a>
</g>
<path d=" M 225 549 h 10"/>
<path d=" M 287 549 h 10"/>
<path d=" M 357 549 h 10"/>
<path d=" M 419 549 h 10"/>
<path d=" M 529 549 h 10"/>
<path d=" M 591 549 h 10"/>
<path d=" M 701 549 h 10"/>
</g>
<path d=" M 821 549 h 5 a 5 5 0 0 1 5 -5 a 5 5 0 0 1 5 5 a 5 5 0 0 1 -5 5 a 5 5 0 0 1 -5 -5"/>
<path d=" M 25 549 h 10"/>
<path d=" M 115 549 h 10"/>
<path d=" M 811 549 h 10"/>
</g>
<g class="sequence">
<path d=" M 10 613 a 5 5 0 0 1 5 -5 a 5 5 0 0 1 5 5 a 5 5 0 0 1 -5 5 a 5 5 0 0 1 -5 -5 m 10 0 h 5"/>
<text class="comment" id="TemplateElseIf" x="89" y="618">
TemplateElseIf</text>
<g class="sequence">
<a class="link" xlink:href="#TEMPLATE_L">
<g class="symbol">
<rect height="22" width="100" x="153" y="602"/>
<text x="203" y="618">
TEMPLATE_L</text>
</g>
</a>
<g class="character">
<rect height="22" rx="10" ry="10" width="52" x="263" y="602"/>
<text x="289" y="618">
HIDE</text>
</g>
<a class="link" xlink:href="#KW_ELSE">
<g class="symbol">
<rect height="22" width="76" x="325" y="602"/>
<text x="363" y="618">
KW_ELSE</text>
</g>
</a>
<g class="character">
<rect height="22" rx="10" ry="10" width="52" x="411" y="602"/>
<text x="437" y="618">
HIDE</text>
</g>
<a class="link" xlink:href="#KW_IF">
<g class="symbol">
<rect height="22" width="60" x="473" y="602"/>
<text x="503" y="618">
KW_IF</text>
</g>
</a>
<g class="character">
<rect height="22" rx="10" ry="10" width="52" x="543" y="602"/>
<text x="569" y="618">
HIDE</text>
</g>
<a class="link" xlink:href="#Expression">
<g class="symbol">
<rect height="22" width="100" x="605" y="602"/>
<text x="655" y="618">
Expression</text>
</g>
</a>
<g class="character">
<rect height="22" rx="10" ry="10" width="52" x="715" y="602"/>
<text x="741" y="618">
HIDE</text>
</g>
<a class="link" xlink:href="#TEMPLATE_R">
<g class="symbol">
<rect height="22" width="100" x="777" y="602"/>
<text x="827" y="618">
TEMPLATE_R</text>
</g>
</a>
<g class="repeat">
<path d=" M 887 613 h 12 m 76 0 h 12 m -12 0 a 12 12 0 0 1 12 12 v 7 a 12 12 0 0 1 -12 12 m -52 0 h -24 a 12 12 0 0 1 -12 -12 v -7 a 12 12 0 0 1 12 -12"/>
<text class="comment" x="949" y="649">
[0, ∞]</text>
<a class="link" xlink:href="#Element">
<g class="symbol">
<rect height="22" width="76" x="899" y="602"/>
<text x="937" y="618">
Element</text>
</g>
</a>
</g>
<path d=" M 253 613 h 10"/>
<path d=" M 315 613 h 10"/>
<path d=" M 401 613 h 10"/>
<path d=" M 463 613 h 10"/>
<path d=" M 533 613 h 10"/>
<path d=" M 595 613 h 10"/>
<path d=" M 705 613 h 10"/>
<path d=" M 767 613 h 10"/>
<path d=" M 877 613 h 10"/>
</g>
<path d=" M 997 613 h 5 a 5 5 0 0 1 5 -5 a 5 5 0 0 1 5 5 a 5 5 0 0 1 -5 5 a 5 5 0 0 1 -5 -5"/>
<path d=" M 25 613 h 10"/>
<path d=" M 143 613 h 10"/>
<path d=" M 987 613 h 10"/>
</g>
<g class="sequence">
<path d=" M 10 677 a 5 5 0 0 1 5 -5 a 5 5 0 0 1 5 5 a 5 5 0 0 1 -5 5 a 5 5 0 0 1 -5 -5 m 10 0 h 5"/>
<text class="comment" id="TemplateElse" x="82" y="682">
TemplateElse</text>
<g class="sequence">
<a class="link" xlink:href="#TEMPLATE_L">
<g class="symbol">
<rect height="22" width="100" x="139" y="666"/>
<text x="189" y="682">
TEMPLATE_L</text>
</g>
</a>
<g class="character">
<rect height="22" rx="10" ry="10" width="52" x="249" y="666"/>
<text x="275" y="682">
HIDE</text>
</g>
<a class="link" xlink:href="#KW_ELSE">
<g class="symbol">
<rect height="22" width="76" x="311" y="666"/>
<text x="349" y="682">
KW_ELSE</text>
</g>
</a>
<g class="character">
<rect height="22" rx="10" ry="10" width="52" x="397" y="666"/>
<text x="423" y="682">
HIDE</text>
</g>
<a class="link" xlink:href="#TEMPLATE_R">
<g class="symbol">
<rect height="22" width="100" x="459" y="666"/>
<text x="509" y="682">
TEMPLATE_R</text>
</g>
</a>
<g class="repeat">
<path d=" M 569 677 h 12 m 76 0 h 12 m -12 0 a 12 12 0 0 1 12 12 v 7 a 12 12 0 0 1 -12 12 m -52 0 h -24 a 12 12 0 0 1 -12 -12 v -7 a 12 12 0 0 1 12 -12"/>
<text class="comment" x="631" y="713">
[0, ∞]</text>
<a class="link" xlink:href="#Element">
<g class="symbol">
<rect height="22" width="76" x="581" y="666"/>
<text x="619" y="682">
Element</text>
</g>
</a>
</g>
<path d=" M 239 677 h 10"/>
<path d=" M 301 677 h 10"/>
<path d=" M 387 677 h 10"/>
<path d=" M 449 677 h 10"/>
<path d=" M 559 677 h 10"/>
</g>
<path d=" M 679 677 h 5 a 5 5 0 0 1 5 -5 a 5 5 0 0 1 5 5 a 5 5 0 0 1 -5 5 a 5 5 0 0 1 -5 -5"/>
<path d=" M 25 677 h 10"/>
<path d=" M 129 677 h 10"/>
<path d=" M 669 677 h 10"/>
</g>
<g class="sequence">
<path d=" M 10 754 a 5 5 0 0 1 5 -5 a 5 5 0 0 1 5 5 a 5 5 0 0 1 -5 5 a 5 5 0 0 1 -5 -5 m 10 0 h 5"/>
<text class="comment" id="ForBlock" x="68" y="759">
ForBlock</text>
<g class="sequence">
<a class="link" xlink:href="#TemplateFor">
<g class="symbol">
<rect height="22" width="108" x="111" y="743"/>
<text x="165" y="759">
TemplateFor</text>
</g>
</a>
<g class="optional">
<path d=" M 229 754 h 24 m -24 0 a 12 12 0 0 0 12 -12 v 0 a 12 12 0 0 1 12 -12 h 116 m -55 0 l -5 -5 m 0 10 l 5 -5 m 55 0 a 12 12 0 0 1 12 12 v 0 a 12 12 0 0 0 12 12 h -24"/>
<a class="link" xlink:href="#TemplateElse">
<g class="symbol">
<rect height="22" width="116" x="253" y="743"/>
<text x="311" y="759">
TemplateElse</text>
</g>
</a>
</g>
<a class="link" xlink:href="#TemplateEnd">
<g class="symbol">
<rect height="22" width="108" x="403" y="743"/>
<text x="457" y="759">
TemplateEnd</text>
</g>
</a>
<path d=" M 219 754 h 10"/>
<path d=" M 393 754 h 10"/>
</g>
<path d=" M 521 754 h 5 a 5 5 0 0 1 5 -5 a 5 5 0 0 1 5 5 a 5 5 0 0 1 -5 5 a 5 5 0 0 1 -5 -5"/>
<path d=" M 25 754 h 10"/>
<path d=" M 101 754 h 10"/>
<path d=" M 511 754 h 10"/>
</g>
<g class="sequence">
<path d=" M 10 801 a 5 5 0 0 1 5 -5 a 5 5 0 0 1 5 5 a 5 5 0 0 1 -5 5 a 5 5 0 0 1 -5 -5 m 10 0 h 5"/>
<text class="comment" id="TemplateFor" x="78" y="806">
TemplateFor</text>
<g class="sequence">
<g class="sequence">
<a class="link" xlink:href="#TEMPLATE_L">
<g class="symbol">
<rect height="22" width="100" x="132" y="790"/>
<text x="182" y="806">
TEMPLATE_L</text>
</g>
</a>
<g class="character">
<rect height="22" rx="10" ry="10" width="52" x="242" y="790"/>
<text x="268" y="806">
HIDE</text>
</g>
<a class="link" xlink:href="#KW_FOR">
<g class="symbol">
<rect height="22" width="68" x="304" y="790"/>
<text x="338" y="806">
KW_FOR</text>
</g>
</a>
<g class="character">
<rect height="22" rx="10" ry="10" width="52" x="382" y="790"/>
<text x="408" y="806">
HIDE</text>
</g>
<a class="link" xlink:href="#KW_IN">
<g class="symbol">
<rect height="22" width="60" x="444" y="790"/>
<text x="474" y="806">
KW_IN</text>
</g>
</a>
<a class="link" xlink:href="#Pattern">
<g class="symbol">
<rect height="22" width="76" x="514" y="790"/>
<text x="552" y="806">
Pattern</text>
</g>
</a>
<g class="character">
<rect height="22" rx="10" ry="10" width="52" x="600" y="790"/>
<text x="626" y="806">
HIDE</text>
</g>
<a class="link" xlink:href="#KW_IN">
<g class="symbol">
<rect height="22" width="60" x="662" y="790"/>
<text x="692" y="806">
KW_IN</text>
</g>
</a>
<g class="character">
<rect height="22" rx="10" ry="10" width="52" x="732" y="790"/>
<text x="758" y="806">
HIDE</text>
</g>
<path d=" M 232 801 h 10"/>
<path d=" M 294 801 h 10"/>
<path d=" M 372 801 h 10"/>
<path d=" M 434 801 h 10"/>
<path d=" M 504 801 h 10"/>
<path d=" M 590 801 h 10"/>
<path d=" M 652 801 h 10"/>
<path d=" M 722 801 h 10"/>
</g>
<a class="link" xlink:href="#Expression">
<g class="symbol">
<rect height="22" width="100" x="794" y="790"/>
<text x="844" y="806">
Expression</text>
</g>
</a>
<g class="character">
<rect height="22" rx="10" ry="10" width="52" x="904" y="790"/>
<text x="930" y="806">
HIDE</text>
</g>
<g class="optional">
<path d=" M 966 801 h 24 m -24 0 a 12 12 0 0 0 12 -12 v 0 a 12 12 0 0 1 12 -12 h 232 m -113 0 l -5 -5 m 0 10 l 5 -5 m 113 0 a 12 12 0 0 1 12 12 v 0 a 12 12 0 0 0 12 12 h -24"/>
<g class="sequence">
<g class="sequence">
<a class="link" xlink:href="#KW_IF">
<g class="symbol">
<rect height="22" width="60" x="990" y="790"/>
<text x="1020" y="806">
KW_IF</text>
</g>
</a>
<g class="character">
<rect height="22" rx="10" ry="10" width="52" x="1060" y="790"/>
<text x="1086" y="806">
HIDE</text>
</g>
<path d=" M 1050 801 h 10"/>
</g>
<a class="link" xlink:href="#Expression">
<g class="symbol">
<rect height="22" width="100" x="1122" y="790"/>
<text x="1172" y="806">
Expression</text>
</g>
</a>
<path d=" M 1112 801 h 10"/>
</g>
</g>
<g class="character">
<rect height="22" rx="10" ry="10" width="52" x="1256" y="790"/>
<text x="1282" y="806">
HIDE</text>
</g>
<a class="link" xlink:href="#TEMPLATE_R">
<g class="symbol">
<rect height="22" width="100" x="1318" y="790"/>
<text x="1368" y="806">
TEMPLATE_R</text>
</g>
</a>
<g class="repeat">
<path d=" M 1428 801 h 12 m 76 0 h 12 m -12 0 a 12 12 0 0 1 12 12 v 7 a 12 12 0 0 1 -12 12 m -52 0 h -24 a 12 12 0 0 1 -12 -12 v -7 a 12 12 0 0 1 12 -12"/>
<text class="comment" x="1490" y="837">
[0, ∞]</text>
<a class="link" xlink:href="#Element">
<g class="symbol">
<rect height="22" width="76" x="1440" y="790"/>
<text x="1478" y="806">
Element</text>
</g>
</a>
</g>
<path d=" M 784 801 h 10"/>
<path d=" M 894 801 h 10"/>
<path d=" M 956 801 h 10"/>
<path d=" M 1246 801 h 10"/>
<path d=" M 1308 801 h 10"/>
<path d=" M 1418 801 h 10"/>
</g>
<path d=" M 1538 801 h 5 a 5 5 0 0 1 5 -5 a 5 5 0 0 1 5 5 a 5 5 0 0 1 -5 5 a 5 5 0 0 1 -5 -5"/>
<path d=" M 25 801 h 10"/>
<path d=" M 122 801 h 10"/>
<path d=" M 1528 801 h 10"/>
</g>
<g class="sequence">
<path d=" M 10 878 a 5 5 0 0 1 5 -5 a 5 5 0 0 1 5 5 a 5 5 0 0 1 -5 5 a 5 5 0 0 1 -5 -5 m 10 0 h 5"/>
<text class="comment" id="TemplateEnd" x="78" y="883">
TemplateEnd</text>
<g class="choice">
<path d=" M 132 878 h 24 m 632 0 h 24"/>
<g class="sequence">
<a class="link" xlink:href="#TEMPLATE_L">
<g class="symbol">
<rect height="22" width="100" x="156" y="867"/>
<text x="206" y="883">
TEMPLATE_L</text>
</g>
</a>
<g class="character">
<rect height="22" rx="10" ry="10" width="52" x="266" y="867"/>
<text x="292" y="883">
HIDE</text>
</g>
<a class="link" xlink:href="#KW_END">
<g class="symbol">
<rect height="22" width="68" x="328" y="867"/>
<text x="362" y="883">
KW_END</text>
</g>
</a>
<g class="character">
<rect height="22" rx="10" ry="10" width="52" x="406" y="867"/>
<text x="432" y="883">
HIDE</text>
</g>
<g class="optional">
<path d=" M 468 878 h 24 m -24 0 a 12 12 0 0 0 12 -12 v 0 a 12 12 0 0 1 12 -12 h 100 m -47 0 l -5 -5 m 0 10 l 5 -5 m 47 0 a 12 12 0 0 1 12 12 v 0 a 12 12 0 0 0 12 12 h -24"/>
<a class="link" xlink:href="#Identifier">
<g class="symbol">
<rect height="22" width="100" x="492" y="867"/>
<text x="542" y="883">
Identifier</text>
</g>
</a>
</g>
<g class="character">
<rect height="22" rx="10" ry="10" width="52" x="626" y="867"/>
<text x="652" y="883">
HIDE</text>
</g>
<a class="link" xlink:href="#TEMPLATE_R">
<g class="symbol">
<rect height="22" width="100" x="688" y="867"/>
<text x="738" y="883">
TEMPLATE_R</text>
</g>
</a>
<path d=" M 256 878 h 10"/>
<path d=" M 318 878 h 10"/>
<path d=" M 396 878 h 10"/>
<path d=" M 458 878 h 10"/>
<path d=" M 616 878 h 10"/>
<path d=" M 678 878 h 10"/>
</g>
<path d=" M 132 878 a 12 12 0 0 1 12 12 v 9 m 656 0 v -9 a 12 12 0 0 1 12 -12"/>
<path d=" M 144 899 v 12 a 12 12 0 0 0 12 12 m 632 0 h 0 a 12 12 0 0 0 12 -12 v -12"/>
<g class="sequence">
<a class="link" xlink:href="#TEMPLATE_L">
<g class="symbol">
<rect height="22" width="100" x="156" y="912"/>
<text x="206" y="928">
TEMPLATE_L</text>
</g>
</a>
<g class="character">
<rect height="22" rx="10" ry="10" width="52" x="266" y="912"/>
<text x="292" y="928">
HIDE</text>
</g>
<g class="optional">
<path d=" M 328 923 h 24 m -24 0 a 12 12 0 0 0 12 -12 v 0 a 12 12 0 0 1 12 -12 h 100 m -47 0 l -5 -5 m 0 10 l 5 -5 m 47 0 a 12 12 0 0 1 12 12 v 0 a 12 12 0 0 0 12 12 h -24"/>
<a class="link" xlink:href="#Identifier">
<g class="symbol">
<rect height="22" width="100" x="352" y="912"/>
<text x="402" y="928">
Identifier</text>
</g>
</a>
</g>
<g class="character">
<rect height="22" rx="10" ry="10" width="52" x="486" y="912"/>
<text x="512" y="928">
HIDE</text>
</g>
<a class="link" xlink:href="#KW_END">
<g class="symbol">
<rect height="22" width="68" x="548" y="912"/>
<text x="582" y="928">
KW_END</text>
</g>
</a>
<g class="character">
<rect height="22" rx="10" ry="10" width="52" x="626" y="912"/>
<text x="652" y="928">
HIDE</text>
</g>
<a class="link" xlink:href="#TEMPLATE_R">
<g class="symbol">
<rect height="22" width="100" x="688" y="912"/>
<text x="738" y="928">
TEMPLATE_R</text>
</g>
</a>
<path d=" M 256 923 h 10"/>
<path d=" M 318 923 h 10"/>
<path d=" M 476 923 h 10"/>
<path d=" M 538 923 h 10"/>
<path d=" M 616 923 h 10"/>
<path d=" M 678 923 h 10"/>
</g>
</g>
<path d=" M 822 878 h 5 a 5 5 0 0 1 5 -5 a 5 5 0 0 1 5 5 a 5 5 0 0 1 -5 5 a 5 5 0 0 1 -5 -5"/>
<path d=" M 25 878 h 10"/>
<path d=" M 122 878 h 10"/>
<path d=" M 812 878 h 10"/>
</g>
<g class="sequence">
<path d=" M 10 957 a 5 5 0 0 1 5 -5 a 5 5 0 0 1 5 5 a 5 5 0 0 1 -5 5 a 5 5 0 0 1 -5 -5 m 10 0 h 5"/>
<text class="comment" id="Pattern" x="64" y="962">
Pattern</text>
<g class="choice">
<path d=" M 104 957 h 24 m 108 0 h 24"/>
<a class="link" xlink:href="#BarePattern">
<g class="symbol">
<rect height="22" width="108" x="128" y="946"/>
<text x="182" y="962">
BarePattern</text>
</g>
</a>
<path d=" M 104 957 a 12 12 0 0 1 12 12 v 9 m 132 0 v -9 a 12 12 0 0 1 12 -12"/>
<path d=" M 116 978 v 0 a 12 12 0 0 0 12 12 m 100 0 h 8 a 12 12 0 0 0 12 -12 v 0"/>
<a class="link" xlink:href="#Identifier">
<g class="symbol">
<rect height="22" width="100" x="128" y="979"/>
<text x="178" y="995">
Identifier</text>
</g>
</a>
</g>
<path d=" M 270 957 h 5 a 5 5 0 0 1 5 -5 a 5 5 0 0 1 5 5 a 5 5 0 0 1 -5 5 a 5 5 0 0 1 -5 -5"/>
<path d=" M 25 957 h 10"/>
<path d=" M 94 957 h 10"/>
<path d=" M 260 957 h 10"/>
</g>
<g class="sequence">
<path d=" M 10 1037 a 5 5 0 0 1 5 -5 a 5 5 0 0 1 5 5 a 5 5 0 0 1 -5 5 a 5 5 0 0 1 -5 -5 m 10 0 h 5"/>
<text class="comment" id="BarePattern" x="78" y="1042">
BarePattern</text>
<g class="sequence">
<a class="link" xlink:href="#Pattern">
<g class="symbol">
<rect height="22" width="76" x="132" y="1026"/>
<text x="170" y="1042">
Pattern</text>
</g>
</a>
<g class="character">
<rect height="22" rx="10" ry="10" width="52" x="218" y="1026"/>
<text x="244" y="1042">
HIDE</text>
</g>
<g class="repeat">
<path d=" M 280 1037 h 12 m 270 0 h 12 m -12 0 a 12 12 0 0 1 12 12 v 7 a 12 12 0 0 1 -12 12 m -52 0 h -218 m 112 0 l 5 -5 m 0 10 l -5 -5 m -112 0 a 12 12 0 0 1 -12 -12 v -7 a 12 12 0 0 1 12 -12"/>
<text class="comment" x="536" y="1073">
[0, ∞]</text>
<g class="sequence">
<g class="character">
<rect height="22" rx="10" ry="10" width="52" x="292" y="1026"/>
<text x="318" y="1042">
HIDE</text>
</g>
<g class="sequence">
<a class="link" xlink:href="#COMMA">
<g class="symbol">
<rect height="22" width="60" x="354" y="1026"/>
<text x="384" y="1042">
COMMA</text>
</g>
</a>
<g class="character">
<rect height="22" rx="10" ry="10" width="52" x="424" y="1026"/>
<text x="450" y="1042">
HIDE</text>
</g>
<a class="link" xlink:href="#Pattern">
<g class="symbol">
<rect height="22" width="76" x="486" y="1026"/>
<text x="524" y="1042">
Pattern</text>
</g>
</a>
<path d=" M 414 1037 h 10"/>
<path d=" M 476 1037 h 10"/>
</g>
<path d=" M 344 1037 h 10"/>
</g>
</g>
<g class="character">
<rect height="22" rx="10" ry="10" width="52" x="584" y="1026"/>
<text x="610" y="1042">
HIDE</text>
</g>
<g class="optional">
<path d=" M 646 1037 h 24 m -24 0 a 12 12 0 0 0 12 -12 v 0 a 12 12 0 0 1 12 -12 h 60 m -27 0 l -5 -5 m 0 10 l 5 -5 m 27 0 a 12 12 0 0 1 12 12 v 0 a 12 12 0 0 0 12 12 h -24"/>
<a class="link" xlink:href="#COMMA">
<g class="symbol">
<rect height="22" width="60" x="670" y="1026"/>
<text x="700" y="1042">
COMMA</text>
</g>
</a>
</g>
<path d=" M 208 1037 h 10"/>
<path d=" M 270 1037 h 10"/>
<path d=" M 574 1037 h 10"/>
<path d=" M 636 1037 h 10"/>
</g>
<path d=" M 764 1037 h 5 a 5 5 0 0 1 5 -5 a 5 5 0 0 1 5 5 a 5 5 0 0 1 -5 5 a 5 5 0 0 1 -5 -5"/>
<path d=" M 25 1037 h 10"/>
<path d=" M 122 1037 h 10"/>
<path d=" M 754 1037 h 10"/>
</g>
<g class="sequence">
<path d=" M 10 1101 a 5 5 0 0 1 5 -5 a 5 5 0 0 1 5 5 a 5 5 0 0 1 -5 5 a 5 5 0 0 1 -5 -5 m 10 0 h 5"/>
<text class="comment" id="Expression" x="75" y="1106">
Expression</text>
<g class="sequence">
<a class="link" xlink:href="#Term">
<g class="symbol">
<rect height="22" width="52" x="125" y="1090"/>
<text x="151" y="1106">
Term</text>
</g>
</a>
<g class="character">
<rect height="22" rx="10" ry="10" width="52" x="187" y="1090"/>
<text x="213" y="1106">
HIDE</text>
</g>
<g class="repeat">
<path d=" M 249 1101 h 12 m 194 0 h 12 m -12 0 a 12 12 0 0 1 12 12 v 7 a 12 12 0 0 1 -12 12 m -52 0 h -142 m 74 0 l 5 -5 m 0 10 l -5 -5 m -74 0 a 12 12 0 0 1 -12 -12 v -7 a 12 12 0 0 1 12 -12"/>
<text class="comment" x="429" y="1137">
[0, ∞]</text>
<g class="sequence">
<g class="character">
<rect height="22" rx="10" ry="10" width="52" x="261" y="1090"/>
<text x="287" y="1106">
HIDE</text>
</g>
<a class="link" xlink:href="#ExpressionRest">
<g class="symbol">
<rect height="22" width="132" x="323" y="1090"/>
<text x="389" y="1106">
ExpressionRest</text>
</g>
</a>
<path d=" M 313 1101 h 10"/>
</g>
</g>
<path d=" M 177 1101 h 10"/>
<path d=" M 239 1101 h 10"/>
</g>
<path d=" M 477 1101 h 5 a 5 5 0 0 1 5 -5 a 5 5 0 0 1 5 5 a 5 5 0 0 1 -5 5 a 5 5 0 0 1 -5 -5"/>
<path d=" M 25 1101 h 10"/>
<path d=" M 115 1101 h 10"/>
<path d=" M 467 1101 h 10"/>
</g>
<g class="sequence">
<path d=" M 10 1165 a 5 5 0 0 1 5 -5 a 5 5 0 0 1 5 5 a 5 5 0 0 1 -5 5 a 5 5 0 0 1 -5 -5 m 10 0 h 5"/>
<text class="comment" id="ExpressionRest" x="89" y="1170">
ExpressionRest</text>
<g class="sequence">
<a class="link" xlink:href="#Infix">
<g class="symbol">
<rect height="22" width="60" x="153" y="1154"/>
<text x="183" y="1170">
Infix</text>
</g>
</a>
<g class="character">
<rect height="22" rx="10" ry="10" width="52" x="223" y="1154"/>
<text x="249" y="1170">
HIDE</text>
</g>
<a class="link" xlink:href="#Term">
<g class="symbol">
<rect height="22" width="52" x="285" y="1154"/>
<text x="311" y="1170">
Term</text>
</g>
</a>
<path d=" M 213 1165 h 10"/>
<path d=" M 275 1165 h 10"/>
</g>
<path d=" M 347 1165 h 5 a 5 5 0 0 1 5 -5 a 5 5 0 0 1 5 5 a 5 5 0 0 1 -5 5 a 5 5 0 0 1 -5 -5"/>
<path d=" M 25 1165 h 10"/>
<path d=" M 143 1165 h 10"/>
<path d=" M 337 1165 h 10"/>
</g>
<g class="sequence">
<path d=" M 10 1199 a 5 5 0 0 1 5 -5 a 5 5 0 0 1 5 5 a 5 5 0 0 1 -5 5 a 5 5 0 0 1 -5 -5 m 10 0 h 5"/>
<text class="comment" id="Infix" x="57" y="1204">
Infix</text>
<g class="choice">
<path d=" M 90 1199 h 24 m 28 0 h 24"/>
<g class="string">
<rect height="22" rx="10" ry="10" width="28" x="114" y="1188"/>
<text x="128" y="1204">
+</text>
</g>
<path d=" M 90 1199 a 12 12 0 0 1 12 12 v 9 m 52 0 v -9 a 12 12 0 0 1 12 -12"/>
<path d=" M 102 1220 v 0 a 12 12 0 0 0 12 12 m 28 0 h 0 a 12 12 0 0 0 12 -12 v 0"/>
<g class="string">
<rect height="22" rx="10" ry="10" width="28" x="114" y="1221"/>
<text x="128" y="1237">
-</text>
</g>
</g>
<path d=" M 176 1199 h 5 a 5 5 0 0 1 5 -5 a 5 5 0 0 1 5 5 a 5 5 0 0 1 -5 5 a 5 5 0 0 1 -5 -5"/>
<path d=" M 25 1199 h 10"/>
<path d=" M 80 1199 h 10"/>
<path d=" M 166 1199 h 10"/>
</g>
<g class="sequence">
<path d=" M 10 1266 a 5 5 0 0 1 5 -5 a 5 5 0 0 1 5 5 a 5 5 0 0 1 -5 5 a 5 5 0 0 1 -5 -5 m 10 0 h 5"/>
<text class="comment" id="Term" x="54" y="1271">
Term</text>
<g class="sequence">
<g class="repeat">
<path d=" M 83 1266 h 12 m 130 0 h 12 m -12 0 a 12 12 0 0 1 12 12 v 7 a 12 12 0 0 1 -12 12 m -52 0 h -78 m 42 0 l 5 -5 m 0 10 l -5 -5 m -42 0 a 12 12 0 0 1 -12 -12 v -7 a 12 12 0 0 1 12 -12"/>
<text class="comment" x="199" y="1302">
[0, ∞]</text>
<g class="sequence">
<g class="character">
<rect height="22" rx="10" ry="10" width="52" x="95" y="1255"/>
<text x="121" y="1271">
HIDE</text>
</g>
<a class="link" xlink:href="#Prefix">
<g class="symbol">
<rect height="22" width="68" x="157" y="1255"/>
<text x="191" y="1271">
Prefix</text>
</g>
</a>
<path d=" M 147 1266 h 10"/>
</g>
</g>
<g class="character">
<rect height="22" rx="10" ry="10" width="52" x="247" y="1255"/>
<text x="273" y="1271">
HIDE</text>
</g>
<a class="link" xlink:href="#Atomic">
<g class="symbol">
<rect height="22" width="68" x="309" y="1255"/>
<text x="343" y="1271">
Atomic</text>
</g>
</a>
<g class="character">
<rect height="22" rx="10" ry="10" width="52" x="387" y="1255"/>
<text x="413" y="1271">
HIDE</text>
</g>
<g class="repeat">
<path d=" M 449 1266 h 12 m 130 0 h 12 m -12 0 a 12 12 0 0 1 12 12 v 7 a 12 12 0 0 1 -12 12 m -52 0 h -78 m 42 0 l 5 -5 m 0 10 l -5 -5 m -42 0 a 12 12 0 0 1 -12 -12 v -7 a 12 12 0 0 1 12 -12"/>
<text class="comment" x="565" y="1302">
[0, ∞]</text>
<g class="sequence">
<g class="character">
<rect height="22" rx="10" ry="10" width="52" x="461" y="1255"/>
<text x="487" y="1271">
HIDE</text>
</g>
<a class="link" xlink:href="#Suffix">
<g class="symbol">
<rect height="22" width="68" x="523" y="1255"/>
<text x="557" y="1271">
Suffix</text>
</g>
</a>
<path d=" M 513 1266 h 10"/>
</g>
</g>
<path d=" M 237 1266 h 10"/>
<path d=" M 299 1266 h 10"/>
<path d=" M 377 1266 h 10"/>
<path d=" M 439 1266 h 10"/>
</g>
<path d=" M 613 1266 h 5 a 5 5 0 0 1 5 -5 a 5 5 0 0 1 5 5 a 5 5 0 0 1 -5 5 a 5 5 0 0 1 -5 -5"/>
<path d=" M 25 1266 h 10"/>
<path d=" M 73 1266 h 10"/>
<path d=" M 603 1266 h 10"/>
</g>
<g class="sequence">
<path d=" M 10 1330 a 5 5 0 0 1 5 -5 a 5 5 0 0 1 5 5 a 5 5 0 0 1 -5 5 a 5 5 0 0 1 -5 -5 m 10 0 h 5"/>
<text class="comment" id="Prefix" x="61" y="1335">
Prefix</text>
<g class="choice">
<path d=" M 97 1330 h 0 m 28 0 h 0"/>
<g class="string">
<rect height="22" rx="10" ry="10" width="28" x="97" y="1319"/>
<text x="111" y="1335">
!</text>
</g>
</g>
<path d=" M 135 1330 h 5 a 5 5 0 0 1 5 -5 a 5 5 0 0 1 5 5 a 5 5 0 0 1 -5 5 a 5 5 0 0 1 -5 -5"/>
<path d=" M 25 1330 h 10"/>
<path d=" M 87 1330 h 10"/>
<path d=" M 125 1330 h 10"/>
</g>
<g class="sequence">
<path d=" M 10 1364 a 5 5 0 0 1 5 -5 a 5 5 0 0 1 5 5 a 5 5 0 0 1 -5 5 a 5 5 0 0 1 -5 -5 m 10 0 h 5"/>
<text class="comment" id="Suffix" x="61" y="1369">
Suffix</text>
<g class="choice">
<path d=" M 97 1364 h 24 m 28 0 h 72 m -33 0 l -5 -5 m 0 10 l 5 -5 m 33 0"/>
<g class="string">
<rect height="22" rx="10" ry="10" width="28" x="121" y="1353"/>
<text x="135" y="1369">
?</text>
</g>
<path d=" M 97 1364 a 12 12 0 0 1 12 12 v 9 m 100 0 v -9 a 12 12 0 0 1 12 -12"/>
<path d=" M 109 1385 v 0 a 12 12 0 0 0 12 12 m 76 0 h 0 a 12 12 0 0 0 12 -12 v 0"/>
<a class="link" xlink:href="#DotCall">
<g class="symbol">
<rect height="22" width="76" x="121" y="1386"/>
<text x="159" y="1402">
DotCall</text>
</g>
</a>
</g>
<path d=" M 231 1364 h 5 a 5 5 0 0 1 5 -5 a 5 5 0 0 1 5 5 a 5 5 0 0 1 -5 5 a 5 5 0 0 1 -5 -5"/>
<path d=" M 25 1364 h 10"/>
<path d=" M 87 1364 h 10"/>
<path d=" M 221 1364 h 10"/>
</g>
<g class="sequence">
<path d=" M 10 1444 a 5 5 0 0 1 5 -5 a 5 5 0 0 1 5 5 a 5 5 0 0 1 -5 5 a 5 5 0 0 1 -5 -5 m 10 0 h 5"/>
<text class="comment" id="FunctionCall" x="82" y="1449">
FunctionCall</text>
<g class="sequence">
<a class="link" xlink:href="#Namepath">
<g class="symbol">
<rect height="22" width="84" x="139" y="1433"/>
<text x="181" y="1449">
Namepath</text>
</g>
</a>
<g class="character">
<rect height="22" rx="10" ry="10" width="52" x="233" y="1433"/>
<text x="259" y="1449">
HIDE</text>
</g>
<g class="optional">
<path d=" M 295 1444 h 24 m -24 0 a 12 12 0 0 0 12 -12 v 0 a 12 12 0 0 1 12 -12 h 60 m -27 0 l -5 -5 m 0 10 l 5 -5 m 27 0 a 12 12 0 0 1 12 12 v 0 a 12 12 0 0 0 12 12 h -24"/>
<a class="link" xlink:href="#Tuple">
<g class="symbol">
<rect height="22" width="60" x="319" y="1433"/>
<text x="349" y="1449">
Tuple</text>
</g>
</a>
</g>
<path d=" M 223 1444 h 10"/>
<path d=" M 285 1444 h 10"/>
</g>
<path d=" M 413 1444 h 5 a 5 5 0 0 1 5 -5 a 5 5 0 0 1 5 5 a 5 5 0 0 1 -5 5 a 5 5 0 0 1 -5 -5"/>
<path d=" M 25 1444 h 10"/>
<path d=" M 129 1444 h 10"/>
<path d=" M 403 1444 h 10"/>
</g>
<g class="sequence">
<path d=" M 10 1491 a 5 5 0 0 1 5 -5 a 5 5 0 0 1 5 5 a 5 5 0 0 1 -5 5 a 5 5 0 0 1 -5 -5 m 10 0 h 5"/>
<text class="comment" id="DotCall" x="64" y="1496">
DotCall</text>
<g class="sequence">
<g class="string">
<rect height="22" rx="10" ry="10" width="28" x="104" y="1480"/>
<text x="118" y="1496">
.</text>
</g>
<g class="character">
<rect height="22" rx="10" ry="10" width="52" x="142" y="1480"/>
<text x="168" y="1496">
HIDE</text>
</g>
<a class="link" xlink:href="#Identifier">
<g class="symbol">
<rect height="22" width="100" x="204" y="1480"/>
<text x="254" y="1496">
Identifier</text>
</g>
</a>
<g class="character">
<rect height="22" rx="10" ry="10" width="52" x="314" y="1480"/>
<text x="340" y="1496">
HIDE</text>
</g>
<g class="optional">
<path d=" M 376 1491 h 24 m -24 0 a 12 12 0 0 0 12 -12 v 0 a 12 12 0 0 1 12 -12 h 60 m -27 0 l -5 -5 m 0 10 l 5 -5 m 27 0 a 12 12 0 0 1 12 12 v 0 a 12 12 0 0 0 12 12 h -24"/>
<a class="link" xlink:href="#Tuple">
<g class="symbol">
<rect height="22" width="60" x="400" y="1480"/>
<text x="430" y="1496">
Tuple</text>
</g>
</a>
</g>
<path d=" M 132 1491 h 10"/>
<path d=" M 194 1491 h 10"/>
<path d=" M 304 1491 h 10"/>
<path d=" M 366 1491 h 10"/>
</g>
<path d=" M 494 1491 h 5 a 5 5 0 0 1 5 -5 a 5 5 0 0 1 5 5 a 5 5 0 0 1 -5 5 a 5 5 0 0 1 -5 -5"/>
<path d=" M 25 1491 h 10"/>
<path d=" M 94 1491 h 10"/>
<path d=" M 484 1491 h 10"/>
</g>
<g class="sequence">
<path d=" M 10 1525 a 5 5 0 0 1 5 -5 a 5 5 0 0 1 5 5 a 5 5 0 0 1 -5 5 a 5 5 0 0 1 -5 -5 m 10 0 h 5"/>
<text class="comment" id="Tuple" x="57" y="1530">
Tuple</text>
<g class="choice">
<path d=" M 90 1525 h 24 m 128 0 h 758 m -376 0 l -5 -5 m 0 10 l 5 -5 m 376 0"/>
<g class="sequence">
<g class="string">
<rect height="22" rx="10" ry="10" width="28" x="114" y="1514"/>
<text x="128" y="1530">
(</text>
</g>
<g class="character">
<rect height="22" rx="10" ry="10" width="52" x="152" y="1514"/>
<text x="178" y="1530">
HIDE</text>
</g>
<g class="string">
<rect height="22" rx="10" ry="10" width="28" x="214" y="1514"/>
<text x="228" y="1530">
)</text>
</g>
<path d=" M 142 1525 h 10"/>
<path d=" M 204 1525 h 10"/>
</g>
<path d=" M 90 1525 a 12 12 0 0 1 12 12 v 9 m 886 0 v -9 a 12 12 0 0 1 12 -12"/>
<path d=" M 102 1546 v 33 m 886 0 v -33"/>
<path d=" M 102 1546 v 0 a 12 12 0 0 0 12 12 m 424 0 h 438 m -216 0 l -5 -5 m 0 10 l 5 -5 m 216 0 a 12 12 0 0 0 12 -12 v 0"/>
<g class="sequence">
<g class="string">
<rect height="22" rx="10" ry="10" width="28" x="114" y="1547"/>
<text x="128" y="1563">
(</text>
</g>
<g class="character">
<rect height="22" rx="10" ry="10" width="52" x="152" y="1547"/>
<text x="178" y="1563">
HIDE</text>
</g>
<a class="link" xlink:href="#Arguement">
<g class="symbol">
<rect height="22" width="92" x="214" y="1547"/>
<text x="260" y="1563">
Arguement</text>
</g>
</a>
<g class="character">
<rect height="22" rx="10" ry="10" width="52" x="316" y="1547"/>
<text x="342" y="1563">
HIDE</text>
</g>
<a class="link" xlink:href="#COMMA">
<g class="symbol">
<rect height="22" width="60" x="378" y="1547"/>
<text x="408" y="1563">
COMMA</text>
</g>
</a>
<g class="character">
<rect height="22" rx="10" ry="10" width="52" x="448" y="1547"/>
<text x="474" y="1563">
HIDE</text>
</g>
<g class="string">
<rect height="22" rx="10" ry="10" width="28" x="510" y="1547"/>
<text x="524" y="1563">
)</text>
</g>
<path d=" M 142 1558 h 10"/>
<path d=" M 204 1558 h 10"/>
<path d=" M 306 1558 h 10"/>
<path d=" M 368 1558 h 10"/>
<path d=" M 438 1558 h 10"/>
<path d=" M 500 1558 h 10"/>
</g>
<path d=" M 102 1579 v 12 a 12 12 0 0 0 12 12 m 862 0 h 0 a 12 12 0 0 0 12 -12 v -12"/>
<g class="sequence">
<g class="string">
<rect height="22" rx="10" ry="10" width="28" x="114" y="1592"/>
<text x="128" y="1608">
(</text>
</g>
<g class="character">
<rect height="22" rx="10" ry="10" width="52" x="152" y="1592"/>
<text x="178" y="1608">
HIDE</text>
</g>
<a class="link" xlink:href="#Arguement">
<g class="symbol">
<rect height="22" width="92" x="214" y="1592"/>
<text x="260" y="1608">
Arguement</text>
</g>
</a>
<g class="character">
<rect height="22" rx="10" ry="10" width="52" x="316" y="1592"/>
<text x="342" y="1608">
HIDE</text>
</g>
<g class="repeat">
<path d=" M 378 1603 h 12 m 294 0 h 12 m -12 0 a 12 12 0 0 1 12 12 v 7 a 12 12 0 0 1 -12 12 m -52 0 h -242 m 124 0 l 5 -5 m 0 10 l -5 -5 m -124 0 a 12 12 0 0 1 -12 -12 v -7 a 12 12 0 0 1 12 -12"/>
<text class="comment" x="658" y="1639">
[0, ∞]</text>
<g class="sequence">
<g class="character">
<rect height="22" rx="10" ry="10" width="52" x="390" y="1592"/>
<text x="416" y="1608">
HIDE</text>
</g>
<g class="sequence">
<a class="link" xlink:href="#COMMA">
<g class="symbol">
<rect height="22" width="60" x="452" y="1592"/>
<text x="482" y="1608">
COMMA</text>
</g>
</a>
<g class="character">
<rect height="22" rx="10" ry="10" width="52" x="522" y="1592"/>
<text x="548" y="1608">
HIDE</text>
</g>
<a class="link" xlink:href="#Expression">
<g class="symbol">
<rect height="22" width="100" x="584" y="1592"/>
<text x="634" y="1608">
Expression</text>
</g>
</a>
<path d=" M 512 1603 h 10"/>
<path d=" M 574 1603 h 10"/>
</g>
<path d=" M 442 1603 h 10"/>
</g>
</g>
<g class="character">
<rect height="22" rx="10" ry="10" width="52" x="706" y="1592"/>
<text x="732" y="1608">
HIDE</text>
</g>
<g class="optional">
<path d=" M 768 1603 h 24 m -24 0 a 12 12 0 0 0 12 -12 v 0 a 12 12 0 0 1 12 -12 h 60 m -27 0 l -5 -5 m 0 10 l 5 -5 m 27 0 a 12 12 0 0 1 12 12 v 0 a 12 12 0 0 0 12 12 h -24"/>
<a class="link" xlink:href="#COMMA">
<g class="symbol">
<rect height="22" width="60" x="792" y="1592"/>
<text x="822" y="1608">
COMMA</text>
</g>
</a>
</g>
<g class="character">
<rect height="22" rx="10" ry="10" width="52" x="886" y="1592"/>
<text x="912" y="1608">
HIDE</text>
</g>
<g class="string">
<rect height="22" rx="10" ry="10" width="28" x="948" y="1592"/>
<text x="962" y="1608">
)</text>
</g>
<path d=" M 142 1603 h 10"/>
<path d=" M 204 1603 h 10"/>
<path d=" M 306 1603 h 10"/>
<path d=" M 368 1603 h 10"/>
<path d=" M 696 1603 h 10"/>
<path d=" M 758 1603 h 10"/>
<path d=" M 876 1603 h 10"/>
<path d=" M 938 1603 h 10"/>
</g>
</g>
<path d=" M 1010 1525 h 5 a 5 5 0 0 1 5 -5 a 5 5 0 0 1 5 5 a 5 5 0 0 1 -5 5 a 5 5 0 0 1 -5 -5"/>
<path d=" M 25 1525 h 10"/>
<path d=" M 80 1525 h 10"/>
<path d=" M 1000 1525 h 10"/>
</g>
<g class="sequence">
<path d=" M 10 1667 a 5 5 0 0 1 5 -5 a 5 5 0 0 1 5 5 a 5 5 0 0 1 -5 5 a 5 5 0 0 1 -5 -5 m 10 0 h 5"/>
<text class="comment" id="Arguement" x="71" y="1672">
Arguement</text>
<g class="sequence">
<a class="link" xlink:href="#Key">
<g class="symbol">
<rect height="22" width="44" x="118" y="1656"/>
<text x="140" y="1672">
Key</text>
</g>
</a>
<g class="character">
<rect height="22" rx="10" ry="10" width="52" x="172" y="1656"/>
<text x="198" y="1672">
HIDE</text>
</g>
<a class="link" xlink:href="#COLON">
<g class="symbol">
<rect height="22" width="60" x="234" y="1656"/>
<text x="264" y="1672">
COLON</text>
</g>
</a>
<g class="character">
<rect height="22" rx="10" ry="10" width="52" x="304" y="1656"/>
<text x="330" y="1672">
HIDE</text>
</g>
<a class="link" xlink:href="#Expression">
<g class="symbol">
<rect height="22" width="100" x="366" y="1656"/>
<text x="416" y="1672">
Expression</text>
</g>
</a>
<path d=" M 162 1667 h 10"/>
<path d=" M 224 1667 h 10"/>
<path d=" M 294 1667 h 10"/>
<path d=" M 356 1667 h 10"/>
</g>
<path d=" M 476 1667 h 5 a 5 5 0 0 1 5 -5 a 5 5 0 0 1 5 5 a 5 5 0 0 1 -5 5 a 5 5 0 0 1 -5 -5"/>
<path d=" M 25 1667 h 10"/>
<path d=" M 108 1667 h 10"/>
<path d=" M 466 1667 h 10"/>
</g>
<g class="sequence">
<path d=" M 10 1701 a 5 5 0 0 1 5 -5 a 5 5 0 0 1 5 5 a 5 5 0 0 1 -5 5 a 5 5 0 0 1 -5 -5 m 10 0 h 5"/>
<text class="comment" id="Key" x="50" y="1706">
Key</text>
<g class="choice">
<path d=" M 76 1701 h 0 m 100 0 h 0"/>
<a class="link" xlink:href="#Identifier">
<g class="symbol">
<rect height="22" width="100" x="76" y="1690"/>
<text x="126" y="1706">
Identifier</text>
</g>
</a>
</g>
<path d=" M 186 1701 h 5 a 5 5 0 0 1 5 -5 a 5 5 0 0 1 5 5 a 5 5 0 0 1 -5 5 a 5 5 0 0 1 -5 -5"/>
<path d=" M 25 1701 h 10"/>
<path d=" M 66 1701 h 10"/>
<path d=" M 176 1701 h 10"/>
</g>
<g class="sequence">
<path d=" M 10 1735 a 5 5 0 0 1 5 -5 a 5 5 0 0 1 5 5 a 5 5 0 0 1 -5 5 a 5 5 0 0 1 -5 -5 m 10 0 h 5"/>
<text class="comment" id="Atomic" x="61" y="1740">
Atomic</text>
<g class="choice">
<path d=" M 97 1735 h 24 m 140 0 h 24"/>
<a class="link" xlink:href="#GroupExpression">
<g class="symbol">
<rect height="22" width="140" x="121" y="1724"/>
<text x="191" y="1740">
GroupExpression</text>
</g>
</a>
<path d=" M 97 1735 a 12 12 0 0 1 12 12 v 9 m 164 0 v -9 a 12 12 0 0 1 12 -12"/>
<path d=" M 109 1756 v 33 m 164 0 v -33"/>
<path d=" M 109 1789 v 33 m 164 0 v -33"/>
<path d=" M 109 1822 v 33 m 164 0 v -33"/>
<path d=" M 109 1855 v 33 m 164 0 v -33"/>
<path d=" M 109 1756 v 0 a 12 12 0 0 0 12 12 m 60 0 h 80 m -37 0 l -5 -5 m 0 10 l 5 -5 m 37 0 a 12 12 0 0 0 12 -12 v 0"/>
<a class="link" xlink:href="#Tuple">
<g class="symbol">
<rect height="22" width="60" x="121" y="1757"/>
<text x="151" y="1773">
Tuple</text>
</g>
</a>
<path d=" M 109 1789 v 0 a 12 12 0 0 0 12 12 m 76 0 h 64 m -29 0 l -5 -5 m 0 10 l 5 -5 m 29 0 a 12 12 0 0 0 12 -12 v 0"/>
<a class="link" xlink:href="#Special">
<g class="symbol">
<rect height="22" width="76" x="121" y="1790"/>
<text x="159" y="1806">
Special</text>
</g>
</a>
<path d=" M 109 1822 v 0 a 12 12 0 0 0 12 12 m 116 0 h 24 a 12 12 0 0 0 12 -12 v 0"/>
<a class="link" xlink:href="#FunctionCall">
<g class="symbol">
<rect height="22" width="116" x="121" y="1823"/>
<text x="179" y="1839">
FunctionCall</text>
</g>
</a>
<path d=" M 109 1855 v 0 a 12 12 0 0 0 12 12 m 100 0 h 40 a 12 12 0 0 0 12 -12 v 0"/>
<a class="link" xlink:href="#Identifier">
<g class="symbol">
<rect height="22" width="100" x="121" y="1856"/>
<text x="171" y="1872">
Identifier</text>
</g>
</a>
<path d=" M 109 1888 v 0 a 12 12 0 0 0 12 12 m 68 0 h 72 m -33 0 l -5 -5 m 0 10 l 5 -5 m 33 0 a 12 12 0 0 0 12 -12 v 0"/>
<a class="link" xlink:href="#Number">
<g class="symbol">
<rect height="22" width="68" x="121" y="1889"/>
<text x="155" y="1905">
Number</text>
</g>
</a>
</g>
<path d=" M 295 1735 h 5 a 5 5 0 0 1 5 -5 a 5 5 0 0 1 5 5 a 5 5 0 0 1 -5 5 a 5 5 0 0 1 -5 -5"/>
<path d=" M 25 1735 h 10"/>
<path d=" M 87 1735 h 10"/>
<path d=" M 285 1735 h 10"/>
</g>
<g class="sequence">
<path d=" M 10 1934 a 5 5 0 0 1 5 -5 a 5 5 0 0 1 5 5 a 5 5 0 0 1 -5 5 a 5 5 0 0 1 -5 -5 m 10 0 h 5"/>
<text class="comment" id="GroupExpression" x="92" y="1939">
GroupExpression</text>
<g class="sequence">
<g class="string">
<rect height="22" rx="10" ry="10" width="28" x="160" y="1923"/>
<text x="174" y="1939">
(</text>
</g>
<g class="character">
<rect height="22" rx="10" ry="10" width="52" x="198" y="1923"/>
<text x="224" y="1939">
HIDE</text>
</g>
<a class="link" xlink:href="#Expression">
<g class="symbol">
<rect height="22" width="100" x="260" y="1923"/>
<text x="310" y="1939">
Expression</text>
</g>
</a>
<g class="character">
<rect height="22" rx="10" ry="10" width="52" x="370" y="1923"/>
<text x="396" y="1939">
HIDE</text>
</g>
<g class="string">
<rect height="22" rx="10" ry="10" width="28" x="432" y="1923"/>
<text x="446" y="1939">
)</text>
</g>
<path d=" M 188 1934 h 10"/>
<path d=" M 250 1934 h 10"/>
<path d=" M 360 1934 h 10"/>
<path d=" M 422 1934 h 10"/>
</g>
<path d=" M 470 1934 h 5 a 5 5 0 0 1 5 -5 a 5 5 0 0 1 5 5 a 5 5 0 0 1 -5 5 a 5 5 0 0 1 -5 -5"/>
<path d=" M 25 1934 h 10"/>
<path d=" M 150 1934 h 10"/>
<path d=" M 460 1934 h 10"/>
</g>
<g class="sequence">
<path d=" M 10 1968 a 5 5 0 0 1 5 -5 a 5 5 0 0 1 5 5 a 5 5 0 0 1 -5 5 a 5 5 0 0 1 -5 -5 m 10 0 h 5"/>
<text class="comment" id="DEC" x="50" y="1973">
DEC</text>
<g class="string">
<rect height="22" rx="10" ry="10" width="220" x="76" y="1957"/>
<text x="186" y="1973">
(0|[1-9][0-9])(.[0-9]+)?</text>
</g>
<path d=" M 306 1968 h 5 a 5 5 0 0 1 5 -5 a 5 5 0 0 1 5 5 a 5 5 0 0 1 -5 5 a 5 5 0 0 1 -5 -5"/>
<path d=" M 25 1968 h 10"/>
<path d=" M 66 1968 h 10"/>
<path d=" M 296 1968 h 10"/>
</g>
<g class="sequence">
<path d=" M 10 2002 a 5 5 0 0 1 5 -5 a 5 5 0 0 1 5 5 a 5 5 0 0 1 -5 5 a 5 5 0 0 1 -5 -5 m 10 0 h 5"/>
<text class="comment" id="BIN" x="50" y="2007">
BIN</text>
<g class="string">
<rect height="22" rx="10" ry="10" width="84" x="76" y="1991"/>
<text x="118" y="2007">
0b[0-1]+</text>
</g>
<path d=" M 170 2002 h 5 a 5 5 0 0 1 5 -5 a 5 5 0 0 1 5 5 a 5 5 0 0 1 -5 5 a 5 5 0 0 1 -5 -5"/>
<path d=" M 25 2002 h 10"/>
<path d=" M 66 2002 h 10"/>
<path d=" M 160 2002 h 10"/>
</g>
<g class="sequence">
<path d=" M 10 2036 a 5 5 0 0 1 5 -5 a 5 5 0 0 1 5 5 a 5 5 0 0 1 -5 5 a 5 5 0 0 1 -5 -5 m 10 0 h 5"/>
<text class="comment" id="OCT" x="50" y="2041">
OCT</text>
<g class="string">
<rect height="22" rx="10" ry="10" width="84" x="76" y="2025"/>
<text x="118" y="2041">
0o[0-7]+</text>
</g>
<path d=" M 170 2036 h 5 a 5 5 0 0 1 5 -5 a 5 5 0 0 1 5 5 a 5 5 0 0 1 -5 5 a 5 5 0 0 1 -5 -5"/>
<path d=" M 25 2036 h 10"/>
<path d=" M 66 2036 h 10"/>
<path d=" M 160 2036 h 10"/>
</g>
<g class="sequence">
<path d=" M 10 2070 a 5 5 0 0 1 5 -5 a 5 5 0 0 1 5 5 a 5 5 0 0 1 -5 5 a 5 5 0 0 1 -5 -5 m 10 0 h 5"/>
<text class="comment" id="HEX" x="50" y="2075">
HEX</text>
<g class="string">
<rect height="22" rx="10" ry="10" width="132" x="76" y="2059"/>
<text x="142" y="2075">
0x[0-9a-fA-F]+</text>
</g>
<path d=" M 218 2070 h 5 a 5 5 0 0 1 5 -5 a 5 5 0 0 1 5 5 a 5 5 0 0 1 -5 5 a 5 5 0 0 1 -5 -5"/>
<path d=" M 25 2070 h 10"/>
<path d=" M 66 2070 h 10"/>
<path d=" M 208 2070 h 10"/>
</g>
<g class="sequence">
<path d=" M 10 2104 a 5 5 0 0 1 5 -5 a 5 5 0 0 1 5 5 a 5 5 0 0 1 -5 5 a 5 5 0 0 1 -5 -5 m 10 0 h 5"/>
<text class="comment" id="Unit" x="54" y="2109">
Unit</text>
<a class="link" xlink:href="#Identifier">
<g class="symbol">
<rect height="22" width="100" x="83" y="2093"/>
<text x="133" y="2109">
Identifier</text>
</g>
</a>
<path d=" M 193 2104 h 5 a 5 5 0 0 1 5 -5 a 5 5 0 0 1 5 5 a 5 5 0 0 1 -5 5 a 5 5 0 0 1 -5 -5"/>
<path d=" M 25 2104 h 10"/>
<path d=" M 73 2104 h 10"/>
<path d=" M 183 2104 h 10"/>
</g>
<g class="sequence">
<path d=" M 10 2138 a 5 5 0 0 1 5 -5 a 5 5 0 0 1 5 5 a 5 5 0 0 1 -5 5 a 5 5 0 0 1 -5 -5 m 10 0 h 5"/>
<text class="comment" id="String" x="61" y="2143">
String</text>
<g class="choice">
<path d=" M 97 2138 h 24 m 66 0 h 24"/>
<g class="sequence">
<g class="string">
<rect height="22" rx="10" ry="10" width="28" x="121" y="2127"/>
<text x="135" y="2143">
&#x27;</text>
</g>
<g class="string">
<rect height="22" rx="10" ry="10" width="28" x="159" y="2127"/>
<text x="173" y="2143">
&#x27;</text>
</g>
<path d=" M 149 2138 h 10"/>
</g>
<path d=" M 97 2138 a 12 12 0 0 1 12 12 v 9 m 90 0 v -9 a 12 12 0 0 1 12 -12"/>
<path d=" M 109 2159 v 0 a 12 12 0 0 0 12 12 m 66 0 h 0 a 12 12 0 0 0 12 -12 v 0"/>
<g class="sequence">
<g class="string">
<rect height="22" rx="10" ry="10" width="28" x="121" y="2160"/>
<text x="135" y="2176">
&quot;</text>
</g>
<g class="string">
<rect height="22" rx="10" ry="10" width="28" x="159" y="2160"/>
<text x="173" y="2176">
&quot;</text>
</g>
<path d=" M 149 2171 h 10"/>
</g>
</g>
<path d=" M 221 2138 h 5 a 5 5 0 0 1 5 -5 a 5 5 0 0 1 5 5 a 5 5 0 0 1 -5 5 a 5 5 0 0 1 -5 -5"/>
<path d=" M 25 2138 h 10"/>
<path d=" M 87 2138 h 10"/>
<path d=" M 211 2138 h 10"/>
</g>
<g class="sequence">
<path d=" M 10 2205 a 5 5 0 0 1 5 -5 a 5 5 0 0 1 5 5 a 5 5 0 0 1 -5 5 a 5 5 0 0 1 -5 -5 m 10 0 h 5"/>
<text class="comment" id="NamepathFree" x="82" y="2210">
NamepathFree</text>
<g class="sequence">
<a class="link" xlink:href="#Identifier">
<g class="symbol">
<rect height="22" width="100" x="139" y="2194"/>
<text x="189" y="2210">
Identifier</text>
</g>
</a>
<g class="character">
<rect height="22" rx="10" ry="10" width="52" x="249" y="2194"/>
<text x="275" y="2210">
HIDE</text>
</g>
<g class="repeat">
<path d=" M 311 2205 h 12 m 318 0 h 12 m -12 0 a 12 12 0 0 1 12 12 v 40 a 12 12 0 0 1 -12 12 m -52 0 h -266 m 136 0 l 5 -5 m 0 10 l -5 -5 m -136 0 a 12 12 0 0 1 -12 -12 v -40 a 12 12 0 0 1 12 -12"/>
<text class="comment" x="615" y="2274">
[0, ∞]</text>
<g class="sequence">
<g class="character">
<rect height="22" rx="10" ry="10" width="52" x="323" y="2194"/>
<text x="349" y="2210">
HIDE</text>
</g>
<g class="sequence">
<g class="choice">
<path d=" M 385 2205 h 24 m 28 0 h 32"/>
<g class="string">
<rect height="22" rx="10" ry="10" width="28" x="409" y="2194"/>
<text x="423" y="2210">
.</text>
</g>
<path d=" M 385 2205 a 12 12 0 0 1 12 12 v 9 m 60 0 v -9 a 12 12 0 0 1 12 -12"/>
<path d=" M 397 2226 v 0 a 12 12 0 0 0 12 12 m 36 0 h 0 a 12 12 0 0 0 12 -12 v 0"/>
<g class="string">
<rect height="22" rx="10" ry="10" width="36" x="409" y="2227"/>
<text x="427" y="2243">
::</text>
</g>
</g>
<g class="character">
<rect height="22" rx="10" ry="10" width="52" x="479" y="2194"/>
<text x="505" y="2210">
HIDE</text>
</g>
<a class="link" xlink:href="#Identifier">
<g class="symbol">
<rect height="22" width="100" x="541" y="2194"/>
<text x="591" y="2210">
Identifier</text>
</g>
</a>
<path d=" M 469 2205 h 10"/>
<path d=" M 531 2205 h 10"/>
</g>
<path d=" M 375 2205 h 10"/>
</g>
</g>
<path d=" M 239 2205 h 10"/>
<path d=" M 301 2205 h 10"/>
</g>
<path d=" M 663 2205 h 5 a 5 5 0 0 1 5 -5 a 5 5 0 0 1 5 5 a 5 5 0 0 1 -5 5 a 5 5 0 0 1 -5 -5"/>
<path d=" M 25 2205 h 10"/>
<path d=" M 129 2205 h 10"/>
<path d=" M 653 2205 h 10"/>
</g>
<g class="sequence">
<path d=" M 10 2302 a 5 5 0 0 1 5 -5 a 5 5 0 0 1 5 5 a 5 5 0 0 1 -5 5 a 5 5 0 0 1 -5 -5 m 10 0 h 5"/>
<text class="comment" id="Namepath" x="68" y="2307">
Namepath</text>
<g class="sequence">
<a class="link" xlink:href="#Identifier">
<g class="symbol">
<rect height="22" width="100" x="111" y="2291"/>
<text x="161" y="2307">
Identifier</text>
</g>
</a>
<g class="character">
<rect height="22" rx="10" ry="10" width="52" x="221" y="2291"/>
<text x="247" y="2307">
HIDE</text>
</g>
<g class="repeat">
<path d=" M 283 2302 h 12 m 270 0 h 12 m -12 0 a 12 12 0 0 1 12 12 v 7 a 12 12 0 0 1 -12 12 m -52 0 h -218 m 112 0 l 5 -5 m 0 10 l -5 -5 m -112 0 a 12 12 0 0 1 -12 -12 v -7 a 12 12 0 0 1 12 -12"/>
<text class="comment" x="539" y="2338">
[0, ∞]</text>
<g class="sequence">
<g class="character">
<rect height="22" rx="10" ry="10" width="52" x="295" y="2291"/>
<text x="321" y="2307">
HIDE</text>
</g>
<g class="sequence">
<g class="string">
<rect height="22" rx="10" ry="10" width="36" x="357" y="2291"/>
<text x="375" y="2307">
::</text>
</g>
<g class="character">
<rect height="22" rx="10" ry="10" width="52" x="403" y="2291"/>
<text x="429" y="2307">
HIDE</text>
</g>
<a class="link" xlink:href="#Identifier">
<g class="symbol">
<rect height="22" width="100" x="465" y="2291"/>
<text x="515" y="2307">
Identifier</text>
</g>
</a>
<path d=" M 393 2302 h 10"/>
<path d=" M 455 2302 h 10"/>
</g>
<path d=" M 347 2302 h 10"/>
</g>
</g>
<path d=" M 211 2302 h 10"/>
<path d=" M 273 2302 h 10"/>
</g>
<path d=" M 587 2302 h 5 a 5 5 0 0 1 5 -5 a 5 5 0 0 1 5 5 a 5 5 0 0 1 -5 5 a 5 5 0 0 1 -5 -5"/>
<path d=" M 25 2302 h 10"/>
<path d=" M 101 2302 h 10"/>
<path d=" M 577 2302 h 10"/>
</g>
<g class="sequence">
<path d=" M 10 2366 a 5 5 0 0 1 5 -5 a 5 5 0 0 1 5 5 a 5 5 0 0 1 -5 5 a 5 5 0 0 1 -5 -5 m 10 0 h 5"/>
<text class="comment" id="Identifier" x="75" y="2371">
Identifier</text>
<g class="string">
<rect height="22" rx="10" ry="10" width="292" x="125" y="2355"/>
<text x="271" y="2371">
[_\p{XID_start}]\p{XID_continue}*</text>
</g>
<path d=" M 427 2366 h 5 a 5 5 0 0 1 5 -5 a 5 5 0 0 1 5 5 a 5 5 0 0 1 -5 5 a 5 5 0 0 1 -5 -5"/>
<path d=" M 25 2366 h 10"/>
<path d=" M 115 2366 h 10"/>
<path d=" M 417 2366 h 10"/>
</g>
<g class="sequence">
<path d=" M 10 2413 a 5 5 0 0 1 5 -5 a 5 5 0 0 1 5 5 a 5 5 0 0 1 -5 5 a 5 5 0 0 1 -5 -5 m 10 0 h 5"/>
<text class="comment" id="TEMPLATE_L" x="75" y="2418">
TEMPLATE_L</text>
<g class="sequence">
<g class="string">
<rect height="22" rx="10" ry="10" width="36" x="125" y="2402"/>
<text x="143" y="2418">
&lt;%</text>
</g>
<g class="optional">
<path d=" M 171 2413 h 24 m -24 0 a 12 12 0 0 0 12 -12 v 0 a 12 12 0 0 1 12 -12 h 116 m -55 0 l -5 -5 m 0 10 l 5 -5 m 55 0 a 12 12 0 0 1 12 12 v 0 a 12 12 0 0 0 12 12 h -24"/>
<a class="link" xlink:href="#SpaceControl">
<g class="symbol">
<rect height="22" width="116" x="195" y="2402"/>
<text x="253" y="2418">
SpaceControl</text>
</g>
</a>
</g>
<path d=" M 161 2413 h 10"/>
</g>
<path d=" M 345 2413 h 5 a 5 5 0 0 1 5 -5 a 5 5 0 0 1 5 5 a 5 5 0 0 1 -5 5 a 5 5 0 0 1 -5 -5"/>
<path d=" M 25 2413 h 10"/>
<path d=" M 115 2413 h 10"/>
<path d=" M 335 2413 h 10"/>
</g>
<g class="sequence">
<path d=" M 10 2460 a 5 5 0 0 1 5 -5 a 5 5 0 0 1 5 5 a 5 5 0 0 1 -5 5 a 5 5 0 0 1 -5 -5 m 10 0 h 5"/>
<text class="comment" id="TEMPLATE_R" x="75" y="2465">
TEMPLATE_R</text>
<g class="sequence">
<g class="optional">
<path d=" M 125 2460 h 24 m -24 0 a 12 12 0 0 0 12 -12 v 0 a 12 12 0 0 1 12 -12 h 116 m -55 0 l -5 -5 m 0 10 l 5 -5 m 55 0 a 12 12 0 0 1 12 12 v 0 a 12 12 0 0 0 12 12 h -24"/>
<a class="link" xlink:href="#SpaceControl">
<g class="symbol">
<rect height="22" width="116" x="149" y="2449"/>
<text x="207" y="2465">
SpaceControl</text>
</g>
</a>
</g>
<g class="string">
<rect height="22" rx="10" ry="10" width="36" x="299" y="2449"/>
<text x="317" y="2465">
%&gt;</text>
</g>
<path d=" M 289 2460 h 10"/>
</g>
<path d=" M 345 2460 h 5 a 5 5 0 0 1 5 -5 a 5 5 0 0 1 5 5 a 5 5 0 0 1 -5 5 a 5 5 0 0 1 -5 -5"/>
<path d=" M 25 2460 h 10"/>
<path d=" M 115 2460 h 10"/>
<path d=" M 335 2460 h 10"/>
</g>
<g class="sequence">
<path d=" M 10 2494 a 5 5 0 0 1 5 -5 a 5 5 0 0 1 5 5 a 5 5 0 0 1 -5 5 a 5 5 0 0 1 -5 -5 m 10 0 h 5"/>
<text class="comment" id="SpaceControl" x="82" y="2499">
SpaceControl</text>
<g class="choice">
<path d=" M 139 2494 h 24 m 28 0 h 24"/>
<g class="string">
<rect height="22" rx="10" ry="10" width="28" x="163" y="2483"/>
<text x="177" y="2499">
=</text>
</g>
<path d=" M 139 2494 a 12 12 0 0 1 12 12 v 9 m 52 0 v -9 a 12 12 0 0 1 12 -12"/>
<path d=" M 151 2515 v 33 m 52 0 v -33"/>
<path d=" M 151 2548 v 33 m 52 0 v -33"/>
<path d=" M 151 2581 v 33 m 52 0 v -33"/>
<path d=" M 151 2515 v 0 a 12 12 0 0 0 12 12 m 28 0 h 0 a 12 12 0 0 0 12 -12 v 0"/>
<g class="string">
<rect height="22" rx="10" ry="10" width="28" x="163" y="2516"/>
<text x="177" y="2532">
~</text>
</g>
<path d=" M 151 2548 v 0 a 12 12 0 0 0 12 12 m 28 0 h 0 a 12 12 0 0 0 12 -12 v 0"/>
<g class="string">
<rect height="22" rx="10" ry="10" width="28" x="163" y="2549"/>
<text x="177" y="2565">
-</text>
</g>
<path d=" M 151 2581 v 0 a 12 12 0 0 0 12 12 m 28 0 h 0 a 12 12 0 0 0 12 -12 v 0"/>
<g class="string">
<rect height="22" rx="10" ry="10" width="28" x="163" y="2582"/>
<text x="177" y="2598">
_</text>
</g>
<path d=" M 151 2614 v 0 a 12 12 0 0 0 12 12 m 28 0 h 0 a 12 12 0 0 0 12 -12 v 0"/>
<g class="string">
<rect height="22" rx="10" ry="10" width="28" x="163" y="2615"/>
<text x="177" y="2631">
.</text>
</g>
</g>
<path d=" M 225 2494 h 5 a 5 5 0 0 1 5 -5 a 5 5 0 0 1 5 5 a 5 5 0 0 1 -5 5 a 5 5 0 0 1 -5 -5"/>
<path d=" M 25 2494 h 10"/>
<path d=" M 129 2494 h 10"/>
<path d=" M 215 2494 h 10"/>
</g>
<g class="sequence">
<path d=" M 10 2660 a 5 5 0 0 1 5 -5 a 5 5 0 0 1 5 5 a 5 5 0 0 1 -5 5 a 5 5 0 0 1 -5 -5 m 10 0 h 5"/>
<text class="comment" id="Infix0" x="61" y="2665">
Infix0</text>
<g class="string">
<rect height="22" rx="10" ry="10" width="28" x="97" y="2649"/>
<text x="111" y="2665">
+</text>
</g>
<path d=" M 135 2660 h 5 a 5 5 0 0 1 5 -5 a 5 5 0 0 1 5 5 a 5 5 0 0 1 -5 5 a 5 5 0 0 1 -5 -5"/>
<path d=" M 25 2660 h 10"/>
<path d=" M 87 2660 h 10"/>
<path d=" M 125 2660 h 10"/>
</g>
<g class="sequence">
<path d=" M 10 2694 a 5 5 0 0 1 5 -5 a 5 5 0 0 1 5 5 a 5 5 0 0 1 -5 5 a 5 5 0 0 1 -5 -5 m 10 0 h 5"/>
<text class="comment" id="Infix1" x="61" y="2699">
Infix1</text>
<g class="string">
<rect height="22" rx="10" ry="10" width="28" x="97" y="2683"/>
<text x="111" y="2699">
-</text>
</g>
<path d=" M 135 2694 h 5 a 5 5 0 0 1 5 -5 a 5 5 0 0 1 5 5 a 5 5 0 0 1 -5 5 a 5 5 0 0 1 -5 -5"/>
<path d=" M 25 2694 h 10"/>
<path d=" M 87 2694 h 10"/>
<path d=" M 125 2694 h 10"/>
</g>
<g class="sequence">
<path d=" M 10 2728 a 5 5 0 0 1 5 -5 a 5 5 0 0 1 5 5 a 5 5 0 0 1 -5 5 a 5 5 0 0 1 -5 -5 m 10 0 h 5"/>
<text class="comment" id="Prefix0" x="64" y="2733">
Prefix0</text>
<g class="string">
<rect height="22" rx="10" ry="10" width="28" x="104" y="2717"/>
<text x="118" y="2733">
!</text>
</g>
<path d=" M 142 2728 h 5 a 5 5 0 0 1 5 -5 a 5 5 0 0 1 5 5 a 5 5 0 0 1 -5 5 a 5 5 0 0 1 -5 -5"/>
<path d=" M 25 2728 h 10"/>
<path d=" M 94 2728 h 10"/>
<path d=" M 132 2728 h 10"/>
</g>
<g class="sequence">
<path d=" M 10 2762 a 5 5 0 0 1 5 -5 a 5 5 0 0 1 5 5 a 5 5 0 0 1 -5 5 a 5 5 0 0 1 -5 -5 m 10 0 h 5"/>
<text class="comment" id="Suffix0" x="64" y="2767">
Suffix0</text>
<g class="string">
<rect height="22" rx="10" ry="10" width="28" x="104" y="2751"/>
<text x="118" y="2767">
?</text>
</g>
<path d=" M 142 2762 h 5 a 5 5 0 0 1 5 -5 a 5 5 0 0 1 5 5 a 5 5 0 0 1 -5 5 a 5 5 0 0 1 -5 -5"/>
<path d=" M 25 2762 h 10"/>
<path d=" M 94 2762 h 10"/>
<path d=" M 132 2762 h 10"/>
</g>
<g class="sequence">
<path d=" M 10 2796 a 5 5 0 0 1 5 -5 a 5 5 0 0 1 5 5 a 5 5 0 0 1 -5 5 a 5 5 0 0 1 -5 -5 m 10 0 h 5"/>
<text class="comment" id="Special0" x="68" y="2801">
Special0</text>
<g class="string">
<rect height="22" rx="10" ry="10" width="52" x="111" y="2785"/>
<text x="137" y="2801">
null</text>
</g>
<path d=" M 173 2796 h 5 a 5 5 0 0 1 5 -5 a 5 5 0 0 1 5 5 a 5 5 0 0 1 -5 5 a 5 5 0 0 1 -5 -5"/>
<path d=" M 25 2796 h 10"/>
<path d=" M 101 2796 h 10"/>
<path d=" M 163 2796 h 10"/>
</g>
<g class="sequence">
<path d=" M 10 2830 a 5 5 0 0 1 5 -5 a 5 5 0 0 1 5 5 a 5 5 0 0 1 -5 5 a 5 5 0 0 1 -5 -5 m 10 0 h 5"/>
<text class="comment" id="Special1" x="68" y="2835">
Special1</text>
<g class="string">
<rect height="22" rx="10" ry="10" width="52" x="111" y="2819"/>
<text x="137" y="2835">
true</text>
</g>
<path d=" M 173 2830 h 5 a 5 5 0 0 1 5 -5 a 5 5 0 0 1 5 5 a 5 5 0 0 1 -5 5 a 5 5 0 0 1 -5 -5"/>
<path d=" M 25 2830 h 10"/>
<path d=" M 101 2830 h 10"/>
<path d=" M 163 2830 h 10"/>
</g>
<g class="sequence">
<path d=" M 10 2864 a 5 5 0 0 1 5 -5 a 5 5 0 0 1 5 5 a 5 5 0 0 1 -5 5 a 5 5 0 0 1 -5 -5 m 10 0 h 5"/>
<text class="comment" id="Special2" x="68" y="2869">
Special2</text>
<g class="string">
<rect height="22" rx="10" ry="10" width="60" x="111" y="2853"/>
<text x="141" y="2869">
false</text>
</g>
<path d=" M 181 2864 h 5 a 5 5 0 0 1 5 -5 a 5 5 0 0 1 5 5 a 5 5 0 0 1 -5 5 a 5 5 0 0 1 -5 -5"/>
<path d=" M 25 2864 h 10"/>
<path d=" M 101 2864 h 10"/>
<path d=" M 171 2864 h 10"/>
</g>
<g class="sequence">
<path d=" M 10 2898 a 5 5 0 0 1 5 -5 a 5 5 0 0 1 5 5 a 5 5 0 0 1 -5 5 a 5 5 0 0 1 -5 -5 m 10 0 h 5"/>
<text class="comment" id="String0" x="64" y="2903">
String0</text>
<g class="sequence">
<g class="string">
<rect height="22" rx="10" ry="10" width="28" x="104" y="2887"/>
<text x="118" y="2903">
&#x27;</text>
</g>
<g class="string">
<rect height="22" rx="10" ry="10" width="28" x="142" y="2887"/>
<text x="156" y="2903">
&#x27;</text>
</g>
<path d=" M 132 2898 h 10"/>
</g>
<path d=" M 180 2898 h 5 a 5 5 0 0 1 5 -5 a 5 5 0 0 1 5 5 a 5 5 0 0 1 -5 5 a 5 5 0 0 1 -5 -5"/>
<path d=" M 25 2898 h 10"/>
<path d=" M 94 2898 h 10"/>
<path d=" M 170 2898 h 10"/>
</g>
<g class="sequence">
<path d=" M 10 2932 a 5 5 0 0 1 5 -5 a 5 5 0 0 1 5 5 a 5 5 0 0 1 -5 5 a 5 5 0 0 1 -5 -5 m 10 0 h 5"/>
<text class="comment" id="String1" x="64" y="2937">
String1</text>
<g class="sequence">
<g class="string">
<rect height="22" rx="10" ry="10" width="28" x="104" y="2921"/>
<text x="118" y="2937">
&quot;</text>
</g>
<g class="string">
<rect height="22" rx="10" ry="10" width="28" x="142" y="2921"/>
<text x="156" y="2937">
&quot;</text>
</g>
<path d=" M 132 2932 h 10"/>
</g>
<path d=" M 180 2932 h 5 a 5 5 0 0 1 5 -5 a 5 5 0 0 1 5 5 a 5 5 0 0 1 -5 5 a 5 5 0 0 1 -5 -5"/>
<path d=" M 25 2932 h 10"/>
<path d=" M 94 2932 h 10"/>
<path d=" M 170 2932 h 10"/>
</g>
<g class="sequence">
<path d=" M 10 2966 a 5 5 0 0 1 5 -5 a 5 5 0 0 1 5 5 a 5 5 0 0 1 -5 5 a 5 5 0 0 1 -5 -5 m 10 0 h 5"/>
<text class="comment" id="SpaceControl0" x="85" y="2971">
SpaceControl0</text>
<g class="string">
<rect height="22" rx="10" ry="10" width="28" x="146" y="2955"/>
<text x="160" y="2971">
=</text>
</g>
<path d=" M 184 2966 h 5 a 5 5 0 0 1 5 -5 a 5 5 0 0 1 5 5 a 5 5 0 0 1 -5 5 a 5 5 0 0 1 -5 -5"/>
<path d=" M 25 2966 h 10"/>
<path d=" M 136 2966 h 10"/>
<path d=" M 174 2966 h 10"/>
</g>
<g class="sequence">
<path d=" M 10 3000 a 5 5 0 0 1 5 -5 a 5 5 0 0 1 5 5 a 5 5 0 0 1 -5 5 a 5 5 0 0 1 -5 -5 m 10 0 h 5"/>
<text class="comment" id="SpaceControl1" x="85" y="3005">
SpaceControl1</text>
<g class="string">
<rect height="22" rx="10" ry="10" width="28" x="146" y="2989"/>
<text x="160" y="3005">
~</text>
</g>
<path d=" M 184 3000 h 5 a 5 5 0 0 1 5 -5 a 5 5 0 0 1 5 5 a 5 5 0 0 1 -5 5 a 5 5 0 0 1 -5 -5"/>
<path d=" M 25 3000 h 10"/>
<path d=" M 136 3000 h 10"/>
<path d=" M 174 3000 h 10"/>
</g>
<g class="sequence">
<path d=" M 10 3034 a 5 5 0 0 1 5 -5 a 5 5 0 0 1 5 5 a 5 5 0 0 1 -5 5 a 5 5 0 0 1 -5 -5 m 10 0 h 5"/>
<text class="comment" id="SpaceControl2" x="85" y="3039">
SpaceControl2</text>
<g class="string">
<rect height="22" rx="10" ry="10" width="28" x="146" y="3023"/>
<text x="160" y="3039">
-</text>
</g>
<path d=" M 184 3034 h 5 a 5 5 0 0 1 5 -5 a 5 5 0 0 1 5 5 a 5 5 0 0 1 -5 5 a 5 5 0 0 1 -5 -5"/>
<path d=" M 25 3034 h 10"/>
<path d=" M 136 3034 h 10"/>
<path d=" M 174 3034 h 10"/>
</g>
<g class="sequence">
<path d=" M 10 3068 a 5 5 0 0 1 5 -5 a 5 5 0 0 1 5 5 a 5 5 0 0 1 -5 5 a 5 5 0 0 1 -5 -5 m 10 0 h 5"/>
<text class="comment" id="SpaceControl3" x="85" y="3073">
SpaceControl3</text>
<g class="string">
<rect height="22" rx="10" ry="10" width="28" x="146" y="3057"/>
<text x="160" y="3073">
_</text>
</g>
<path d=" M 184 3068 h 5 a 5 5 0 0 1 5 -5 a 5 5 0 0 1 5 5 a 5 5 0 0 1 -5 5 a 5 5 0 0 1 -5 -5"/>
<path d=" M 25 3068 h 10"/>
<path d=" M 136 3068 h 10"/>
<path d=" M 174 3068 h 10"/>
</g>
<g class="sequence">
<path d=" M 10 3102 a 5 5 0 0 1 5 -5 a 5 5 0 0 1 5 5 a 5 5 0 0 1 -5 5 a 5 5 0 0 1 -5 -5 m 10 0 h 5"/>
<text class="comment" id="SpaceControl4" x="85" y="3107">
SpaceControl4</text>
<g class="string">
<rect height="22" rx="10" ry="10" width="28" x="146" y="3091"/>
<text x="160" y="3107">
.</text>
</g>
<path d=" M 184 3102 h 5 a 5 5 0 0 1 5 -5 a 5 5 0 0 1 5 5 a 5 5 0 0 1 -5 5 a 5 5 0 0 1 -5 -5"/>
<path d=" M 25 3102 h 10"/>
<path d=" M 136 3102 h 10"/>
<path d=" M 174 3102 h 10"/>
</g>
</g>
</svg>
