<svg class="railroad" viewBox="0 0 2088 2558" xmlns="http://www.w3.org/2000/svg"
     xmlns:xlink="http://www.w3.org/1999/xlink">
<style type="text/css">
svg.railroad {
    background-color: hsl(30, 20%, 95%);
    background-size: 15px 15px;
    background-image: linear-gradient(to right, rgba(30, 30, 30, .05) 1px, transparent 1px),
    linear-gradient(to bottom, rgba(30, 30, 30, .05) 1px, transparent 1px);
}

svg.railroad path {
    stroke-width: 3px;
    stroke: black;
    fill: transparent;
}

svg.railroad .debug {
    stroke-width: 1px;
    stroke: red;
}

svg.railroad text {
    font-size: 14px;
    font-family: monospace;
    text-anchor: middle;
}

svg.railroad .nonterminal text {
    font-weight: bold;
}

svg.railroad text.comment {
    font-family: serif;
    font-style: italic;
    font-size: 12px;
}

svg.railroad rect {
    stroke-width: 3px;
    stroke: black;
}

svg.railroad g.labeledbox > rect {
    stroke-width: 1px;
    stroke: grey;
    stroke-dasharray: 5px;
    fill: rgba(90, 90, 150, .1);
}

svg.railroad .symbol > rect {
    fill: rgba(90, 90, 150, .1);
}

svg.railroad .regex > rect {
    fill: honeydew;
}

svg.railroad .string > rect {
    fill: cornsilk;
}

svg.railroad .character > rect {
    fill: lightcoral;
}
</style>
<g class="verticalgrid">
<g class="sequence">
<path d=" M 10 21 a 5 5 0 0 1 5 -5 a 5 5 0 0 1 5 5 a 5 5 0 0 1 -5 5 a 5 5 0 0 1 -5 -5 m 10 0 h 5"/>
<text class="comment" id="Root" x="54" y="26">
Root</text>
<g class="repeat">
<path d=" M 83 21 h 12 m 76 0 h 12 m -12 0 a 12 12 0 0 1 12 12 v 7 a 12 12 0 0 1 -12 12 m -17 0 h -59 m 32 0 l 5 -5 m 0 10 l -5 -5 m -32 0 a 12 12 0 0 1 -12 -12 v -7 a 12 12 0 0 1 12 -12"/>
<text class="comment" x="162" y="57">
*</text>
<a class="link" xlink:href="#Element">
<g class="symbol">
<rect height="22" width="76" x="95" y="10"/>
<text x="133" y="26">
Element</text>
</g>
</a>
</g>
<path d=" M 193 21 h 5 a 5 5 0 0 1 5 -5 a 5 5 0 0 1 5 5 a 5 5 0 0 1 -5 5 a 5 5 0 0 1 -5 -5"/>
<path d=" M 25 21 h 10"/>
<path d=" M 73 21 h 10"/>
<path d=" M 183 21 h 10"/>
</g>
<g class="sequence">
<path d=" M 10 85 a 5 5 0 0 1 5 -5 a 5 5 0 0 1 5 5 a 5 5 0 0 1 -5 5 a 5 5 0 0 1 -5 -5 m 10 0 h 5"/>
<text class="comment" id="Element" x="64" y="90">
Element</text>
<g class="choice">
<path d=" M 104 85 h 24 m 84 0 h 72 m -33 0 l -5 -5 m 0 10 l 5 -5 m 33 0"/>
<a class="link" xlink:href="#TextMany">
<g class="symbol">
<rect height="22" width="84" x="128" y="74"/>
<text x="170" y="90">
TextMany</text>
</g>
</a>
<path d=" M 104 85 a 12 12 0 0 1 12 12 v 9 m 156 0 v -9 a 12 12 0 0 1 12 -12"/>
<path d=" M 116 106 v 33 m 156 0 v -33"/>
<path d=" M 116 139 v 33 m 156 0 v -33"/>
<path d=" M 116 106 v 0 a 12 12 0 0 0 12 12 m 132 0 h 0 a 12 12 0 0 0 12 -12 v 0"/>
<a class="link" xlink:href="#TemplateExport">
<g class="symbol">
<rect height="22" width="132" x="128" y="107"/>
<text x="194" y="123">
TemplateExport</text>
</g>
</a>
<path d=" M 116 139 v 0 a 12 12 0 0 0 12 12 m 100 0 h 32 a 12 12 0 0 0 12 -12 v 0"/>
<a class="link" xlink:href="#TemplateIf">
<g class="symbol">
<rect height="22" width="100" x="128" y="140"/>
<text x="178" y="156">
TemplateIf</text>
</g>
</a>
<path d=" M 116 172 v 0 a 12 12 0 0 0 12 12 m 108 0 h 24 a 12 12 0 0 0 12 -12 v 0"/>
<a class="link" xlink:href="#TemplateFor">
<g class="symbol">
<rect height="22" width="108" x="128" y="173"/>
<text x="182" y="189">
TemplateFor</text>
</g>
</a>
</g>
<path d=" M 294 85 h 5 a 5 5 0 0 1 5 -5 a 5 5 0 0 1 5 5 a 5 5 0 0 1 -5 5 a 5 5 0 0 1 -5 -5"/>
<path d=" M 25 85 h 10"/>
<path d=" M 94 85 h 10"/>
<path d=" M 284 85 h 10"/>
</g>
<g class="sequence">
<path d=" M 10 218 a 5 5 0 0 1 5 -5 a 5 5 0 0 1 5 5 a 5 5 0 0 1 -5 5 a 5 5 0 0 1 -5 -5 m 10 0 h 5"/>
<text class="comment" id="TextMany" x="68" y="223">
TextMany</text>
<g class="repeat">
<path d=" M 111 218 h 12 m 108 0 h 12 m -12 0 a 12 12 0 0 1 12 12 v 7 a 12 12 0 0 1 -12 12 m -17 0 h -91 m 48 0 l 5 -5 m 0 10 l -5 -5 m -48 0 a 12 12 0 0 1 -12 -12 v -7 a 12 12 0 0 1 12 -12"/>
<text class="comment" x="222" y="254">
+</text>
<a class="link" xlink:href="#TextElement">
<g class="symbol">
<rect height="22" width="108" x="123" y="207"/>
<text x="177" y="223">
TextElement</text>
</g>
</a>
</g>
<path d=" M 253 218 h 5 a 5 5 0 0 1 5 -5 a 5 5 0 0 1 5 5 a 5 5 0 0 1 -5 5 a 5 5 0 0 1 -5 -5"/>
<path d=" M 25 218 h 10"/>
<path d=" M 101 218 h 10"/>
<path d=" M 243 218 h 10"/>
</g>
<g class="sequence">
<path d=" M 10 282 a 5 5 0 0 1 5 -5 a 5 5 0 0 1 5 5 a 5 5 0 0 1 -5 5 a 5 5 0 0 1 -5 -5 m 10 0 h 5"/>
<text class="comment" id="TextElement" x="78" y="287">
TextElement</text>
<g class="choice">
<path d=" M 132 282 h 24 m 100 0 h 24"/>
<a class="link" xlink:href="#TEMPLATE_E">
<g class="symbol">
<rect height="22" width="100" x="156" y="271"/>
<text x="206" y="287">
TEMPLATE_E</text>
</g>
</a>
<path d=" M 132 282 a 12 12 0 0 1 12 12 v 9 m 124 0 v -9 a 12 12 0 0 1 12 -12"/>
<path d=" M 144 303 v 33 m 124 0 v -33"/>
<path d=" M 144 303 v 0 a 12 12 0 0 0 12 12 m 100 0 h 0 a 12 12 0 0 0 12 -12 v 0"/>
<a class="link" xlink:href="#TEXT_SPACE">
<g class="symbol">
<rect height="22" width="100" x="156" y="304"/>
<text x="206" y="320">
TEXT_SPACE</text>
</g>
</a>
<path d=" M 144 336 v 0 a 12 12 0 0 0 12 12 m 92 0 h 8 a 12 12 0 0 0 12 -12 v 0"/>
<a class="link" xlink:href="#TEXT_WORD">
<g class="symbol">
<rect height="22" width="92" x="156" y="337"/>
<text x="202" y="353">
TEXT_WORD</text>
</g>
</a>
</g>
<path d=" M 290 282 h 5 a 5 5 0 0 1 5 -5 a 5 5 0 0 1 5 5 a 5 5 0 0 1 -5 5 a 5 5 0 0 1 -5 -5"/>
<path d=" M 25 282 h 10"/>
<path d=" M 122 282 h 10"/>
<path d=" M 280 282 h 10"/>
</g>
<g class="sequence">
<path d=" M 10 382 a 5 5 0 0 1 5 -5 a 5 5 0 0 1 5 5 a 5 5 0 0 1 -5 5 a 5 5 0 0 1 -5 -5 m 10 0 h 5"/>
<text class="comment" id="TEMPLATE_E" x="75" y="387">
TEMPLATE_E</text>
<g class="string">
<rect height="22" rx="10" ry="10" width="44" x="125" y="371"/>
<text x="147" y="387">
&lt;%!</text>
</g>
<path d=" M 179 382 h 5 a 5 5 0 0 1 5 -5 a 5 5 0 0 1 5 5 a 5 5 0 0 1 -5 5 a 5 5 0 0 1 -5 -5"/>
<path d=" M 25 382 h 10"/>
<path d=" M 115 382 h 10"/>
<path d=" M 169 382 h 10"/>
</g>
<g class="sequence">
<path d=" M 10 416 a 5 5 0 0 1 5 -5 a 5 5 0 0 1 5 5 a 5 5 0 0 1 -5 5 a 5 5 0 0 1 -5 -5 m 10 0 h 5"/>
<text class="comment" id="TEXT_SPACE" x="75" y="421">
TEXT_SPACE</text>
<g class="string">
<rect height="22" rx="10" ry="10" width="148" x="125" y="405"/>
<text x="199" y="421">
\p{White_Space}+</text>
</g>
<path d=" M 283 416 h 5 a 5 5 0 0 1 5 -5 a 5 5 0 0 1 5 5 a 5 5 0 0 1 -5 5 a 5 5 0 0 1 -5 -5"/>
<path d=" M 25 416 h 10"/>
<path d=" M 115 416 h 10"/>
<path d=" M 273 416 h 10"/>
</g>
<g class="sequence">
<path d=" M 10 450 a 5 5 0 0 1 5 -5 a 5 5 0 0 1 5 5 a 5 5 0 0 1 -5 5 a 5 5 0 0 1 -5 -5 m 10 0 h 5"/>
<text class="comment" id="TEXT_WORD" x="71" y="455">
TEXT_WORD</text>
<g class="string">
<rect height="22" rx="10" ry="10" width="188" x="118" y="439"/>
<text x="212" y="455">
[^&lt;\p{White_Space}]+</text>
</g>
<path d=" M 316 450 h 5 a 5 5 0 0 1 5 -5 a 5 5 0 0 1 5 5 a 5 5 0 0 1 -5 5 a 5 5 0 0 1 -5 -5"/>
<path d=" M 25 450 h 10"/>
<path d=" M 108 450 h 10"/>
<path d=" M 306 450 h 10"/>
</g>
<g class="sequence">
<path d=" M 10 497 a 5 5 0 0 1 5 -5 a 5 5 0 0 1 5 5 a 5 5 0 0 1 -5 5 a 5 5 0 0 1 -5 -5 m 10 0 h 5"/>
<text class="comment" id="TEMPLATE_L" x="75" y="502">
TEMPLATE_L</text>
<g class="sequence">
<g class="string">
<rect height="22" rx="10" ry="10" width="36" x="125" y="486"/>
<text x="143" y="502">
&lt;%</text>
</g>
<g class="optional">
<path d=" M 171 497 h 24 m -24 0 a 12 12 0 0 0 12 -12 v 0 a 12 12 0 0 1 12 -12 h 116 m -55 0 l -5 -5 m 0 10 l 5 -5 m 55 0 a 12 12 0 0 1 12 12 v 0 a 12 12 0 0 0 12 12 h -24"/>
<a class="link" xlink:href="#SpaceControl">
<g class="symbol">
<rect height="22" width="116" x="195" y="486"/>
<text x="253" y="502">
SpaceControl</text>
</g>
</a>
</g>
<path d=" M 161 497 h 10"/>
</g>
<path d=" M 345 497 h 5 a 5 5 0 0 1 5 -5 a 5 5 0 0 1 5 5 a 5 5 0 0 1 -5 5 a 5 5 0 0 1 -5 -5"/>
<path d=" M 25 497 h 10"/>
<path d=" M 115 497 h 10"/>
<path d=" M 335 497 h 10"/>
</g>
<g class="sequence">
<path d=" M 10 544 a 5 5 0 0 1 5 -5 a 5 5 0 0 1 5 5 a 5 5 0 0 1 -5 5 a 5 5 0 0 1 -5 -5 m 10 0 h 5"/>
<text class="comment" id="TEMPLATE_R" x="75" y="549">
TEMPLATE_R</text>
<g class="sequence">
<g class="optional">
<path d=" M 125 544 h 24 m -24 0 a 12 12 0 0 0 12 -12 v 0 a 12 12 0 0 1 12 -12 h 116 m -55 0 l -5 -5 m 0 10 l 5 -5 m 55 0 a 12 12 0 0 1 12 12 v 0 a 12 12 0 0 0 12 12 h -24"/>
<a class="link" xlink:href="#SpaceControl">
<g class="symbol">
<rect height="22" width="116" x="149" y="533"/>
<text x="207" y="549">
SpaceControl</text>
</g>
</a>
</g>
<g class="string">
<rect height="22" rx="10" ry="10" width="36" x="299" y="533"/>
<text x="317" y="549">
%&gt;</text>
</g>
<path d=" M 289 544 h 10"/>
</g>
<path d=" M 345 544 h 5 a 5 5 0 0 1 5 -5 a 5 5 0 0 1 5 5 a 5 5 0 0 1 -5 5 a 5 5 0 0 1 -5 -5"/>
<path d=" M 25 544 h 10"/>
<path d=" M 115 544 h 10"/>
<path d=" M 335 544 h 10"/>
</g>
<g class="sequence">
<path d=" M 10 578 a 5 5 0 0 1 5 -5 a 5 5 0 0 1 5 5 a 5 5 0 0 1 -5 5 a 5 5 0 0 1 -5 -5 m 10 0 h 5"/>
<text class="comment" id="SpaceControl" x="82" y="583">
SpaceControl</text>
<g class="choice">
<path d=" M 139 578 h 24 m 28 0 h 24"/>
<g class="string">
<rect height="22" rx="10" ry="10" width="28" x="163" y="567"/>
<text x="177" y="583">
=</text>
</g>
<path d=" M 139 578 a 12 12 0 0 1 12 12 v 9 m 52 0 v -9 a 12 12 0 0 1 12 -12"/>
<path d=" M 151 599 v 33 m 52 0 v -33"/>
<path d=" M 151 632 v 33 m 52 0 v -33"/>
<path d=" M 151 665 v 33 m 52 0 v -33"/>
<path d=" M 151 599 v 0 a 12 12 0 0 0 12 12 m 28 0 h 0 a 12 12 0 0 0 12 -12 v 0"/>
<g class="string">
<rect height="22" rx="10" ry="10" width="28" x="163" y="600"/>
<text x="177" y="616">
~</text>
</g>
<path d=" M 151 632 v 0 a 12 12 0 0 0 12 12 m 28 0 h 0 a 12 12 0 0 0 12 -12 v 0"/>
<g class="string">
<rect height="22" rx="10" ry="10" width="28" x="163" y="633"/>
<text x="177" y="649">
-</text>
</g>
<path d=" M 151 665 v 0 a 12 12 0 0 0 12 12 m 28 0 h 0 a 12 12 0 0 0 12 -12 v 0"/>
<g class="string">
<rect height="22" rx="10" ry="10" width="28" x="163" y="666"/>
<text x="177" y="682">
_</text>
</g>
<path d=" M 151 698 v 0 a 12 12 0 0 0 12 12 m 28 0 h 0 a 12 12 0 0 0 12 -12 v 0"/>
<g class="string">
<rect height="22" rx="10" ry="10" width="28" x="163" y="699"/>
<text x="177" y="715">
.</text>
</g>
</g>
<path d=" M 225 578 h 5 a 5 5 0 0 1 5 -5 a 5 5 0 0 1 5 5 a 5 5 0 0 1 -5 5 a 5 5 0 0 1 -5 -5"/>
<path d=" M 25 578 h 10"/>
<path d=" M 129 578 h 10"/>
<path d=" M 215 578 h 10"/>
</g>
<g class="sequence">
<path d=" M 10 744 a 5 5 0 0 1 5 -5 a 5 5 0 0 1 5 5 a 5 5 0 0 1 -5 5 a 5 5 0 0 1 -5 -5 m 10 0 h 5"/>
<text class="comment" id="KW_END" x="61" y="749">
KW_END</text>
<g class="string">
<rect height="22" rx="10" ry="10" width="44" x="97" y="733"/>
<text x="119" y="749">
end</text>
</g>
<path d=" M 151 744 h 5 a 5 5 0 0 1 5 -5 a 5 5 0 0 1 5 5 a 5 5 0 0 1 -5 5 a 5 5 0 0 1 -5 -5"/>
<path d=" M 25 744 h 10"/>
<path d=" M 87 744 h 10"/>
<path d=" M 141 744 h 10"/>
</g>
<g class="sequence">
<path d=" M 10 778 a 5 5 0 0 1 5 -5 a 5 5 0 0 1 5 5 a 5 5 0 0 1 -5 5 a 5 5 0 0 1 -5 -5 m 10 0 h 5"/>
<text class="comment" id="TemplateExport" x="89" y="783">
TemplateExport</text>
<g class="sequence">
<a class="link" xlink:href="#TEMPLATE_L">
<g class="symbol">
<rect height="22" width="100" x="153" y="767"/>
<text x="203" y="783">
TEMPLATE_L</text>
</g>
</a>
<g class="character">
<rect height="22" rx="10" ry="10" width="76" x="263" y="767"/>
<text x="301" y="783">
IGNORED</text>
</g>
<g class="sequence">
<g class="repeat">
<path d=" M 349 778 h 12 m 100 0 h 12 m -12 0 a 12 12 0 0 1 12 12 v 7 a 12 12 0 0 1 -12 12 m -17 0 h -83 m 44 0 l 5 -5 m 0 10 l -5 -5 m -44 0 a 12 12 0 0 1 -12 -12 v -7 a 12 12 0 0 1 12 -12"/>
<text class="comment" x="452" y="814">
*</text>
<a class="link" xlink:href="#ExportItem">
<g class="symbol">
<rect height="22" width="100" x="361" y="767"/>
<text x="411" y="783">
ExportItem</text>
</g>
</a>
</g>
<g class="character">
<rect height="22" rx="10" ry="10" width="76" x="483" y="767"/>
<text x="521" y="783">
IGNORED</text>
</g>
<a class="link" xlink:href="#TEMPLATE_R">
<g class="symbol">
<rect height="22" width="100" x="569" y="767"/>
<text x="619" y="783">
TEMPLATE_R</text>
</g>
</a>
<path d=" M 473 778 h 10"/>
<path d=" M 559 778 h 10"/>
</g>
<path d=" M 253 778 h 10"/>
<path d=" M 339 778 h 10"/>
</g>
<path d=" M 679 778 h 5 a 5 5 0 0 1 5 -5 a 5 5 0 0 1 5 5 a 5 5 0 0 1 -5 5 a 5 5 0 0 1 -5 -5"/>
<path d=" M 25 778 h 10"/>
<path d=" M 143 778 h 10"/>
<path d=" M 669 778 h 10"/>
</g>
<g class="sequence">
<path d=" M 10 867 a 5 5 0 0 1 5 -5 a 5 5 0 0 1 5 5 a 5 5 0 0 1 -5 5 a 5 5 0 0 1 -5 -5 m 10 0 h 5"/>
<text class="comment" id="ExportItem" x="75" y="872">
ExportItem</text>
<g class="sequence">
<a class="link" xlink:href="#KW_EXPORT">
<g class="symbol">
<rect height="22" width="92" x="125" y="856"/>
<text x="171" y="872">
KW_EXPORT</text>
</g>
</a>
<g class="character">
<rect height="22" rx="10" ry="10" width="76" x="227" y="856"/>
<text x="265" y="872">
IGNORED</text>
</g>
<g class="sequence">
<a class="link" xlink:href="#Identifier">
<g class="symbol">
<rect height="22" width="100" x="313" y="856"/>
<text x="363" y="872">
Identifier</text>
</g>
</a>
<g class="character">
<rect height="22" rx="10" ry="10" width="76" x="423" y="856"/>
<text x="461" y="872">
IGNORED</text>
</g>
<g class="optional">
<path d=" M 509 867 h 24 m -24 0 a 12 12 0 0 0 12 -12 v 0 a 12 12 0 0 1 12 -12 h 256 m -125 0 l -5 -5 m 0 10 l 5 -5 m 125 0 a 12 12 0 0 1 12 12 v 0 a 12 12 0 0 0 12 12 h -24"/>
<g class="sequence">
<a class="link" xlink:href="#KW_TO">
<g class="symbol">
<rect height="22" width="60" x="533" y="856"/>
<text x="563" y="872">
KW_TO</text>
</g>
</a>
<g class="character">
<rect height="22" rx="10" ry="10" width="76" x="603" y="856"/>
<text x="641" y="872">
IGNORED</text>
</g>
<a class="link" xlink:href="#Identifier">
<g class="symbol">
<rect height="22" width="100" x="689" y="856"/>
<text x="739" y="872">
Identifier</text>
</g>
</a>
<path d=" M 593 867 h 10"/>
<path d=" M 679 867 h 10"/>
</g>
</g>
<g class="character">
<rect height="22" rx="10" ry="10" width="76" x="823" y="856"/>
<text x="861" y="872">
IGNORED</text>
</g>
<g class="optional">
<path d=" M 909 867 h 24 m -24 0 a 12 12 0 0 0 12 -12 v 0 a 12 12 0 0 1 12 -12 h 452 m -223 0 l -5 -5 m 0 10 l 5 -5 m 223 0 a 12 12 0 0 1 12 12 v 0 a 12 12 0 0 0 12 12 h -24"/>
<g class="sequence">
<g class="sequence">
<a class="link" xlink:href="#KW_BY">
<g class="symbol">
<rect height="22" width="60" x="933" y="856"/>
<text x="963" y="872">
KW_BY</text>
</g>
</a>
<g class="character">
<rect height="22" rx="10" ry="10" width="76" x="1003" y="856"/>
<text x="1041" y="872">
IGNORED</text>
</g>
<a class="link" xlink:href="#KW_CLASS">
<g class="symbol">
<rect height="22" width="84" x="1089" y="856"/>
<text x="1131" y="872">
KW_CLASS</text>
</g>
</a>
<path d=" M 993 867 h 10"/>
<path d=" M 1079 867 h 10"/>
</g>
<g class="character">
<rect height="22" rx="10" ry="10" width="76" x="1183" y="856"/>
<text x="1221" y="872">
IGNORED</text>
</g>
<a class="link" xlink:href="#NamepathFree">
<g class="symbol">
<rect height="22" width="116" x="1269" y="856"/>
<text x="1327" y="872">
NamepathFree</text>
</g>
</a>
<path d=" M 1173 867 h 10"/>
<path d=" M 1259 867 h 10"/>
</g>
</g>
<g class="character">
<rect height="22" rx="10" ry="10" width="76" x="1419" y="856"/>
<text x="1457" y="872">
IGNORED</text>
</g>
<g class="optional">
<path d=" M 1505 867 h 24 m -24 0 a 12 12 0 0 0 12 -12 v -12 a 12 12 0 0 1 12 -12 h 500 m -247 0 l -5 -5 m 0 10 l 5 -5 m 247 0 a 12 12 0 0 1 12 12 v 12 a 12 12 0 0 0 12 12 h -24"/>
<g class="sequence">
<g class="sequence">
<a class="link" xlink:href="#KW_BY">
<g class="symbol">
<rect height="22" width="60" x="1529" y="856"/>
<text x="1559" y="872">
KW_BY</text>
</g>
</a>
<g class="character">
<rect height="22" rx="10" ry="10" width="76" x="1599" y="856"/>
<text x="1637" y="872">
IGNORED</text>
</g>
<a class="link" xlink:href="#KW_TRAIT">
<g class="symbol">
<rect height="22" width="84" x="1685" y="856"/>
<text x="1727" y="872">
KW_TRAIT</text>
</g>
</a>
<path d=" M 1589 867 h 10"/>
<path d=" M 1675 867 h 10"/>
</g>
<g class="character">
<rect height="22" rx="10" ry="10" width="76" x="1779" y="856"/>
<text x="1817" y="872">
IGNORED</text>
</g>
<g class="optional">
<path d=" M 1865 867 h 24 m -24 0 a 12 12 0 0 0 12 -12 v 0 a 12 12 0 0 1 12 -12 h 116 m -55 0 l -5 -5 m 0 10 l 5 -5 m 55 0 a 12 12 0 0 1 12 12 v 0 a 12 12 0 0 0 12 12 h -24"/>
<a class="link" xlink:href="#NamepathFree">
<g class="symbol">
<rect height="22" width="116" x="1889" y="856"/>
<text x="1947" y="872">
NamepathFree</text>
</g>
</a>
</g>
<path d=" M 1769 867 h 10"/>
<path d=" M 1855 867 h 10"/>
</g>
</g>
<path d=" M 413 867 h 10"/>
<path d=" M 499 867 h 10"/>
<path d=" M 813 867 h 10"/>
<path d=" M 899 867 h 10"/>
<path d=" M 1409 867 h 10"/>
<path d=" M 1495 867 h 10"/>
</g>
<path d=" M 217 867 h 10"/>
<path d=" M 303 867 h 10"/>
</g>
<path d=" M 2063 867 h 5 a 5 5 0 0 1 5 -5 a 5 5 0 0 1 5 5 a 5 5 0 0 1 -5 5 a 5 5 0 0 1 -5 -5"/>
<path d=" M 25 867 h 10"/>
<path d=" M 115 867 h 10"/>
<path d=" M 2053 867 h 10"/>
</g>
<g class="sequence">
<path d=" M 10 901 a 5 5 0 0 1 5 -5 a 5 5 0 0 1 5 5 a 5 5 0 0 1 -5 5 a 5 5 0 0 1 -5 -5 m 10 0 h 5"/>
<text class="comment" id="KW_EXPORT" x="71" y="906">
KW_EXPORT</text>
<g class="string">
<rect height="22" rx="10" ry="10" width="68" x="118" y="890"/>
<text x="152" y="906">
export</text>
</g>
<path d=" M 196 901 h 5 a 5 5 0 0 1 5 -5 a 5 5 0 0 1 5 5 a 5 5 0 0 1 -5 5 a 5 5 0 0 1 -5 -5"/>
<path d=" M 25 901 h 10"/>
<path d=" M 108 901 h 10"/>
<path d=" M 186 901 h 10"/>
</g>
<g class="sequence">
<path d=" M 10 935 a 5 5 0 0 1 5 -5 a 5 5 0 0 1 5 5 a 5 5 0 0 1 -5 5 a 5 5 0 0 1 -5 -5 m 10 0 h 5"/>
<text class="comment" id="KW_CLASS" x="68" y="940">
KW_CLASS</text>
<g class="string">
<rect height="22" rx="10" ry="10" width="60" x="111" y="924"/>
<text x="141" y="940">
class</text>
</g>
<path d=" M 181 935 h 5 a 5 5 0 0 1 5 -5 a 5 5 0 0 1 5 5 a 5 5 0 0 1 -5 5 a 5 5 0 0 1 -5 -5"/>
<path d=" M 25 935 h 10"/>
<path d=" M 101 935 h 10"/>
<path d=" M 171 935 h 10"/>
</g>
<g class="sequence">
<path d=" M 10 969 a 5 5 0 0 1 5 -5 a 5 5 0 0 1 5 5 a 5 5 0 0 1 -5 5 a 5 5 0 0 1 -5 -5 m 10 0 h 5"/>
<text class="comment" id="KW_TRAIT" x="68" y="974">
KW_TRAIT</text>
<g class="string">
<rect height="22" rx="10" ry="10" width="60" x="111" y="958"/>
<text x="141" y="974">
trait</text>
</g>
<path d=" M 181 969 h 5 a 5 5 0 0 1 5 -5 a 5 5 0 0 1 5 5 a 5 5 0 0 1 -5 5 a 5 5 0 0 1 -5 -5"/>
<path d=" M 25 969 h 10"/>
<path d=" M 101 969 h 10"/>
<path d=" M 171 969 h 10"/>
</g>
<g class="sequence">
<path d=" M 10 1003 a 5 5 0 0 1 5 -5 a 5 5 0 0 1 5 5 a 5 5 0 0 1 -5 5 a 5 5 0 0 1 -5 -5 m 10 0 h 5"/>
<text class="comment" id="KW_TO" x="57" y="1008">
KW_TO</text>
<g class="string">
<rect height="22" rx="10" ry="10" width="36" x="90" y="992"/>
<text x="108" y="1008">
to</text>
</g>
<path d=" M 136 1003 h 5 a 5 5 0 0 1 5 -5 a 5 5 0 0 1 5 5 a 5 5 0 0 1 -5 5 a 5 5 0 0 1 -5 -5"/>
<path d=" M 25 1003 h 10"/>
<path d=" M 80 1003 h 10"/>
<path d=" M 126 1003 h 10"/>
</g>
<g class="sequence">
<path d=" M 10 1037 a 5 5 0 0 1 5 -5 a 5 5 0 0 1 5 5 a 5 5 0 0 1 -5 5 a 5 5 0 0 1 -5 -5 m 10 0 h 5"/>
<text class="comment" id="KW_BY" x="57" y="1042">
KW_BY</text>
<g class="string">
<rect height="22" rx="10" ry="10" width="36" x="90" y="1026"/>
<text x="108" y="1042">
by</text>
</g>
<path d=" M 136 1037 h 5 a 5 5 0 0 1 5 -5 a 5 5 0 0 1 5 5 a 5 5 0 0 1 -5 5 a 5 5 0 0 1 -5 -5"/>
<path d=" M 25 1037 h 10"/>
<path d=" M 80 1037 h 10"/>
<path d=" M 126 1037 h 10"/>
</g>
<g class="sequence">
<path d=" M 10 1084 a 5 5 0 0 1 5 -5 a 5 5 0 0 1 5 5 a 5 5 0 0 1 -5 5 a 5 5 0 0 1 -5 -5 m 10 0 h 5"/>
<text class="comment" id="TemplateIf" x="75" y="1089">
TemplateIf</text>
<g class="sequence">
<a class="link" xlink:href="#IfBegin">
<g class="symbol">
<rect height="22" width="76" x="125" y="1073"/>
<text x="163" y="1089">
IfBegin</text>
</g>
</a>
<g class="repeat">
<path d=" M 211 1084 h 12 m 84 0 h 12 m -12 0 a 12 12 0 0 1 12 12 v 7 a 12 12 0 0 1 -12 12 m -17 0 h -67 m 36 0 l 5 -5 m 0 10 l -5 -5 m -36 0 a 12 12 0 0 1 -12 -12 v -7 a 12 12 0 0 1 12 -12"/>
<text class="comment" x="298" y="1120">
*</text>
<a class="link" xlink:href="#IfElseIf">
<g class="symbol">
<rect height="22" width="84" x="223" y="1073"/>
<text x="265" y="1089">
IfElseIf</text>
</g>
</a>
</g>
<g class="optional">
<path d=" M 329 1084 h 24 m -24 0 a 12 12 0 0 0 12 -12 v 0 a 12 12 0 0 1 12 -12 h 68 m -31 0 l -5 -5 m 0 10 l 5 -5 m 31 0 a 12 12 0 0 1 12 12 v 0 a 12 12 0 0 0 12 12 h -24"/>
<a class="link" xlink:href="#IfElse">
<g class="symbol">
<rect height="22" width="68" x="353" y="1073"/>
<text x="387" y="1089">
IfElse</text>
</g>
</a>
</g>
<a class="link" xlink:href="#IfEnd">
<g class="symbol">
<rect height="22" width="60" x="455" y="1073"/>
<text x="485" y="1089">
IfEnd</text>
</g>
</a>
<path d=" M 201 1084 h 10"/>
<path d=" M 319 1084 h 10"/>
<path d=" M 445 1084 h 10"/>
</g>
<path d=" M 525 1084 h 5 a 5 5 0 0 1 5 -5 a 5 5 0 0 1 5 5 a 5 5 0 0 1 -5 5 a 5 5 0 0 1 -5 -5"/>
<path d=" M 25 1084 h 10"/>
<path d=" M 115 1084 h 10"/>
<path d=" M 515 1084 h 10"/>
</g>
<g class="sequence">
<path d=" M 10 1148 a 5 5 0 0 1 5 -5 a 5 5 0 0 1 5 5 a 5 5 0 0 1 -5 5 a 5 5 0 0 1 -5 -5 m 10 0 h 5"/>
<text class="comment" id="IfBegin" x="64" y="1153">
IfBegin</text>
<g class="sequence">
<g class="sequence">
<a class="link" xlink:href="#TEMPLATE_L">
<g class="symbol">
<rect height="22" width="100" x="104" y="1137"/>
<text x="154" y="1153">
TEMPLATE_L</text>
</g>
</a>
<g class="character">
<rect height="22" rx="10" ry="10" width="76" x="214" y="1137"/>
<text x="252" y="1153">
IGNORED</text>
</g>
    <a class="link" xlink:href="#KW_IF">
<g class="symbol">
    <rect height="22" width="60" x="300" y="1137"/>
    <text x="330" y="1153">
        KW_IF
    </text>
</g>
</a>
<path d=" M 204 1148 h 10"/>
<path d=" M 290 1148 h 10"/>
</g>
<g class="character">
    <rect height="22" rx="10" ry="10" width="76" x="370" y="1137"/>
    <text x="408" y="1153">
IGNORED</text>
</g>
<g class="sequence">
<g class="sequence">
<a class="link" xlink:href="#Expression">
<g class="symbol">
    <rect height="22" width="100" x="456" y="1137"/>
    <text x="506" y="1153">
Expression</text>
</g>
</a>
<g class="character">
    <rect height="22" rx="10" ry="10" width="76" x="566" y="1137"/>
    <text x="604" y="1153">
IGNORED</text>
</g>
<a class="link" xlink:href="#TEMPLATE_R">
<g class="symbol">
    <rect height="22" width="100" x="652" y="1137"/>
    <text x="702" y="1153">
TEMPLATE_R</text>
</g>
</a>
    <path d=" M 556 1148 h 10"/>
    <path d=" M 642 1148 h 10"/>
</g>
<g class="repeat">
    <path d=" M 762 1148 h 12 m 76 0 h 12 m -12 0 a 12 12 0 0 1 12 12 v 7 a 12 12 0 0 1 -12 12 m -17 0 h -59 m 32 0 l 5 -5 m 0 10 l -5 -5 m -32 0 a 12 12 0 0 1 -12 -12 v -7 a 12 12 0 0 1 12 -12"/>
    <text class="comment" x="841" y="1184">
*</text>
<a class="link" xlink:href="#Element">
<g class="symbol">
    <rect height="22" width="76" x="774" y="1137"/>
    <text x="812" y="1153">
Element</text>
</g>
</a>
</g>
    <path d=" M 752 1148 h 10"/>
</g>
    <path d=" M 360 1148 h 10"/>
    <path d=" M 446 1148 h 10"/>
</g>
    <path d=" M 872 1148 h 5 a 5 5 0 0 1 5 -5 a 5 5 0 0 1 5 5 a 5 5 0 0 1 -5 5 a 5 5 0 0 1 -5 -5"/>
<path d=" M 25 1148 h 10"/>
<path d=" M 94 1148 h 10"/>
    <path d=" M 862 1148 h 10"/>
</g>
<g class="sequence">
<path d=" M 10 1212 a 5 5 0 0 1 5 -5 a 5 5 0 0 1 5 5 a 5 5 0 0 1 -5 5 a 5 5 0 0 1 -5 -5 m 10 0 h 5"/>
<text class="comment" id="IfElse" x="61" y="1217">
IfElse</text>
<g class="sequence">
<g class="sequence">
<a class="link" xlink:href="#TEMPLATE_L">
<g class="symbol">
<rect height="22" width="100" x="97" y="1201"/>
<text x="147" y="1217">
TEMPLATE_L</text>
</g>
</a>
<g class="character">
<rect height="22" rx="10" ry="10" width="76" x="207" y="1201"/>
<text x="245" y="1217">
IGNORED</text>
</g>
<a class="link" xlink:href="#KW_ELSE">
<g class="symbol">
<rect height="22" width="76" x="293" y="1201"/>
<text x="331" y="1217">
KW_ELSE</text>
</g>
</a>
<g class="character">
<rect height="22" rx="10" ry="10" width="76" x="379" y="1201"/>
<text x="417" y="1217">
IGNORED</text>
</g>
<a class="link" xlink:href="#TEMPLATE_R">
<g class="symbol">
<rect height="22" width="100" x="465" y="1201"/>
<text x="515" y="1217">
TEMPLATE_R</text>
</g>
</a>
<path d=" M 197 1212 h 10"/>
<path d=" M 283 1212 h 10"/>
<path d=" M 369 1212 h 10"/>
<path d=" M 455 1212 h 10"/>
</g>
<g class="repeat">
<path d=" M 575 1212 h 12 m 76 0 h 12 m -12 0 a 12 12 0 0 1 12 12 v 7 a 12 12 0 0 1 -12 12 m -17 0 h -59 m 32 0 l 5 -5 m 0 10 l -5 -5 m -32 0 a 12 12 0 0 1 -12 -12 v -7 a 12 12 0 0 1 12 -12"/>
<text class="comment" x="654" y="1248">
*</text>
<a class="link" xlink:href="#Element">
<g class="symbol">
<rect height="22" width="76" x="587" y="1201"/>
<text x="625" y="1217">
Element</text>
</g>
</a>
</g>
<path d=" M 565 1212 h 10"/>
</g>
<path d=" M 685 1212 h 5 a 5 5 0 0 1 5 -5 a 5 5 0 0 1 5 5 a 5 5 0 0 1 -5 5 a 5 5 0 0 1 -5 -5"/>
<path d=" M 25 1212 h 10"/>
<path d=" M 87 1212 h 10"/>
<path d=" M 675 1212 h 10"/>
</g>
<g class="sequence">
<path d=" M 10 1276 a 5 5 0 0 1 5 -5 a 5 5 0 0 1 5 5 a 5 5 0 0 1 -5 5 a 5 5 0 0 1 -5 -5 m 10 0 h 5"/>
<text class="comment" id="IfElseIf" x="68" y="1281">
IfElseIf</text>
<g class="sequence">
<g class="sequence">
<a class="link" xlink:href="#TEMPLATE_L">
<g class="symbol">
<rect height="22" width="100" x="111" y="1265"/>
<text x="161" y="1281">
TEMPLATE_L</text>
</g>
</a>
<g class="character">
<rect height="22" rx="10" ry="10" width="76" x="221" y="1265"/>
<text x="259" y="1281">
IGNORED</text>
</g>
<a class="link" xlink:href="#KW_ELSE">
<g class="symbol">
<rect height="22" width="76" x="307" y="1265"/>
<text x="345" y="1281">
KW_ELSE</text>
</g>
</a>
<g class="character">
<rect height="22" rx="10" ry="10" width="76" x="393" y="1265"/>
<text x="431" y="1281">
IGNORED</text>
</g>
<a class="link" xlink:href="#KW_IF">
<g class="symbol">
<rect height="22" width="60" x="479" y="1265"/>
<text x="509" y="1281">
KW_IF</text>
</g>
</a>
<path d=" M 211 1276 h 10"/>
<path d=" M 297 1276 h 10"/>
<path d=" M 383 1276 h 10"/>
<path d=" M 469 1276 h 10"/>
</g>
<g class="character">
<rect height="22" rx="10" ry="10" width="76" x="549" y="1265"/>
<text x="587" y="1281">
IGNORED</text>
</g>
<g class="sequence">
<g class="sequence">
<a class="link" xlink:href="#Expression">
<g class="symbol">
<rect height="22" width="100" x="635" y="1265"/>
<text x="685" y="1281">
Expression</text>
</g>
</a>
<g class="character">
<rect height="22" rx="10" ry="10" width="76" x="745" y="1265"/>
<text x="783" y="1281">
IGNORED</text>
</g>
<a class="link" xlink:href="#TEMPLATE_R">
<g class="symbol">
<rect height="22" width="100" x="831" y="1265"/>
<text x="881" y="1281">
TEMPLATE_R</text>
</g>
</a>
<path d=" M 735 1276 h 10"/>
<path d=" M 821 1276 h 10"/>
</g>
<g class="repeat">
<path d=" M 941 1276 h 12 m 76 0 h 12 m -12 0 a 12 12 0 0 1 12 12 v 7 a 12 12 0 0 1 -12 12 m -17 0 h -59 m 32 0 l 5 -5 m 0 10 l -5 -5 m -32 0 a 12 12 0 0 1 -12 -12 v -7 a 12 12 0 0 1 12 -12"/>
<text class="comment" x="1020" y="1312">
*</text>
<a class="link" xlink:href="#Element">
<g class="symbol">
<rect height="22" width="76" x="953" y="1265"/>
<text x="991" y="1281">
Element</text>
</g>
</a>
</g>
<path d=" M 931 1276 h 10"/>
</g>
<path d=" M 539 1276 h 10"/>
<path d=" M 625 1276 h 10"/>
</g>
<path d=" M 1051 1276 h 5 a 5 5 0 0 1 5 -5 a 5 5 0 0 1 5 5 a 5 5 0 0 1 -5 5 a 5 5 0 0 1 -5 -5"/>
<path d=" M 25 1276 h 10"/>
<path d=" M 101 1276 h 10"/>
<path d=" M 1041 1276 h 10"/>
</g>
<g class="sequence">
<path d=" M 10 1353 a 5 5 0 0 1 5 -5 a 5 5 0 0 1 5 5 a 5 5 0 0 1 -5 5 a 5 5 0 0 1 -5 -5 m 10 0 h 5"/>
<text class="comment" id="IfEnd" x="57" y="1358">
IfEnd</text>
<g class="sequence">
<a class="link" xlink:href="#TEMPLATE_L">
<g class="symbol">
<rect height="22" width="100" x="90" y="1342"/>
<text x="140" y="1358">
TEMPLATE_L</text>
</g>
</a>
<g class="character">
<rect height="22" rx="10" ry="10" width="76" x="200" y="1342"/>
<text x="238" y="1358">
IGNORED</text>
</g>
<a class="link" xlink:href="#KW_END">
<g class="symbol">
<rect height="22" width="68" x="286" y="1342"/>
<text x="320" y="1358">
KW_END</text>
</g>
</a>
<g class="character">
<rect height="22" rx="10" ry="10" width="76" x="364" y="1342"/>
<text x="402" y="1358">
IGNORED</text>
</g>
<g class="optional">
<path d=" M 450 1353 h 24 m -24 0 a 12 12 0 0 0 12 -12 v 0 a 12 12 0 0 1 12 -12 h 60 m -27 0 l -5 -5 m 0 10 l 5 -5 m 27 0 a 12 12 0 0 1 12 12 v 0 a 12 12 0 0 0 12 12 h -24"/>
<a class="link" xlink:href="#KW_IF">
<g class="symbol">
<rect height="22" width="60" x="474" y="1342"/>
<text x="504" y="1358">
KW_IF</text>
</g>
</a>
</g>
<g class="character">
<rect height="22" rx="10" ry="10" width="76" x="568" y="1342"/>
<text x="606" y="1358">
IGNORED</text>
</g>
<a class="link" xlink:href="#TEMPLATE_R">
<g class="symbol">
<rect height="22" width="100" x="654" y="1342"/>
<text x="704" y="1358">
TEMPLATE_R</text>
</g>
</a>
<path d=" M 190 1353 h 10"/>
<path d=" M 276 1353 h 10"/>
<path d=" M 354 1353 h 10"/>
<path d=" M 440 1353 h 10"/>
<path d=" M 558 1353 h 10"/>
<path d=" M 644 1353 h 10"/>
</g>
<path d=" M 764 1353 h 5 a 5 5 0 0 1 5 -5 a 5 5 0 0 1 5 5 a 5 5 0 0 1 -5 5 a 5 5 0 0 1 -5 -5"/>
<path d=" M 25 1353 h 10"/>
<path d=" M 80 1353 h 10"/>
<path d=" M 754 1353 h 10"/>
</g>
<g class="sequence">
<path d=" M 10 1387 a 5 5 0 0 1 5 -5 a 5 5 0 0 1 5 5 a 5 5 0 0 1 -5 5 a 5 5 0 0 1 -5 -5 m 10 0 h 5"/>
<text class="comment" id="KW_IF" x="57" y="1392">
KW_IF</text>
<g class="string">
<rect height="22" rx="10" ry="10" width="36" x="90" y="1376"/>
<text x="108" y="1392">
if</text>
</g>
<path d=" M 136 1387 h 5 a 5 5 0 0 1 5 -5 a 5 5 0 0 1 5 5 a 5 5 0 0 1 -5 5 a 5 5 0 0 1 -5 -5"/>
<path d=" M 25 1387 h 10"/>
<path d=" M 80 1387 h 10"/>
<path d=" M 126 1387 h 10"/>
</g>
<g class="sequence">
<path d=" M 10 1421 a 5 5 0 0 1 5 -5 a 5 5 0 0 1 5 5 a 5 5 0 0 1 -5 5 a 5 5 0 0 1 -5 -5 m 10 0 h 5"/>
<text class="comment" id="KW_ELSE" x="64" y="1426">
KW_ELSE</text>
<g class="string">
<rect height="22" rx="10" ry="10" width="52" x="104" y="1410"/>
<text x="130" y="1426">
else</text>
</g>
<path d=" M 166 1421 h 5 a 5 5 0 0 1 5 -5 a 5 5 0 0 1 5 5 a 5 5 0 0 1 -5 5 a 5 5 0 0 1 -5 -5"/>
<path d=" M 25 1421 h 10"/>
<path d=" M 94 1421 h 10"/>
<path d=" M 156 1421 h 10"/>
</g>
<g class="sequence">
<path d=" M 10 1468 a 5 5 0 0 1 5 -5 a 5 5 0 0 1 5 5 a 5 5 0 0 1 -5 5 a 5 5 0 0 1 -5 -5 m 10 0 h 5"/>
<text class="comment" id="TemplateFor" x="78" y="1473">
TemplateFor</text>
<g class="sequence">
    <a class="link" xlink:href="#ForBegin">
<g class="symbol">
    <rect height="22" width="84" x="132" y="1457"/>
    <text x="174" y="1473">
        ForBegin
    </text>
</g>
</a>
<g class="optional">
    <path d=" M 226 1468 h 24 m -24 0 a 12 12 0 0 0 12 -12 v 0 a 12 12 0 0 1 12 -12 h 76 m -35 0 l -5 -5 m 0 10 l 5 -5 m 35 0 a 12 12 0 0 1 12 12 v 0 a 12 12 0 0 0 12 12 h -24"/>
<a class="link" xlink:href="#ForElse">
<g class="symbol">
    <rect height="22" width="76" x="250" y="1457"/>
    <text x="288" y="1473">
ForElse</text>
</g>
</a>
</g>
<a class="link" xlink:href="#ForEnd">
<g class="symbol">
    <rect height="22" width="68" x="360" y="1457"/>
    <text x="394" y="1473">
ForEnd</text>
</g>
</a>
    <path d=" M 216 1468 h 10"/>
    <path d=" M 350 1468 h 10"/>
</g>
    <path d=" M 438 1468 h 5 a 5 5 0 0 1 5 -5 a 5 5 0 0 1 5 5 a 5 5 0 0 1 -5 5 a 5 5 0 0 1 -5 -5"/>
<path d=" M 25 1468 h 10"/>
<path d=" M 122 1468 h 10"/>
    <path d=" M 428 1468 h 10"/>
</g>
<g class="sequence">
<path d=" M 10 1502 a 5 5 0 0 1 5 -5 a 5 5 0 0 1 5 5 a 5 5 0 0 1 -5 5 a 5 5 0 0 1 -5 -5 m 10 0 h 5"/>
    <text class="comment" id="ForBegin" x="68" y="1507">
        ForBegin
    </text>
    <g class="sequence">
        <g class="sequence">
            <a class="link" xlink:href="#TEMPLATE_L">
                <g class="symbol">
                    <rect height="22" width="100" x="111" y="1491"/>
                    <text x="161" y="1507">
                        TEMPLATE_L
                    </text>
                </g>
            </a>
            <g class="character">
                <rect height="22" rx="10" ry="10" width="76" x="221" y="1491"/>
                <text x="259" y="1507">
                    IGNORED
                </text>
            </g>
            <a class="link" xlink:href="#KW_FOR">
                <g class="symbol">
                    <rect height="22" width="68" x="307" y="1491"/>
                    <text x="341" y="1507">
                        KW_FOR
                    </text>
                </g>
            </a>
            <path d=" M 211 1502 h 10"/>
            <path d=" M 297 1502 h 10"/>
        </g>
        <g class="character">
            <rect height="22" rx="10" ry="10" width="76" x="385" y="1491"/>
            <text x="423" y="1507">
                IGNORED
            </text>
        </g>
        <g class="sequence">
            <g class="sequence">
                <a class="link" xlink:href="#Expression">
                    <g class="symbol">
                        <rect height="22" width="100" x="471" y="1491"/>
                        <text x="521" y="1507">
                            Expression
                        </text>
                    </g>
                </a>
                <g class="character">
                    <rect height="22" rx="10" ry="10" width="76" x="581" y="1491"/>
                    <text x="619" y="1507">
                        IGNORED
                    </text>
                </g>
                <a class="link" xlink:href="#TEMPLATE_R">
                    <g class="symbol">
                        <rect height="22" width="100" x="667" y="1491"/>
                        <text x="717" y="1507">
                            TEMPLATE_R
                        </text>
                    </g>
                </a>
                <path d=" M 571 1502 h 10"/>
                <path d=" M 657 1502 h 10"/>
            </g>
            <g class="repeat">
                <path d=" M 777 1502 h 12 m 76 0 h 12 m -12 0 a 12 12 0 0 1 12 12 v 7 a 12 12 0 0 1 -12 12 m -17 0 h -59 m 32 0 l 5 -5 m 0 10 l -5 -5 m -32 0 a 12 12 0 0 1 -12 -12 v -7 a 12 12 0 0 1 12 -12"/>
                <text class="comment" x="856" y="1538">
                    *
                </text>
                <a class="link" xlink:href="#Element">
                    <g class="symbol">
                        <rect height="22" width="76" x="789" y="1491"/>
                        <text x="827" y="1507">
                            Element
                        </text>
                    </g>
                </a>
            </g>
            <path d=" M 767 1502 h 10"/>
        </g>
        <path d=" M 375 1502 h 10"/>
        <path d=" M 461 1502 h 10"/>
    </g>
    <path d=" M 887 1502 h 5 a 5 5 0 0 1 5 -5 a 5 5 0 0 1 5 5 a 5 5 0 0 1 -5 5 a 5 5 0 0 1 -5 -5"/>
    <path d=" M 25 1502 h 10"/>
    <path d=" M 101 1502 h 10"/>
    <path d=" M 877 1502 h 10"/>
</g>
    <g class="sequence">
        <path d=" M 10 1566 a 5 5 0 0 1 5 -5 a 5 5 0 0 1 5 5 a 5 5 0 0 1 -5 5 a 5 5 0 0 1 -5 -5 m 10 0 h 5"/>
        <text class="comment" id="ForElse" x="64" y="1571">
ForElse</text>
<g class="sequence">
<g class="sequence">
<a class="link" xlink:href="#TEMPLATE_L">
<g class="symbol">
    <rect height="22" width="100" x="104" y="1555"/>
    <text x="154" y="1571">
TEMPLATE_L</text>
</g>
</a>
<g class="character">
    <rect height="22" rx="10" ry="10" width="76" x="214" y="1555"/>
    <text x="252" y="1571">
IGNORED</text>
</g>
<a class="link" xlink:href="#KW_ELSE">
<g class="symbol">
    <rect height="22" width="76" x="300" y="1555"/>
    <text x="338" y="1571">
KW_ELSE</text>
</g>
</a>
<g class="character">
    <rect height="22" rx="10" ry="10" width="76" x="386" y="1555"/>
    <text x="424" y="1571">
IGNORED</text>
</g>
<a class="link" xlink:href="#TEMPLATE_R">
<g class="symbol">
    <rect height="22" width="100" x="472" y="1555"/>
    <text x="522" y="1571">
TEMPLATE_R</text>
</g>
</a>
    <path d=" M 204 1566 h 10"/>
    <path d=" M 290 1566 h 10"/>
    <path d=" M 376 1566 h 10"/>
    <path d=" M 462 1566 h 10"/>
</g>
<g class="repeat">
    <path d=" M 582 1566 h 12 m 76 0 h 12 m -12 0 a 12 12 0 0 1 12 12 v 7 a 12 12 0 0 1 -12 12 m -17 0 h -59 m 32 0 l 5 -5 m 0 10 l -5 -5 m -32 0 a 12 12 0 0 1 -12 -12 v -7 a 12 12 0 0 1 12 -12"/>
    <text class="comment" x="661" y="1602">
*</text>
<a class="link" xlink:href="#Element">
<g class="symbol">
    <rect height="22" width="76" x="594" y="1555"/>
    <text x="632" y="1571">
Element</text>
</g>
</a>
</g>
    <path d=" M 572 1566 h 10"/>
</g>
        <path d=" M 692 1566 h 5 a 5 5 0 0 1 5 -5 a 5 5 0 0 1 5 5 a 5 5 0 0 1 -5 5 a 5 5 0 0 1 -5 -5"/>
        <path d=" M 25 1566 h 10"/>
        <path d=" M 94 1566 h 10"/>
        <path d=" M 682 1566 h 10"/>
</g>
<g class="sequence">
    <path d=" M 10 1643 a 5 5 0 0 1 5 -5 a 5 5 0 0 1 5 5 a 5 5 0 0 1 -5 5 a 5 5 0 0 1 -5 -5 m 10 0 h 5"/>
    <text class="comment" id="ForEnd" x="61" y="1648">
ForEnd</text>
<g class="sequence">
<a class="link" xlink:href="#TEMPLATE_L">
<g class="symbol">
    <rect height="22" width="100" x="97" y="1632"/>
    <text x="147" y="1648">
TEMPLATE_L</text>
</g>
</a>
<g class="character">
    <rect height="22" rx="10" ry="10" width="76" x="207" y="1632"/>
    <text x="245" y="1648">
IGNORED</text>
</g>
<a class="link" xlink:href="#KW_END">
<g class="symbol">
    <rect height="22" width="68" x="293" y="1632"/>
    <text x="327" y="1648">
KW_END</text>
</g>
</a>
<g class="character">
    <rect height="22" rx="10" ry="10" width="76" x="371" y="1632"/>
    <text x="409" y="1648">
IGNORED</text>
</g>
<g class="optional">
    <path d=" M 457 1643 h 24 m -24 0 a 12 12 0 0 0 12 -12 v 0 a 12 12 0 0 1 12 -12 h 68 m -31 0 l -5 -5 m 0 10 l 5 -5 m 31 0 a 12 12 0 0 1 12 12 v 0 a 12 12 0 0 0 12 12 h -24"/>
<a class="link" xlink:href="#KW_FOR">
<g class="symbol">
    <rect height="22" width="68" x="481" y="1632"/>
    <text x="515" y="1648">
KW_FOR</text>
</g>
</a>
</g>
<g class="character">
    <rect height="22" rx="10" ry="10" width="76" x="583" y="1632"/>
    <text x="621" y="1648">
IGNORED</text>
</g>
<a class="link" xlink:href="#TEMPLATE_R">
<g class="symbol">
    <rect height="22" width="100" x="669" y="1632"/>
    <text x="719" y="1648">
TEMPLATE_R</text>
</g>
</a>
    <path d=" M 197 1643 h 10"/>
    <path d=" M 283 1643 h 10"/>
    <path d=" M 361 1643 h 10"/>
    <path d=" M 447 1643 h 10"/>
    <path d=" M 573 1643 h 10"/>
    <path d=" M 659 1643 h 10"/>
</g>
    <path d=" M 779 1643 h 5 a 5 5 0 0 1 5 -5 a 5 5 0 0 1 5 5 a 5 5 0 0 1 -5 5 a 5 5 0 0 1 -5 -5"/>
    <path d=" M 25 1643 h 10"/>
    <path d=" M 87 1643 h 10"/>
    <path d=" M 769 1643 h 10"/>
</g>
<g class="sequence">
    <path d=" M 10 1677 a 5 5 0 0 1 5 -5 a 5 5 0 0 1 5 5 a 5 5 0 0 1 -5 5 a 5 5 0 0 1 -5 -5 m 10 0 h 5"/>
    <text class="comment" id="KW_FOR" x="61" y="1682">
KW_FOR</text>
<g class="string">
    <rect height="22" rx="10" ry="10" width="44" x="97" y="1666"/>
    <text x="119" y="1682">
for</text>
</g>
    <path d=" M 151 1677 h 5 a 5 5 0 0 1 5 -5 a 5 5 0 0 1 5 5 a 5 5 0 0 1 -5 5 a 5 5 0 0 1 -5 -5"/>
    <path d=" M 25 1677 h 10"/>
    <path d=" M 87 1677 h 10"/>
    <path d=" M 141 1677 h 10"/>
</g>
<g class="sequence">
    <path d=" M 10 1711 a 5 5 0 0 1 5 -5 a 5 5 0 0 1 5 5 a 5 5 0 0 1 -5 5 a 5 5 0 0 1 -5 -5 m 10 0 h 5"/>
    <text class="comment" id="Expression" x="75" y="1716">
Expression</text>
<g class="sequence">
<a class="link" xlink:href="#Term">
<g class="symbol">
    <rect height="22" width="52" x="125" y="1700"/>
    <text x="151" y="1716">
Term</text>
</g>
</a>
<g class="character">
    <rect height="22" rx="10" ry="10" width="76" x="187" y="1700"/>
    <text x="225" y="1716">
IGNORED</text>
</g>
<g class="repeat">
    <path d=" M 273 1711 h 12 m 132 0 h 12 m -12 0 a 12 12 0 0 1 12 12 v 7 a 12 12 0 0 1 -12 12 m -17 0 h -115 m 60 0 l 5 -5 m 0 10 l -5 -5 m -60 0 a 12 12 0 0 1 -12 -12 v -7 a 12 12 0 0 1 12 -12"/>
    <text class="comment" x="408" y="1747">
*</text>
<a class="link" xlink:href="#ExpressionRest">
<g class="symbol">
    <rect height="22" width="132" x="285" y="1700"/>
    <text x="351" y="1716">
ExpressionRest</text>
</g>
</a>
</g>
    <path d=" M 177 1711 h 10"/>
    <path d=" M 263 1711 h 10"/>
</g>
    <path d=" M 439 1711 h 5 a 5 5 0 0 1 5 -5 a 5 5 0 0 1 5 5 a 5 5 0 0 1 -5 5 a 5 5 0 0 1 -5 -5"/>
    <path d=" M 25 1711 h 10"/>
    <path d=" M 115 1711 h 10"/>
    <path d=" M 429 1711 h 10"/>
</g>
<g class="sequence">
    <path d=" M 10 1775 a 5 5 0 0 1 5 -5 a 5 5 0 0 1 5 5 a 5 5 0 0 1 -5 5 a 5 5 0 0 1 -5 -5 m 10 0 h 5"/>
    <text class="comment" id="ExpressionRest" x="89" y="1780">
ExpressionRest</text>
<g class="sequence">
<a class="link" xlink:href="#Infix">
<g class="symbol">
    <rect height="22" width="60" x="153" y="1764"/>
    <text x="183" y="1780">
Infix</text>
</g>
</a>
<g class="character">
    <rect height="22" rx="10" ry="10" width="76" x="223" y="1764"/>
    <text x="261" y="1780">
IGNORED</text>
</g>
<a class="link" xlink:href="#Term">
<g class="symbol">
    <rect height="22" width="52" x="309" y="1764"/>
    <text x="335" y="1780">
Term</text>
</g>
</a>
    <path d=" M 213 1775 h 10"/>
    <path d=" M 299 1775 h 10"/>
</g>
    <path d=" M 371 1775 h 5 a 5 5 0 0 1 5 -5 a 5 5 0 0 1 5 5 a 5 5 0 0 1 -5 5 a 5 5 0 0 1 -5 -5"/>
    <path d=" M 25 1775 h 10"/>
    <path d=" M 143 1775 h 10"/>
    <path d=" M 361 1775 h 10"/>
</g>
<g class="sequence">
    <path d=" M 10 1809 a 5 5 0 0 1 5 -5 a 5 5 0 0 1 5 5 a 5 5 0 0 1 -5 5 a 5 5 0 0 1 -5 -5 m 10 0 h 5"/>
    <text class="comment" id="Infix" x="57" y="1814">
Infix</text>
<g class="choice">
    <path d=" M 90 1809 h 24 m 28 0 h 24"/>
<g class="string">
    <rect height="22" rx="10" ry="10" width="28" x="114" y="1798"/>
    <text x="128" y="1814">
+</text>
</g>
    <path d=" M 90 1809 a 12 12 0 0 1 12 12 v 9 m 52 0 v -9 a 12 12 0 0 1 12 -12"/>
    <path d=" M 102 1830 v 0 a 12 12 0 0 0 12 12 m 28 0 h 0 a 12 12 0 0 0 12 -12 v 0"/>
<g class="string">
    <rect height="22" rx="10" ry="10" width="28" x="114" y="1831"/>
    <text x="128" y="1847">
-</text>
</g>
</g>
    <path d=" M 176 1809 h 5 a 5 5 0 0 1 5 -5 a 5 5 0 0 1 5 5 a 5 5 0 0 1 -5 5 a 5 5 0 0 1 -5 -5"/>
    <path d=" M 25 1809 h 10"/>
    <path d=" M 80 1809 h 10"/>
    <path d=" M 166 1809 h 10"/>
</g>
<g class="sequence">
    <path d=" M 10 1876 a 5 5 0 0 1 5 -5 a 5 5 0 0 1 5 5 a 5 5 0 0 1 -5 5 a 5 5 0 0 1 -5 -5 m 10 0 h 5"/>
    <text class="comment" id="Term" x="54" y="1881">
Term</text>
<g class="sequence">
<g class="repeat">
    <path d=" M 83 1876 h 12 m 68 0 h 12 m -12 0 a 12 12 0 0 1 12 12 v 7 a 12 12 0 0 1 -12 12 m -17 0 h -51 m 28 0 l 5 -5 m 0 10 l -5 -5 m -28 0 a 12 12 0 0 1 -12 -12 v -7 a 12 12 0 0 1 12 -12"/>
    <text class="comment" x="154" y="1912">
*</text>
<a class="link" xlink:href="#Prefix">
<g class="symbol">
    <rect height="22" width="68" x="95" y="1865"/>
    <text x="129" y="1881">
Prefix</text>
</g>
</a>
</g>
<g class="character">
    <rect height="22" rx="10" ry="10" width="76" x="185" y="1865"/>
    <text x="223" y="1881">
IGNORED</text>
</g>
<a class="link" xlink:href="#Atomic">
<g class="symbol">
    <rect height="22" width="68" x="271" y="1865"/>
    <text x="305" y="1881">
Atomic</text>
</g>
</a>
<g class="character">
    <rect height="22" rx="10" ry="10" width="76" x="349" y="1865"/>
    <text x="387" y="1881">
IGNORED</text>
</g>
<g class="repeat">
    <path d=" M 435 1876 h 12 m 68 0 h 12 m -12 0 a 12 12 0 0 1 12 12 v 7 a 12 12 0 0 1 -12 12 m -17 0 h -51 m 28 0 l 5 -5 m 0 10 l -5 -5 m -28 0 a 12 12 0 0 1 -12 -12 v -7 a 12 12 0 0 1 12 -12"/>
    <text class="comment" x="506" y="1912">
*</text>
<a class="link" xlink:href="#Suffix">
<g class="symbol">
    <rect height="22" width="68" x="447" y="1865"/>
    <text x="481" y="1881">
Suffix</text>
</g>
</a>
</g>
    <path d=" M 175 1876 h 10"/>
    <path d=" M 261 1876 h 10"/>
    <path d=" M 339 1876 h 10"/>
    <path d=" M 425 1876 h 10"/>
</g>
    <path d=" M 537 1876 h 5 a 5 5 0 0 1 5 -5 a 5 5 0 0 1 5 5 a 5 5 0 0 1 -5 5 a 5 5 0 0 1 -5 -5"/>
    <path d=" M 25 1876 h 10"/>
    <path d=" M 73 1876 h 10"/>
    <path d=" M 527 1876 h 10"/>
</g>
<g class="sequence">
    <path d=" M 10 1940 a 5 5 0 0 1 5 -5 a 5 5 0 0 1 5 5 a 5 5 0 0 1 -5 5 a 5 5 0 0 1 -5 -5 m 10 0 h 5"/>
    <text class="comment" id="Prefix" x="61" y="1945">
Prefix</text>
<g class="choice">
    <path d=" M 97 1940 h 0 m 28 0 h 0"/>
<g class="string">
    <rect height="22" rx="10" ry="10" width="28" x="97" y="1929"/>
    <text x="111" y="1945">
!</text>
</g>
</g>
    <path d=" M 135 1940 h 5 a 5 5 0 0 1 5 -5 a 5 5 0 0 1 5 5 a 5 5 0 0 1 -5 5 a 5 5 0 0 1 -5 -5"/>
    <path d=" M 25 1940 h 10"/>
    <path d=" M 87 1940 h 10"/>
    <path d=" M 125 1940 h 10"/>
</g>
<g class="sequence">
    <path d=" M 10 1974 a 5 5 0 0 1 5 -5 a 5 5 0 0 1 5 5 a 5 5 0 0 1 -5 5 a 5 5 0 0 1 -5 -5 m 10 0 h 5"/>
    <text class="comment" id="Suffix" x="61" y="1979">
Suffix</text>
<g class="choice">
    <path d=" M 97 1974 h 24 m 28 0 h 220 m -107 0 l -5 -5 m 0 10 l 5 -5 m 107 0"/>
<g class="string">
    <rect height="22" rx="10" ry="10" width="28" x="121" y="1963"/>
    <text x="135" y="1979">
?</text>
</g>
    <path d=" M 97 1974 a 12 12 0 0 1 12 12 v 9 m 248 0 v -9 a 12 12 0 0 1 12 -12"/>
    <path d=" M 109 1995 v 0 a 12 12 0 0 0 12 12 m 224 0 h 0 a 12 12 0 0 0 12 -12 v 0"/>
<g class="sequence">
<g class="string">
    <rect height="22" rx="10" ry="10" width="28" x="121" y="1996"/>
    <text x="135" y="2012">
.</text>
</g>
<g class="character">
    <rect height="22" rx="10" ry="10" width="76" x="159" y="1996"/>
    <text x="197" y="2012">
IGNORED</text>
</g>
<a class="link" xlink:href="#Identifier">
<g class="symbol">
    <rect height="22" width="100" x="245" y="1996"/>
    <text x="295" y="2012">
Identifier</text>
</g>
</a>
    <path d=" M 149 2007 h 10"/>
    <path d=" M 235 2007 h 10"/>
</g>
</g>
    <path d=" M 379 1974 h 5 a 5 5 0 0 1 5 -5 a 5 5 0 0 1 5 5 a 5 5 0 0 1 -5 5 a 5 5 0 0 1 -5 -5"/>
    <path d=" M 25 1974 h 10"/>
    <path d=" M 87 1974 h 10"/>
    <path d=" M 369 1974 h 10"/>
</g>
<g class="sequence">
    <path d=" M 10 2041 a 5 5 0 0 1 5 -5 a 5 5 0 0 1 5 5 a 5 5 0 0 1 -5 5 a 5 5 0 0 1 -5 -5 m 10 0 h 5"/>
    <text class="comment" id="Atomic" x="61" y="2046">
Atomic</text>
<g class="choice">
    <path d=" M 97 2041 h 24 m 292 0 h 24"/>
<g class="sequence">
<g class="string">
    <rect height="22" rx="10" ry="10" width="28" x="121" y="2030"/>
    <text x="135" y="2046">
(</text>
</g>
<g class="character">
    <rect height="22" rx="10" ry="10" width="76" x="159" y="2030"/>
    <text x="197" y="2046">
IGNORED</text>
</g>
<g class="function">
    <rect height="22" rx="10" ry="10" width="44" x="245" y="2030"/>
    <text x="267" y="2046">
box</text>
</g>
<g class="character">
    <rect height="22" rx="10" ry="10" width="76" x="299" y="2030"/>
    <text x="337" y="2046">
IGNORED</text>
</g>
<g class="string">
    <rect height="22" rx="10" ry="10" width="28" x="385" y="2030"/>
    <text x="399" y="2046">
)</text>
</g>
    <path d=" M 149 2041 h 10"/>
    <path d=" M 235 2041 h 10"/>
    <path d=" M 289 2041 h 10"/>
    <path d=" M 375 2041 h 10"/>
</g>
    <path d=" M 97 2041 a 12 12 0 0 1 12 12 v 9 m 316 0 v -9 a 12 12 0 0 1 12 -12"/>
    <path d=" M 109 2062 v 33 m 316 0 v -33"/>
    <path d=" M 109 2095 v 33 m 316 0 v -33"/>
    <path d=" M 109 2062 v 0 a 12 12 0 0 0 12 12 m 76 0 h 216 m -105 0 l -5 -5 m 0 10 l 5 -5 m 105 0 a 12 12 0 0 0 12 -12 v 0"/>
<a class="link" xlink:href="#Boolean">
<g class="symbol">
    <rect height="22" width="76" x="121" y="2063"/>
    <text x="159" y="2079">
Boolean</text>
</g>
</a>
    <path d=" M 109 2095 v 0 a 12 12 0 0 0 12 12 m 100 0 h 192 m -93 0 l -5 -5 m 0 10 l 5 -5 m 93 0 a 12 12 0 0 0 12 -12 v 0"/>
<a class="link" xlink:href="#Identifier">
<g class="symbol">
    <rect height="22" width="100" x="121" y="2096"/>
    <text x="171" y="2112">
Identifier</text>
</g>
</a>
    <path d=" M 109 2128 v 0 a 12 12 0 0 0 12 12 m 68 0 h 224 m -109 0 l -5 -5 m 0 10 l 5 -5 m 109 0 a 12 12 0 0 0 12 -12 v 0"/>
<a class="link" xlink:href="#Number">
<g class="symbol">
    <rect height="22" width="68" x="121" y="2129"/>
    <text x="155" y="2145">
Number</text>
</g>
</a>
</g>
    <path d=" M 447 2041 h 5 a 5 5 0 0 1 5 -5 a 5 5 0 0 1 5 5 a 5 5 0 0 1 -5 5 a 5 5 0 0 1 -5 -5"/>
    <path d=" M 25 2041 h 10"/>
    <path d=" M 87 2041 h 10"/>
    <path d=" M 437 2041 h 10"/>
</g>
<g class="sequence">
    <path d=" M 10 2174 a 5 5 0 0 1 5 -5 a 5 5 0 0 1 5 5 a 5 5 0 0 1 -5 5 a 5 5 0 0 1 -5 -5 m 10 0 h 5"/>
    <text class="comment" id="String" x="61" y="2179">
String</text>
<g class="choice">
    <path d=" M 97 2174 h 24 m 152 0 h 24"/>
<g class="sequence">
<g class="string">
    <rect height="22" rx="10" ry="10" width="28" x="121" y="2163"/>
    <text x="135" y="2179">
&#x27;</text>
</g>
<g class="character">
    <rect height="22" rx="10" ry="10" width="76" x="159" y="2163"/>
    <text x="197" y="2179">
IGNORED</text>
</g>
<g class="string">
    <rect height="22" rx="10" ry="10" width="28" x="245" y="2163"/>
    <text x="259" y="2179">
&#x27;</text>
</g>
    <path d=" M 149 2174 h 10"/>
    <path d=" M 235 2174 h 10"/>
</g>
    <path d=" M 97 2174 a 12 12 0 0 1 12 12 v 9 m 176 0 v -9 a 12 12 0 0 1 12 -12"/>
    <path d=" M 109 2195 v 0 a 12 12 0 0 0 12 12 m 152 0 h 0 a 12 12 0 0 0 12 -12 v 0"/>
<g class="sequence">
<g class="string">
    <rect height="22" rx="10" ry="10" width="28" x="121" y="2196"/>
    <text x="135" y="2212">
&quot;</text>
</g>
<g class="character">
    <rect height="22" rx="10" ry="10" width="76" x="159" y="2196"/>
    <text x="197" y="2212">
IGNORED</text>
</g>
<g class="string">
    <rect height="22" rx="10" ry="10" width="28" x="245" y="2196"/>
    <text x="259" y="2212">
&quot;</text>
</g>
    <path d=" M 149 2207 h 10"/>
    <path d=" M 235 2207 h 10"/>
</g>
</g>
    <path d=" M 307 2174 h 5 a 5 5 0 0 1 5 -5 a 5 5 0 0 1 5 5 a 5 5 0 0 1 -5 5 a 5 5 0 0 1 -5 -5"/>
    <path d=" M 25 2174 h 10"/>
    <path d=" M 87 2174 h 10"/>
    <path d=" M 297 2174 h 10"/>
</g>
<g class="sequence">
    <path d=" M 10 2241 a 5 5 0 0 1 5 -5 a 5 5 0 0 1 5 5 a 5 5 0 0 1 -5 5 a 5 5 0 0 1 -5 -5 m 10 0 h 5"/>
    <text class="comment" id="Number" x="61" y="2246">
Number</text>
<g class="string">
    <rect height="22" rx="10" ry="10" width="116" x="97" y="2230"/>
    <text x="155" y="2246">
0|[1-9][0-9]</text>
</g>
    <path d=" M 223 2241 h 5 a 5 5 0 0 1 5 -5 a 5 5 0 0 1 5 5 a 5 5 0 0 1 -5 5 a 5 5 0 0 1 -5 -5"/>
    <path d=" M 25 2241 h 10"/>
    <path d=" M 87 2241 h 10"/>
    <path d=" M 213 2241 h 10"/>
</g>
<g class="sequence">
    <path d=" M 10 2275 a 5 5 0 0 1 5 -5 a 5 5 0 0 1 5 5 a 5 5 0 0 1 -5 5 a 5 5 0 0 1 -5 -5 m 10 0 h 5"/>
    <text class="comment" id="NamepathFree" x="82" y="2280">
NamepathFree</text>
<g class="sequence">
<a class="link" xlink:href="#Identifier">
<g class="symbol">
    <rect height="22" width="100" x="139" y="2264"/>
    <text x="189" y="2280">
Identifier</text>
</g>
</a>
<g class="character">
    <rect height="22" rx="10" ry="10" width="76" x="249" y="2264"/>
    <text x="287" y="2280">
IGNORED</text>
</g>
<g class="repeat">
    <path d=" M 335 2275 h 12 m 280 0 h 12 m -12 0 a 12 12 0 0 1 12 12 v 40 a 12 12 0 0 1 -12 12 m -17 0 h -263 m 134 0 l 5 -5 m 0 10 l -5 -5 m -134 0 a 12 12 0 0 1 -12 -12 v -40 a 12 12 0 0 1 12 -12"/>
    <text class="comment" x="618" y="2344">
*</text>
<g class="sequence">
<g class="choice">
    <path d=" M 347 2275 h 24 m 28 0 h 32"/>
<g class="string">
    <rect height="22" rx="10" ry="10" width="28" x="371" y="2264"/>
    <text x="385" y="2280">
.</text>
</g>
    <path d=" M 347 2275 a 12 12 0 0 1 12 12 v 9 m 60 0 v -9 a 12 12 0 0 1 12 -12"/>
    <path d=" M 359 2296 v 0 a 12 12 0 0 0 12 12 m 36 0 h 0 a 12 12 0 0 0 12 -12 v 0"/>
<g class="string">
    <rect height="22" rx="10" ry="10" width="36" x="371" y="2297"/>
    <text x="389" y="2313">
::</text>
</g>
</g>
<g class="character">
    <rect height="22" rx="10" ry="10" width="76" x="441" y="2264"/>
    <text x="479" y="2280">
IGNORED</text>
</g>
<a class="link" xlink:href="#Identifier">
<g class="symbol">
    <rect height="22" width="100" x="527" y="2264"/>
    <text x="577" y="2280">
Identifier</text>
</g>
</a>
    <path d=" M 431 2275 h 10"/>
    <path d=" M 517 2275 h 10"/>
</g>
</g>
    <path d=" M 239 2275 h 10"/>
    <path d=" M 325 2275 h 10"/>
</g>
    <path d=" M 649 2275 h 5 a 5 5 0 0 1 5 -5 a 5 5 0 0 1 5 5 a 5 5 0 0 1 -5 5 a 5 5 0 0 1 -5 -5"/>
    <path d=" M 25 2275 h 10"/>
    <path d=" M 129 2275 h 10"/>
    <path d=" M 639 2275 h 10"/>
</g>
<g class="sequence">
    <path d=" M 10 2372 a 5 5 0 0 1 5 -5 a 5 5 0 0 1 5 5 a 5 5 0 0 1 -5 5 a 5 5 0 0 1 -5 -5 m 10 0 h 5"/>
    <text class="comment" id="Namepath" x="68" y="2377">
Namepath</text>
<g class="sequence">
<a class="link" xlink:href="#Identifier">
<g class="symbol">
    <rect height="22" width="100" x="111" y="2361"/>
    <text x="161" y="2377">
Identifier</text>
</g>
</a>
<g class="character">
    <rect height="22" rx="10" ry="10" width="76" x="221" y="2361"/>
    <text x="259" y="2377">
IGNORED</text>
</g>
<g class="repeat">
    <path d=" M 307 2372 h 12 m 232 0 h 12 m -12 0 a 12 12 0 0 1 12 12 v 7 a 12 12 0 0 1 -12 12 m -17 0 h -215 m 110 0 l 5 -5 m 0 10 l -5 -5 m -110 0 a 12 12 0 0 1 -12 -12 v -7 a 12 12 0 0 1 12 -12"/>
    <text class="comment" x="542" y="2408">
*</text>
<g class="sequence">
<g class="string">
    <rect height="22" rx="10" ry="10" width="36" x="319" y="2361"/>
    <text x="337" y="2377">
::</text>
</g>
<g class="character">
    <rect height="22" rx="10" ry="10" width="76" x="365" y="2361"/>
    <text x="403" y="2377">
IGNORED</text>
</g>
<a class="link" xlink:href="#Identifier">
<g class="symbol">
    <rect height="22" width="100" x="451" y="2361"/>
    <text x="501" y="2377">
Identifier</text>
</g>
</a>
    <path d=" M 355 2372 h 10"/>
    <path d=" M 441 2372 h 10"/>
</g>
</g>
    <path d=" M 211 2372 h 10"/>
    <path d=" M 297 2372 h 10"/>
</g>
    <path d=" M 573 2372 h 5 a 5 5 0 0 1 5 -5 a 5 5 0 0 1 5 5 a 5 5 0 0 1 -5 5 a 5 5 0 0 1 -5 -5"/>
    <path d=" M 25 2372 h 10"/>
    <path d=" M 101 2372 h 10"/>
    <path d=" M 563 2372 h 10"/>
</g>
<g class="sequence">
    <path d=" M 10 2436 a 5 5 0 0 1 5 -5 a 5 5 0 0 1 5 5 a 5 5 0 0 1 -5 5 a 5 5 0 0 1 -5 -5 m 10 0 h 5"/>
    <text class="comment" id="Identifier" x="75" y="2441">
Identifier</text>
<g class="string">
    <rect height="22" rx="10" ry="10" width="292" x="125" y="2425"/>
    <text x="271" y="2441">
[_\p{XID_start}]\p{XID_continue}*</text>
</g>
    <path d=" M 427 2436 h 5 a 5 5 0 0 1 5 -5 a 5 5 0 0 1 5 5 a 5 5 0 0 1 -5 5 a 5 5 0 0 1 -5 -5"/>
    <path d=" M 25 2436 h 10"/>
    <path d=" M 115 2436 h 10"/>
    <path d=" M 417 2436 h 10"/>
</g>
<g class="sequence">
    <path d=" M 10 2470 a 5 5 0 0 1 5 -5 a 5 5 0 0 1 5 5 a 5 5 0 0 1 -5 5 a 5 5 0 0 1 -5 -5 m 10 0 h 5"/>
    <text class="comment" id="Boolean" x="64" y="2475">
Boolean</text>
<g class="choice">
    <path d=" M 104 2470 h 24 m 52 0 h 32"/>
<g class="string">
    <rect height="22" rx="10" ry="10" width="52" x="128" y="2459"/>
    <text x="154" y="2475">
true</text>
</g>
    <path d=" M 104 2470 a 12 12 0 0 1 12 12 v 9 m 84 0 v -9 a 12 12 0 0 1 12 -12"/>
    <path d=" M 116 2491 v 0 a 12 12 0 0 0 12 12 m 60 0 h 0 a 12 12 0 0 0 12 -12 v 0"/>
<g class="string">
    <rect height="22" rx="10" ry="10" width="60" x="128" y="2492"/>
    <text x="158" y="2508">
false</text>
</g>
</g>
    <path d=" M 222 2470 h 5 a 5 5 0 0 1 5 -5 a 5 5 0 0 1 5 5 a 5 5 0 0 1 -5 5 a 5 5 0 0 1 -5 -5"/>
    <path d=" M 25 2470 h 10"/>
    <path d=" M 94 2470 h 10"/>
    <path d=" M 212 2470 h 10"/>
</g>
<g class="sequence">
    <path d=" M 10 2537 a 5 5 0 0 1 5 -5 a 5 5 0 0 1 5 5 a 5 5 0 0 1 -5 5 a 5 5 0 0 1 -5 -5 m 10 0 h 5"/>
    <text class="comment" id="WhiteSpace" x="75" y="2542">
WhiteSpace</text>
<g class="string">
    <rect height="22" rx="10" ry="10" width="148" x="125" y="2526"/>
    <text x="199" y="2542">
\p{White_Space}+</text>
</g>
    <path d=" M 283 2537 h 5 a 5 5 0 0 1 5 -5 a 5 5 0 0 1 5 5 a 5 5 0 0 1 -5 5 a 5 5 0 0 1 -5 -5"/>
    <path d=" M 25 2537 h 10"/>
    <path d=" M 115 2537 h 10"/>
    <path d=" M 273 2537 h 10"/>
</g>
</g>
</svg>
